<?xml version="1.0" encoding="UTF-8" standalone="no"?>
<!DOCTYPE svg PUBLIC "-//W3C//DTD SVG 1.1//EN"
 "http://www.w3.org/Graphics/SVG/1.1/DTD/svg11.dtd">
<!-- Generated by graphviz version 2.28.0 (20111028.1807)
 -->
<!-- Title: controllers_diagram Pages: 1 -->
<svg width="1307pt" height="1102pt"
 viewBox="0.00 0.00 1307.22 1102.00" xmlns="http://www.w3.org/2000/svg" xmlns:xlink="http://www.w3.org/1999/xlink">
<g id="graph1" class="graph" transform="scale(1 1) rotate(0) translate(4 1098)">
<title>controllers_diagram</title>
<polygon fill="white" stroke="white" points="-4,5 -4,-1098 1304.22,-1098 1304.22,5 -4,5"/>
<!-- _diagram_info -->
<g id="node1" class="node"><title>_diagram_info</title>
<text text-anchor="start" x="1099.84" y="-1077" font-family="Times,serif" font-size="13.00">Controllers diagram</text>
<text text-anchor="start" x="1099.84" y="-1061.4" font-family="Times,serif" font-size="13.00">Date: Jun 04 2013 &#45; 23:47</text>
<text text-anchor="start" x="1099.84" y="-1045.8" font-family="Times,serif" font-size="13.00">Migration version: 20130526073457</text>
<text text-anchor="start" x="1099.84" y="-1030.2" font-family="Times,serif" font-size="13.00">Generated by RailRoady 1.1.0</text>
<text text-anchor="start" x="1099.84" y="-1014.6" font-family="Times,serif" font-size="13.00">http://railroady.prestonlee.com</text>
</g>
<!-- ApplicationController -->
<g id="node2" class="node"><title>ApplicationController</title>
<polyline fill="none" stroke="black" points="476.517,-420.85 655.152,-420.85 "/>
<path fill="none" stroke="black" d="M655.152,-420.85C661.152,-420.85 667.152,-426.85 667.152,-432.85"/>
<polyline fill="none" stroke="black" points="667.152,-432.85 667.152,-624.85 "/>
<path fill="none" stroke="black" d="M667.152,-624.85C667.152,-630.85 661.152,-636.85 655.152,-636.85"/>
<polyline fill="none" stroke="black" points="655.152,-636.85 476.517,-636.85 "/>
<path fill="none" stroke="black" d="M476.517,-636.85C470.517,-636.85 464.517,-630.85 464.517,-624.85"/>
<polyline fill="none" stroke="black" points="464.517,-624.85 464.517,-432.85 "/>
<path fill="none" stroke="black" d="M464.517,-432.85C464.517,-426.85 470.517,-420.85 476.517,-420.85"/>
<text text-anchor="middle" x="565.834" y="-618.85" font-family="Times,serif" font-size="14.00">ApplicationController</text>
<polyline fill="none" stroke="black" points="464.517,-612.05 667.152,-612.05 "/>
<text text-anchor="start" x="472.517" y="-594.05" font-family="Times,serif" font-size="14.00">_one_time_conditions_valid_14?</text>
<text text-anchor="start" x="472.517" y="-577.25" font-family="Times,serif" font-size="14.00">auth</text>
<text text-anchor="start" x="472.517" y="-560.45" font-family="Times,serif" font-size="14.00">date_to_year</text>
<text text-anchor="start" x="472.517" y="-543.65" font-family="Times,serif" font-size="14.00">disconnect_blog</text>
<text text-anchor="start" x="472.517" y="-526.85" font-family="Times,serif" font-size="14.00">find_auth_provider_id</text>
<text text-anchor="start" x="472.517" y="-510.05" font-family="Times,serif" font-size="14.00">peace_corps_years_options</text>
<text text-anchor="start" x="472.517" y="-493.25" font-family="Times,serif" font-size="14.00">post_date</text>
<text text-anchor="start" x="472.517" y="-476.45" font-family="Times,serif" font-size="14.00">user_followings_by_type</text>
<polyline fill="none" stroke="black" points="464.517,-469.65 667.152,-469.65 "/>
<polyline fill="none" stroke="black" points="464.517,-445.65 667.152,-445.65 "/>
<text text-anchor="start" x="472.517" y="-427.65" font-family="Times,serif" font-size="14.00">_layout</text>
</g>
<!-- BloggerController -->
<g id="node3" class="node"><title>BloggerController</title>
<polyline fill="none" stroke="black" points="882.59,-714.443 1007.54,-714.443 "/>
<path fill="none" stroke="black" d="M1007.54,-714.443C1013.54,-714.443 1019.54,-720.443 1019.54,-726.443"/>
<polyline fill="none" stroke="black" points="1019.54,-726.443 1019.54,-868.043 "/>
<path fill="none" stroke="black" d="M1019.54,-868.043C1019.54,-874.043 1013.54,-880.043 1007.54,-880.043"/>
<polyline fill="none" stroke="black" points="1007.54,-880.043 882.59,-880.043 "/>
<path fill="none" stroke="black" d="M882.59,-880.043C876.59,-880.043 870.59,-874.043 870.59,-868.043"/>
<polyline fill="none" stroke="black" points="870.59,-868.043 870.59,-726.443 "/>
<path fill="none" stroke="black" d="M870.59,-726.443C870.59,-720.443 876.59,-714.443 882.59,-714.443"/>
<text text-anchor="middle" x="945.063" y="-862.043" font-family="Times,serif" font-size="14.00">BloggerController</text>
<polyline fill="none" stroke="black" points="870.59,-855.243 1019.54,-855.243 "/>
<text text-anchor="start" x="878.59" y="-837.243" font-family="Times,serif" font-size="14.00">authorize_blogger</text>
<text text-anchor="start" x="878.59" y="-820.443" font-family="Times,serif" font-size="14.00">create_blog_and_posts</text>
<text text-anchor="start" x="878.59" y="-803.643" font-family="Times,serif" font-size="14.00">disconnect</text>
<text text-anchor="start" x="878.59" y="-786.843" font-family="Times,serif" font-size="14.00">request_blogger_access</text>
<text text-anchor="start" x="878.59" y="-770.043" font-family="Times,serif" font-size="14.00">user_credentials</text>
<polyline fill="none" stroke="black" points="870.59,-763.243 1019.54,-763.243 "/>
<polyline fill="none" stroke="black" points="870.59,-739.243 1019.54,-739.243 "/>
<text text-anchor="start" x="878.59" y="-721.243" font-family="Times,serif" font-size="14.00">_layout</text>
</g>
<!-- ApplicationController&#45;&gt;BloggerController -->
<g id="edge2" class="edge"><title>ApplicationController&#45;&gt;BloggerController</title>
<path fill="none" stroke="black" d="M667.461,-600.774C731.415,-646.037 812.529,-703.444 870.533,-744.496"/>
</g>
<!-- FollowsController -->
<g id="node4" class="node"><title>FollowsController</title>
<polyline fill="none" stroke="black" points="330.202,-0.5 508.836,-0.5 "/>
<path fill="none" stroke="black" d="M508.836,-0.5C514.836,-0.5 520.836,-6.5 520.836,-12.5"/>
<polyline fill="none" stroke="black" points="520.836,-12.5 520.836,-154.1 "/>
<path fill="none" stroke="black" d="M520.836,-154.1C520.836,-160.1 514.836,-166.1 508.836,-166.1"/>
<polyline fill="none" stroke="black" points="508.836,-166.1 330.202,-166.1 "/>
<path fill="none" stroke="black" d="M330.202,-166.1C324.202,-166.1 318.202,-160.1 318.202,-154.1"/>
<polyline fill="none" stroke="black" points="318.202,-154.1 318.202,-12.5 "/>
<path fill="none" stroke="black" d="M318.202,-12.5C318.202,-6.5 324.202,-0.5 330.202,-0.5"/>
<text text-anchor="middle" x="419.519" y="-148.1" font-family="Times,serif" font-size="14.00">FollowsController</text>
<polyline fill="none" stroke="black" points="318.202,-141.3 520.836,-141.3 "/>
<text text-anchor="start" x="326.202" y="-123.3" font-family="Times,serif" font-size="14.00">_callback_before_21</text>
<text text-anchor="start" x="326.202" y="-106.5" font-family="Times,serif" font-size="14.00">_one_time_conditions_valid_22?</text>
<text text-anchor="start" x="326.202" y="-89.7" font-family="Times,serif" font-size="14.00">create</text>
<text text-anchor="start" x="326.202" y="-72.9" font-family="Times,serif" font-size="14.00">destroy</text>
<text text-anchor="start" x="326.202" y="-56.1" font-family="Times,serif" font-size="14.00">follow_params</text>
<polyline fill="none" stroke="black" points="318.202,-49.3 520.836,-49.3 "/>
<polyline fill="none" stroke="black" points="318.202,-25.3 520.836,-25.3 "/>
<text text-anchor="start" x="326.202" y="-7.3" font-family="Times,serif" font-size="14.00">_layout</text>
</g>
<!-- ApplicationController&#45;&gt;FollowsController -->
<g id="edge4" class="edge"><title>ApplicationController&#45;&gt;FollowsController</title>
<path fill="none" stroke="black" d="M530.322,-420.71C504.609,-342.411 470.368,-238.142 446.791,-166.345"/>
</g>
<!-- HomeController -->
<g id="node5" class="node"><title>HomeController</title>
<polyline fill="none" stroke="black" points="384.001,-897.018 467.76,-897.018 "/>
<path fill="none" stroke="black" d="M467.76,-897.018C473.76,-897.018 479.76,-903.018 479.76,-909.018"/>
<polyline fill="none" stroke="black" points="479.76,-909.018 479.76,-1033.82 "/>
<path fill="none" stroke="black" d="M479.76,-1033.82C479.76,-1039.82 473.76,-1045.82 467.76,-1045.82"/>
<polyline fill="none" stroke="black" points="467.76,-1045.82 384.001,-1045.82 "/>
<path fill="none" stroke="black" d="M384.001,-1045.82C378.001,-1045.82 372.001,-1039.82 372.001,-1033.82"/>
<polyline fill="none" stroke="black" points="372.001,-1033.82 372.001,-909.018 "/>
<path fill="none" stroke="black" d="M372.001,-909.018C372.001,-903.018 378.001,-897.018 384.001,-897.018"/>
<text text-anchor="middle" x="425.88" y="-1027.82" font-family="Times,serif" font-size="14.00">HomeController</text>
<polyline fill="none" stroke="black" points="372.001,-1021.02 479.76,-1021.02 "/>
<text text-anchor="start" x="380.001" y="-1003.02" font-family="Times,serif" font-size="14.00">about</text>
<text text-anchor="start" x="380.001" y="-986.218" font-family="Times,serif" font-size="14.00">home</text>
<text text-anchor="start" x="380.001" y="-969.418" font-family="Times,serif" font-size="14.00">landing</text>
<text text-anchor="start" x="380.001" y="-952.618" font-family="Times,serif" font-size="14.00">valid_query?</text>
<polyline fill="none" stroke="black" points="372.001,-945.818 479.76,-945.818 "/>
<polyline fill="none" stroke="black" points="372.001,-921.818 479.76,-921.818 "/>
<text text-anchor="start" x="380.001" y="-903.818" font-family="Times,serif" font-size="14.00">_layout</text>
</g>
<!-- ApplicationController&#45;&gt;HomeController -->
<g id="edge6" class="edge"><title>ApplicationController&#45;&gt;HomeController</title>
<path fill="none" stroke="black" d="M531.598,-637.114C506.106,-717.723 471.966,-825.684 449.467,-896.829"/>
</g>
<!-- InvolvementsController -->
<g id="node6" class="node"><title>InvolvementsController</title>
<polyline fill="none" stroke="black" points="624.589,-869.166 803.224,-869.166 "/>
<path fill="none" stroke="black" d="M803.224,-869.166C809.224,-869.166 815.224,-875.166 815.224,-881.166"/>
<polyline fill="none" stroke="black" points="815.224,-881.166 815.224,-1056.37 "/>
<path fill="none" stroke="black" d="M815.224,-1056.37C815.224,-1062.37 809.224,-1068.37 803.224,-1068.37"/>
<polyline fill="none" stroke="black" points="803.224,-1068.37 624.589,-1068.37 "/>
<path fill="none" stroke="black" d="M624.589,-1068.37C618.589,-1068.37 612.589,-1062.37 612.589,-1056.37"/>
<polyline fill="none" stroke="black" points="612.589,-1056.37 612.589,-881.166 "/>
<path fill="none" stroke="black" d="M612.589,-881.166C612.589,-875.166 618.589,-869.166 624.589,-869.166"/>
<text text-anchor="middle" x="713.907" y="-1050.37" font-family="Times,serif" font-size="14.00">InvolvementsController</text>
<polyline fill="none" stroke="black" points="612.589,-1043.57 815.224,-1043.57 "/>
<text text-anchor="start" x="620.589" y="-1025.57" font-family="Times,serif" font-size="14.00">_callback_before_41</text>
<text text-anchor="start" x="620.589" y="-1008.77" font-family="Times,serif" font-size="14.00">_one_time_conditions_valid_42?</text>
<text text-anchor="start" x="620.589" y="-991.966" font-family="Times,serif" font-size="14.00">create</text>
<text text-anchor="start" x="620.589" y="-975.166" font-family="Times,serif" font-size="14.00">destroy</text>
<text text-anchor="start" x="620.589" y="-958.366" font-family="Times,serif" font-size="14.00">edit</text>
<text text-anchor="start" x="620.589" y="-941.566" font-family="Times,serif" font-size="14.00">new</text>
<text text-anchor="start" x="620.589" y="-924.766" font-family="Times,serif" font-size="14.00">update</text>
<polyline fill="none" stroke="black" points="612.589,-917.966 815.224,-917.966 "/>
<polyline fill="none" stroke="black" points="612.589,-893.966 815.224,-893.966 "/>
<text text-anchor="start" x="620.589" y="-875.966" font-family="Times,serif" font-size="14.00">_layout</text>
</g>
<!-- ApplicationController&#45;&gt;InvolvementsController -->
<g id="edge8" class="edge"><title>ApplicationController&#45;&gt;InvolvementsController</title>
<path fill="none" stroke="black" d="M602.247,-637.029C626.095,-707.88 657.036,-799.807 680.298,-868.917"/>
</g>
<!-- MessagesController -->
<g id="node7" class="node"><title>MessagesController</title>
<polyline fill="none" stroke="black" points="139.807,-737.742 243.786,-737.742 "/>
<path fill="none" stroke="black" d="M243.786,-737.742C249.786,-737.742 255.786,-743.742 255.786,-749.742"/>
<polyline fill="none" stroke="black" points="255.786,-749.742 255.786,-857.742 "/>
<path fill="none" stroke="black" d="M255.786,-857.742C255.786,-863.742 249.786,-869.742 243.786,-869.742"/>
<polyline fill="none" stroke="black" points="243.786,-869.742 139.807,-869.742 "/>
<path fill="none" stroke="black" d="M139.807,-869.742C133.807,-869.742 127.807,-863.742 127.807,-857.742"/>
<polyline fill="none" stroke="black" points="127.807,-857.742 127.807,-749.742 "/>
<path fill="none" stroke="black" d="M127.807,-749.742C127.807,-743.742 133.807,-737.742 139.807,-737.742"/>
<text text-anchor="middle" x="191.797" y="-851.742" font-family="Times,serif" font-size="14.00">MessagesController</text>
<polyline fill="none" stroke="black" points="127.807,-844.942 255.786,-844.942 "/>
<text text-anchor="start" x="135.807" y="-826.942" font-family="Times,serif" font-size="14.00">create</text>
<text text-anchor="start" x="135.807" y="-810.142" font-family="Times,serif" font-size="14.00">index</text>
<text text-anchor="start" x="135.807" y="-793.342" font-family="Times,serif" font-size="14.00">receive_callback</text>
<polyline fill="none" stroke="black" points="127.807,-786.542 255.786,-786.542 "/>
<polyline fill="none" stroke="black" points="127.807,-762.542 255.786,-762.542 "/>
<text text-anchor="start" x="135.807" y="-744.542" font-family="Times,serif" font-size="14.00">_layout</text>
</g>
<!-- ApplicationController&#45;&gt;MessagesController -->
<g id="edge10" class="edge"><title>ApplicationController&#45;&gt;MessagesController</title>
<path fill="none" stroke="black" d="M464.121,-603.602C397.708,-652.411 313.03,-714.644 255.868,-756.654"/>
</g>
<!-- ProfilesController -->
<g id="node8" class="node"><title>ProfilesController</title>
<polyline fill="none" stroke="black" points="11.8413,-447.949 190.476,-447.949 "/>
<path fill="none" stroke="black" d="M190.476,-447.949C196.476,-447.949 202.476,-453.949 202.476,-459.949"/>
<polyline fill="none" stroke="black" points="202.476,-459.949 202.476,-601.549 "/>
<path fill="none" stroke="black" d="M202.476,-601.549C202.476,-607.549 196.476,-613.549 190.476,-613.549"/>
<polyline fill="none" stroke="black" points="190.476,-613.549 11.8413,-613.549 "/>
<path fill="none" stroke="black" d="M11.8413,-613.549C5.84131,-613.549 -0.158691,-607.549 -0.158691,-601.549"/>
<polyline fill="none" stroke="black" points="-0.158691,-601.549 -0.158691,-459.949 "/>
<path fill="none" stroke="black" d="M-0.158691,-459.949C-0.158691,-453.949 5.84131,-447.949 11.8413,-447.949"/>
<text text-anchor="middle" x="101.159" y="-595.549" font-family="Times,serif" font-size="14.00">ProfilesController</text>
<polyline fill="none" stroke="black" points="-0.158691,-588.749 202.476,-588.749 "/>
<text text-anchor="start" x="7.84131" y="-570.749" font-family="Times,serif" font-size="14.00">_callback_before_53</text>
<text text-anchor="start" x="7.84131" y="-553.949" font-family="Times,serif" font-size="14.00">_one_time_conditions_valid_54?</text>
<text text-anchor="start" x="7.84131" y="-537.149" font-family="Times,serif" font-size="14.00">edit</text>
<text text-anchor="start" x="7.84131" y="-520.349" font-family="Times,serif" font-size="14.00">update</text>
<polyline fill="none" stroke="black" points="-0.158691,-513.549 202.476,-513.549 "/>
<polyline fill="none" stroke="black" points="-0.158691,-489.549 202.476,-489.549 "/>
<text text-anchor="start" x="7.84131" y="-471.549" font-family="Times,serif" font-size="14.00">_layout</text>
<text text-anchor="start" x="7.84131" y="-454.749" font-family="Times,serif" font-size="14.00">format_phone_number</text>
</g>
<!-- ApplicationController&#45;&gt;ProfilesController -->
<g id="edge12" class="edge"><title>ApplicationController&#45;&gt;ProfilesController</title>
<path fill="none" stroke="black" d="M464.433,-529.264C386.858,-529.581 280.366,-530.016 202.744,-530.334"/>
</g>
<!-- SearchController -->
<g id="node9" class="node"><title>SearchController</title>
<polyline fill="none" stroke="black" points="985.525,-465.415 1073.16,-465.415 "/>
<path fill="none" stroke="black" d="M1073.16,-465.415C1079.16,-465.415 1085.16,-471.415 1085.16,-477.415"/>
<polyline fill="none" stroke="black" points="1085.16,-477.415 1085.16,-568.615 "/>
<path fill="none" stroke="black" d="M1085.16,-568.615C1085.16,-574.615 1079.16,-580.615 1073.16,-580.615"/>
<polyline fill="none" stroke="black" points="1073.16,-580.615 985.525,-580.615 "/>
<path fill="none" stroke="black" d="M985.525,-580.615C979.525,-580.615 973.525,-574.615 973.525,-568.615"/>
<polyline fill="none" stroke="black" points="973.525,-568.615 973.525,-477.415 "/>
<path fill="none" stroke="black" d="M973.525,-477.415C973.525,-471.415 979.525,-465.415 985.525,-465.415"/>
<text text-anchor="middle" x="1029.34" y="-562.615" font-family="Times,serif" font-size="14.00">SearchController</text>
<polyline fill="none" stroke="black" points="973.525,-555.815 1085.16,-555.815 "/>
<text text-anchor="start" x="981.525" y="-537.815" font-family="Times,serif" font-size="14.00">index</text>
<text text-anchor="start" x="981.525" y="-521.015" font-family="Times,serif" font-size="14.00">search_results</text>
<polyline fill="none" stroke="black" points="973.525,-514.215 1085.16,-514.215 "/>
<polyline fill="none" stroke="black" points="973.525,-490.215 1085.16,-490.215 "/>
<text text-anchor="start" x="981.525" y="-472.215" font-family="Times,serif" font-size="14.00">_layout</text>
</g>
<!-- ApplicationController&#45;&gt;SearchController -->
<g id="edge14" class="edge"><title>ApplicationController&#45;&gt;SearchController</title>
<path fill="none" stroke="black" d="M667.266,-527.573C761.316,-526.389 897.791,-524.671 973.485,-523.718"/>
</g>
<!-- SessionController -->
<g id="node10" class="node"><title>SessionController</title>
<polyline fill="none" stroke="black" points="80.7388,-141.571 298.202,-141.571 "/>
<path fill="none" stroke="black" d="M298.202,-141.571C304.202,-141.571 310.202,-147.571 310.202,-153.571"/>
<polyline fill="none" stroke="black" points="310.202,-153.571 310.202,-362.371 "/>
<path fill="none" stroke="black" d="M310.202,-362.371C310.202,-368.371 304.202,-374.371 298.202,-374.371"/>
<polyline fill="none" stroke="black" points="298.202,-374.371 80.7388,-374.371 "/>
<path fill="none" stroke="black" d="M80.7388,-374.371C74.7388,-374.371 68.7388,-368.371 68.7388,-362.371"/>
<polyline fill="none" stroke="black" points="68.7388,-362.371 68.7388,-153.571 "/>
<path fill="none" stroke="black" d="M68.7388,-153.571C68.7388,-147.571 74.7388,-141.571 80.7388,-141.571"/>
<text text-anchor="middle" x="189.47" y="-356.371" font-family="Times,serif" font-size="14.00">SessionController</text>
<polyline fill="none" stroke="black" points="68.7388,-349.571 310.202,-349.571 "/>
<text text-anchor="start" x="76.7388" y="-331.571" font-family="Times,serif" font-size="14.00">create</text>
<text text-anchor="start" x="76.7388" y="-314.771" font-family="Times,serif" font-size="14.00">destroy</text>
<text text-anchor="start" x="76.7388" y="-297.971" font-family="Times,serif" font-size="14.00">omniauth_failure</text>
<polyline fill="none" stroke="black" points="68.7388,-291.171 310.202,-291.171 "/>
<polyline fill="none" stroke="black" points="68.7388,-267.171 310.202,-267.171 "/>
<text text-anchor="start" x="76.7388" y="-249.171" font-family="Times,serif" font-size="14.00">_layout</text>
<text text-anchor="start" x="76.7388" y="-232.371" font-family="Times,serif" font-size="14.00">authenticate_user_by_email</text>
<text text-anchor="start" x="76.7388" y="-215.571" font-family="Times,serif" font-size="14.00">authenticate_user_by_external_provider</text>
<text text-anchor="start" x="76.7388" y="-198.771" font-family="Times,serif" font-size="14.00">create_user_by_uid</text>
<text text-anchor="start" x="76.7388" y="-181.971" font-family="Times,serif" font-size="14.00">external_provider_login?</text>
<text text-anchor="start" x="76.7388" y="-165.171" font-family="Times,serif" font-size="14.00">find_or_create_user_by_uid</text>
<text text-anchor="start" x="76.7388" y="-148.371" font-family="Times,serif" font-size="14.00">find_user_by_uid</text>
</g>
<!-- ApplicationController&#45;&gt;SessionController -->
<g id="edge16" class="edge"><title>ApplicationController&#45;&gt;SessionController</title>
<path fill="none" stroke="black" d="M464.481,-455.903C417.017,-421.742 360.115,-380.788 310.417,-345.019"/>
</g>
<!-- TumblrController -->
<g id="node11" class="node"><title>TumblrController</title>
<polyline fill="none" stroke="black" points="880.987,-172.929 1001.28,-172.929 "/>
<path fill="none" stroke="black" d="M1001.28,-172.929C1007.28,-172.929 1013.28,-178.929 1013.28,-184.929"/>
<polyline fill="none" stroke="black" points="1013.28,-184.929 1013.28,-309.729 "/>
<path fill="none" stroke="black" d="M1013.28,-309.729C1013.28,-315.729 1007.28,-321.729 1001.28,-321.729"/>
<polyline fill="none" stroke="black" points="1001.28,-321.729 880.987,-321.729 "/>
<path fill="none" stroke="black" d="M880.987,-321.729C874.987,-321.729 868.987,-315.729 868.987,-309.729"/>
<polyline fill="none" stroke="black" points="868.987,-309.729 868.987,-184.929 "/>
<path fill="none" stroke="black" d="M868.987,-184.929C868.987,-178.929 874.987,-172.929 880.987,-172.929"/>
<text text-anchor="middle" x="941.135" y="-303.729" font-family="Times,serif" font-size="14.00">TumblrController</text>
<polyline fill="none" stroke="black" points="868.987,-296.929 1013.28,-296.929 "/>
<text text-anchor="start" x="876.987" y="-278.929" font-family="Times,serif" font-size="14.00">connect</text>
<text text-anchor="start" x="876.987" y="-262.129" font-family="Times,serif" font-size="14.00">create_blog_and_posts</text>
<text text-anchor="start" x="876.987" y="-245.329" font-family="Times,serif" font-size="14.00">disconnect</text>
<polyline fill="none" stroke="black" points="868.987,-238.529 1013.28,-238.529 "/>
<polyline fill="none" stroke="black" points="868.987,-214.529 1013.28,-214.529 "/>
<text text-anchor="start" x="876.987" y="-196.529" font-family="Times,serif" font-size="14.00">_layout</text>
<text text-anchor="start" x="876.987" y="-179.729" font-family="Times,serif" font-size="14.00">build_photo_body</text>
</g>
<!-- ApplicationController&#45;&gt;TumblrController -->
<g id="edge18" class="edge"><title>ApplicationController&#45;&gt;TumblrController</title>
<path fill="none" stroke="black" d="M667.396,-452.666C731.11,-404.873 811.73,-344.399 868.936,-301.487"/>
</g>
<!-- UsersController -->
<g id="node12" class="node"><title>UsersController</title>
<polyline fill="none" stroke="black" points="658.842,-1.0367 748.043,-1.0367 "/>
<path fill="none" stroke="black" d="M748.043,-1.0367C754.043,-1.0367 760.043,-7.0367 760.043,-13.0367"/>
<polyline fill="none" stroke="black" points="760.043,-13.0367 760.043,-171.437 "/>
<path fill="none" stroke="black" d="M760.043,-171.437C760.043,-177.437 754.043,-183.437 748.043,-183.437"/>
<polyline fill="none" stroke="black" points="748.043,-183.437 658.842,-183.437 "/>
<path fill="none" stroke="black" d="M658.842,-183.437C652.842,-183.437 646.842,-177.437 646.842,-171.437"/>
<polyline fill="none" stroke="black" points="646.842,-171.437 646.842,-13.0367 "/>
<path fill="none" stroke="black" d="M646.842,-13.0367C646.842,-7.0367 652.842,-1.0367 658.842,-1.0367"/>
<text text-anchor="middle" x="703.443" y="-165.437" font-family="Times,serif" font-size="14.00">UsersController</text>
<polyline fill="none" stroke="black" points="646.842,-158.637 760.043,-158.637 "/>
<text text-anchor="start" x="654.842" y="-140.637" font-family="Times,serif" font-size="14.00">create</text>
<text text-anchor="start" x="654.842" y="-123.837" font-family="Times,serif" font-size="14.00">destroy</text>
<text text-anchor="start" x="654.842" y="-107.037" font-family="Times,serif" font-size="14.00">edit_password</text>
<text text-anchor="start" x="654.842" y="-90.2367" font-family="Times,serif" font-size="14.00">new</text>
<text text-anchor="start" x="654.842" y="-73.4367" font-family="Times,serif" font-size="14.00">show</text>
<text text-anchor="start" x="654.842" y="-56.6367" font-family="Times,serif" font-size="14.00">update_password</text>
<polyline fill="none" stroke="black" points="646.842,-49.8367 760.043,-49.8367 "/>
<polyline fill="none" stroke="black" points="646.842,-25.8367 760.043,-25.8367 "/>
<text text-anchor="start" x="654.842" y="-7.8367" font-family="Times,serif" font-size="14.00">_layout</text>
</g>
<!-- ApplicationController&#45;&gt;UsersController -->
<g id="edge20" class="edge"><title>ApplicationController&#45;&gt;UsersController</title>
<path fill="none" stroke="black" d="M599.938,-420.643C622.901,-347.784 652.849,-252.763 674.62,-183.689"/>
</g>
</g>
</svg>
