<?xml version="1.0" encoding="UTF-8" standalone="no"?>
<!DOCTYPE svg PUBLIC "-//W3C//DTD SVG 1.1//EN"
 "http://www.w3.org/Graphics/SVG/1.1/DTD/svg11.dtd">
<!-- Generated by graphviz version 2.28.0 (20111028.1807)
 -->
<!-- Title: models_diagram Pages: 1 -->
<svg width="1207pt" height="918pt"
 viewBox="0.00 0.00 1207.40 918.00" xmlns="http://www.w3.org/2000/svg" xmlns:xlink="http://www.w3.org/1999/xlink">
<g id="graph1" class="graph" transform="scale(1 1) rotate(0) translate(4 914)">
<title>models_diagram</title>
<polygon fill="white" stroke="white" points="-4,5 -4,-914 1204.4,-914 1204.4,5 -4,5"/>
<!-- _diagram_info -->
<g id="node1" class="node"><title>_diagram_info</title>
<text text-anchor="start" x="595.708" y="-885" font-family="Times,serif" font-size="13.00">Models diagram</text>
<text text-anchor="start" x="595.708" y="-869.4" font-family="Times,serif" font-size="13.00">Date: Jun 04 2013 &#45; 23:47</text>
<text text-anchor="start" x="595.708" y="-853.8" font-family="Times,serif" font-size="13.00">Migration version: 20130526073457</text>
<text text-anchor="start" x="595.708" y="-838.2" font-family="Times,serif" font-size="13.00">Generated by RailRoady 1.1.0</text>
<text text-anchor="start" x="595.708" y="-822.6" font-family="Times,serif" font-size="13.00">http://railroady.prestonlee.com</text>
</g>
<!-- Ability -->
<g id="node2" class="node"><title>Ability</title>
<polygon fill="none" stroke="black" points="813.561,-834.2 813.561,-883.8 869.23,-883.8 869.23,-834.2 813.561,-834.2"/>
<text text-anchor="middle" x="841.396" y="-865.8" font-family="Times,serif" font-size="14.00">Ability</text>
<polyline fill="none" stroke="black" points="813.561,-859 869.23,-859 "/>
<text text-anchor="middle" x="841.396" y="-841" font-family="Times,serif" font-size="14.00"> </text>
</g>
<!-- AuthProvider -->
<g id="node3" class="node"><title>AuthProvider</title>
<polyline fill="none" stroke="black" points="898.89,-809 1007.9,-809 "/>
<path fill="none" stroke="black" d="M1007.9,-809C1013.9,-809 1019.9,-815 1019.9,-821"/>
<polyline fill="none" stroke="black" points="1019.9,-821 1019.9,-897 "/>
<path fill="none" stroke="black" d="M1019.9,-897C1019.9,-903 1013.9,-909 1007.9,-909"/>
<polyline fill="none" stroke="black" points="1007.9,-909 898.89,-909 "/>
<path fill="none" stroke="black" d="M898.89,-909C892.89,-909 886.89,-903 886.89,-897"/>
<polyline fill="none" stroke="black" points="886.89,-897 886.89,-821 "/>
<path fill="none" stroke="black" d="M886.89,-821C886.89,-815 892.89,-809 898.89,-809"/>
<text text-anchor="middle" x="953.396" y="-891" font-family="Times,serif" font-size="14.00">AuthProvider</text>
<polyline fill="none" stroke="black" points="886.89,-884.2 1019.9,-884.2 "/>
<text text-anchor="start" x="894.89" y="-866.2" font-family="Times,serif" font-size="14.00">id :integer</text>
<text text-anchor="start" x="894.89" y="-849.4" font-family="Times,serif" font-size="14.00">name :string</text>
<text text-anchor="start" x="894.89" y="-832.6" font-family="Times,serif" font-size="14.00">created_at :datetime</text>
<text text-anchor="start" x="894.89" y="-815.8" font-family="Times,serif" font-size="14.00">updated_at :datetime</text>
</g>
<!-- Authorization -->
<g id="node4" class="node"><title>Authorization</title>
<polyline fill="none" stroke="black" points="1053.06,-405.2 1187.74,-405.2 "/>
<path fill="none" stroke="black" d="M1187.74,-405.2C1193.74,-405.2 1199.74,-411.2 1199.74,-417.2"/>
<polyline fill="none" stroke="black" points="1199.74,-417.2 1199.74,-526.8 "/>
<path fill="none" stroke="black" d="M1199.74,-526.8C1199.74,-532.8 1193.74,-538.8 1187.74,-538.8"/>
<polyline fill="none" stroke="black" points="1187.74,-538.8 1053.06,-538.8 "/>
<path fill="none" stroke="black" d="M1053.06,-538.8C1047.06,-538.8 1041.06,-532.8 1041.06,-526.8"/>
<polyline fill="none" stroke="black" points="1041.06,-526.8 1041.06,-417.2 "/>
<path fill="none" stroke="black" d="M1041.06,-417.2C1041.06,-411.2 1047.06,-405.2 1053.06,-405.2"/>
<text text-anchor="middle" x="1120.4" y="-520.8" font-family="Times,serif" font-size="14.00">Authorization</text>
<polyline fill="none" stroke="black" points="1041.06,-514 1199.74,-514 "/>
<text text-anchor="start" x="1049.06" y="-496" font-family="Times,serif" font-size="14.00">id :integer</text>
<text text-anchor="start" x="1049.06" y="-479.2" font-family="Times,serif" font-size="14.00">uid :string</text>
<text text-anchor="start" x="1049.06" y="-462.4" font-family="Times,serif" font-size="14.00">user_id :integer</text>
<text text-anchor="start" x="1049.06" y="-445.6" font-family="Times,serif" font-size="14.00">auth_provider_id :integer</text>
<text text-anchor="start" x="1049.06" y="-428.8" font-family="Times,serif" font-size="14.00">created_at :datetime</text>
<text text-anchor="start" x="1049.06" y="-412" font-family="Times,serif" font-size="14.00">updated_at :datetime</text>
</g>
<!-- AuthProvider&#45;&gt;Authorization -->
<g id="edge2" class="edge"><title>AuthProvider&#45;&gt;Authorization</title>
<path fill="none" stroke="#e93cbc" d="M977.943,-801.408C1007.01,-734.388 1055.55,-622.503 1087.76,-548.237"/>
<ellipse fill="none" stroke="#e93cbc" cx="976.308" cy="-805.179" rx="4.00002" ry="4.00002"/>
<polygon fill="#e93cbc" stroke="#e93cbc" points="1087.82,-548.095 1095.93,-540.712 1089.81,-543.508 1091.8,-538.921 1091.8,-538.921 1091.8,-538.921 1089.81,-543.508 1087.67,-537.13 1087.82,-548.095 1087.82,-548.095"/>
</g>
<!-- User -->
<g id="node12" class="node"><title>User</title>
<polyline fill="none" stroke="black" points="392.094,-602.4 516.697,-602.4 "/>
<path fill="none" stroke="black" d="M516.697,-602.4C522.697,-602.4 528.697,-608.4 528.697,-614.4"/>
<polyline fill="none" stroke="black" points="528.697,-614.4 528.697,-757.6 "/>
<path fill="none" stroke="black" d="M528.697,-757.6C528.697,-763.6 522.697,-769.6 516.697,-769.6"/>
<polyline fill="none" stroke="black" points="516.697,-769.6 392.094,-769.6 "/>
<path fill="none" stroke="black" d="M392.094,-769.6C386.094,-769.6 380.094,-763.6 380.094,-757.6"/>
<polyline fill="none" stroke="black" points="380.094,-757.6 380.094,-614.4 "/>
<path fill="none" stroke="black" d="M380.094,-614.4C380.094,-608.4 386.094,-602.4 392.094,-602.4"/>
<text text-anchor="middle" x="454.396" y="-751.6" font-family="Times,serif" font-size="14.00">User</text>
<polyline fill="none" stroke="black" points="380.094,-744.8 528.697,-744.8 "/>
<text text-anchor="start" x="388.094" y="-726.8" font-family="Times,serif" font-size="14.00">id :integer</text>
<text text-anchor="start" x="388.094" y="-710" font-family="Times,serif" font-size="14.00">status :string</text>
<text text-anchor="start" x="388.094" y="-693.2" font-family="Times,serif" font-size="14.00">email :string</text>
<text text-anchor="start" x="388.094" y="-676.4" font-family="Times,serif" font-size="14.00">name :string</text>
<text text-anchor="start" x="388.094" y="-659.6" font-family="Times,serif" font-size="14.00">password_digest :string</text>
<text text-anchor="start" x="388.094" y="-642.8" font-family="Times,serif" font-size="14.00">created_at :datetime</text>
<text text-anchor="start" x="388.094" y="-626" font-family="Times,serif" font-size="14.00">updated_at :datetime</text>
<text text-anchor="start" x="388.094" y="-609.2" font-family="Times,serif" font-size="14.00">auth_status :string</text>
</g>
<!-- AuthProvider&#45;&gt;User -->
<g id="edge4" class="edge"><title>AuthProvider&#45;&gt;User</title>
<path fill="none" stroke="#21bd5a" d="M877.678,-808.13C877.584,-808.087 877.49,-808.043 877.396,-808 765.263,-756.539 626.233,-721.846 538.889,-703.249"/>
<polygon fill="#21bd5a" stroke="#21bd5a" points="877.493,-808.039 884.481,-816.49 881.98,-810.245 886.466,-812.451 886.466,-812.451 886.466,-812.451 881.98,-810.245 888.452,-808.413 877.493,-808.039 877.493,-808.039"/>
<polygon fill="#21bd5a" stroke="#21bd5a" points="538.81,-703.232 529.953,-696.767 533.917,-702.201 529.025,-701.17 529.025,-701.17 529.025,-701.17 533.917,-702.201 528.097,-705.574 538.81,-703.232 538.81,-703.232"/>
</g>
<!-- Blog -->
<g id="node5" class="node"><title>Blog</title>
<polyline fill="none" stroke="black" points="53.7076,-190.4 165.084,-190.4 "/>
<path fill="none" stroke="black" d="M165.084,-190.4C171.084,-190.4 177.084,-196.4 177.084,-202.4"/>
<polyline fill="none" stroke="black" points="177.084,-202.4 177.084,-345.6 "/>
<path fill="none" stroke="black" d="M177.084,-345.6C177.084,-351.6 171.084,-357.6 165.084,-357.6"/>
<polyline fill="none" stroke="black" points="165.084,-357.6 53.7076,-357.6 "/>
<path fill="none" stroke="black" d="M53.7076,-357.6C47.7076,-357.6 41.7076,-351.6 41.7076,-345.6"/>
<polyline fill="none" stroke="black" points="41.7076,-345.6 41.7076,-202.4 "/>
<path fill="none" stroke="black" d="M41.7076,-202.4C41.7076,-196.4 47.7076,-190.4 53.7076,-190.4"/>
<text text-anchor="middle" x="109.396" y="-339.6" font-family="Times,serif" font-size="14.00">Blog</text>
<polyline fill="none" stroke="black" points="41.7076,-332.8 177.084,-332.8 "/>
<text text-anchor="start" x="49.7076" y="-314.8" font-family="Times,serif" font-size="14.00">id :integer</text>
<text text-anchor="start" x="49.7076" y="-298" font-family="Times,serif" font-size="14.00">title :string</text>
<text text-anchor="start" x="49.7076" y="-281.2" font-family="Times,serif" font-size="14.00">url :string</text>
<text text-anchor="start" x="49.7076" y="-264.4" font-family="Times,serif" font-size="14.00">external_id :string</text>
<text text-anchor="start" x="49.7076" y="-247.6" font-family="Times,serif" font-size="14.00">blog_host_id :integer</text>
<text text-anchor="start" x="49.7076" y="-230.8" font-family="Times,serif" font-size="14.00">user_id :integer</text>
<text text-anchor="start" x="49.7076" y="-214" font-family="Times,serif" font-size="14.00">created_at :datetime</text>
<text text-anchor="start" x="49.7076" y="-197.2" font-family="Times,serif" font-size="14.00">updated_at :datetime</text>
</g>
<!-- Post -->
<g id="node10" class="node"><title>Post</title>
<polyline fill="none" stroke="black" points="155.828,-0.8 274.963,-0.8 "/>
<path fill="none" stroke="black" d="M274.963,-0.8C280.963,-0.8 286.963,-6.8 286.963,-12.8"/>
<polyline fill="none" stroke="black" points="286.963,-12.8 286.963,-139.2 "/>
<path fill="none" stroke="black" d="M286.963,-139.2C286.963,-145.2 280.963,-151.2 274.963,-151.2"/>
<polyline fill="none" stroke="black" points="274.963,-151.2 155.828,-151.2 "/>
<path fill="none" stroke="black" d="M155.828,-151.2C149.828,-151.2 143.828,-145.2 143.828,-139.2"/>
<polyline fill="none" stroke="black" points="143.828,-139.2 143.828,-12.8 "/>
<path fill="none" stroke="black" d="M143.828,-12.8C143.828,-6.8 149.828,-0.8 155.828,-0.8"/>
<text text-anchor="middle" x="215.396" y="-133.2" font-family="Times,serif" font-size="14.00">Post</text>
<polyline fill="none" stroke="black" points="143.828,-126.4 286.963,-126.4 "/>
<text text-anchor="start" x="151.828" y="-108.4" font-family="Times,serif" font-size="14.00">id :integer</text>
<text text-anchor="start" x="151.828" y="-91.6" font-family="Times,serif" font-size="14.00">title :string</text>
<text text-anchor="start" x="151.828" y="-74.8" font-family="Times,serif" font-size="14.00">body :text</text>
<text text-anchor="start" x="151.828" y="-58" font-family="Times,serif" font-size="14.00">published_at :datetime</text>
<text text-anchor="start" x="151.828" y="-41.2" font-family="Times,serif" font-size="14.00">blog_id :integer</text>
<text text-anchor="start" x="151.828" y="-24.4" font-family="Times,serif" font-size="14.00">created_at :datetime</text>
<text text-anchor="start" x="151.828" y="-7.6" font-family="Times,serif" font-size="14.00">updated_at :datetime</text>
</g>
<!-- Blog&#45;&gt;Post -->
<g id="edge6" class="edge"><title>Blog&#45;&gt;Post</title>
<path fill="none" stroke="#b50997" d="M158.122,-182.902C162.124,-175.503 166.158,-168.043 170.133,-160.692"/>
<ellipse fill="none" stroke="#b50997" cx="156.098" cy="-186.644" rx="4.00002" ry="4.00002"/>
<polygon fill="#b50997" stroke="#b50997" points="170.373,-160.25 179.088,-153.594 172.751,-155.852 175.13,-151.453 175.13,-151.453 175.13,-151.453 172.751,-155.852 171.172,-149.313 170.373,-160.25 170.373,-160.25"/>
</g>
<!-- BlogHost -->
<g id="node6" class="node"><title>BlogHost</title>
<polyline fill="none" stroke="black" points="44.8903,-422 153.901,-422 "/>
<path fill="none" stroke="black" d="M153.901,-422C159.901,-422 165.901,-428 165.901,-434"/>
<polyline fill="none" stroke="black" points="165.901,-434 165.901,-510 "/>
<path fill="none" stroke="black" d="M165.901,-510C165.901,-516 159.901,-522 153.901,-522"/>
<polyline fill="none" stroke="black" points="153.901,-522 44.8903,-522 "/>
<path fill="none" stroke="black" d="M44.8903,-522C38.8903,-522 32.8903,-516 32.8903,-510"/>
<polyline fill="none" stroke="black" points="32.8903,-510 32.8903,-434 "/>
<path fill="none" stroke="black" d="M32.8903,-434C32.8903,-428 38.8903,-422 44.8903,-422"/>
<text text-anchor="middle" x="99.3956" y="-504" font-family="Times,serif" font-size="14.00">BlogHost</text>
<polyline fill="none" stroke="black" points="32.8903,-497.2 165.901,-497.2 "/>
<text text-anchor="start" x="40.8903" y="-479.2" font-family="Times,serif" font-size="14.00">id :integer</text>
<text text-anchor="start" x="40.8903" y="-462.4" font-family="Times,serif" font-size="14.00">name :string</text>
<text text-anchor="start" x="40.8903" y="-445.6" font-family="Times,serif" font-size="14.00">created_at :datetime</text>
<text text-anchor="start" x="40.8903" y="-428.8" font-family="Times,serif" font-size="14.00">updated_at :datetime</text>
</g>
<!-- BlogHost&#45;&gt;Blog -->
<g id="edge8" class="edge"><title>BlogHost&#45;&gt;Blog</title>
<path fill="none" stroke="#0c1599" d="M102.333,-413.423C103.062,-399.137 103.862,-383.461 104.653,-367.954"/>
<ellipse fill="none" stroke="#0c1599" cx="102.11" cy="-417.799" rx="4" ry="4"/>
<polygon fill="#0c1599" stroke="#0c1599" points="104.661,-367.792 109.665,-358.034 104.916,-362.798 105.171,-357.805 105.171,-357.805 105.171,-357.805 104.916,-362.798 100.677,-357.575 104.661,-367.792 104.661,-367.792"/>
</g>
<!-- Country -->
<g id="node7" class="node"><title>Country</title>
<polyline fill="none" stroke="black" points="195.89,-422 304.901,-422 "/>
<path fill="none" stroke="black" d="M304.901,-422C310.901,-422 316.901,-428 316.901,-434"/>
<polyline fill="none" stroke="black" points="316.901,-434 316.901,-510 "/>
<path fill="none" stroke="black" d="M316.901,-510C316.901,-516 310.901,-522 304.901,-522"/>
<polyline fill="none" stroke="black" points="304.901,-522 195.89,-522 "/>
<path fill="none" stroke="black" d="M195.89,-522C189.89,-522 183.89,-516 183.89,-510"/>
<polyline fill="none" stroke="black" points="183.89,-510 183.89,-434 "/>
<path fill="none" stroke="black" d="M183.89,-434C183.89,-428 189.89,-422 195.89,-422"/>
<text text-anchor="middle" x="250.396" y="-504" font-family="Times,serif" font-size="14.00">Country</text>
<polyline fill="none" stroke="black" points="183.89,-497.2 316.901,-497.2 "/>
<text text-anchor="start" x="191.89" y="-479.2" font-family="Times,serif" font-size="14.00">id :integer</text>
<text text-anchor="start" x="191.89" y="-462.4" font-family="Times,serif" font-size="14.00">name :string</text>
<text text-anchor="start" x="191.89" y="-445.6" font-family="Times,serif" font-size="14.00">created_at :datetime</text>
<text text-anchor="start" x="191.89" y="-428.8" font-family="Times,serif" font-size="14.00">updated_at :datetime</text>
</g>
<!-- Country&#45;&gt;Blog -->
<g id="edge14" class="edge"><title>Country&#45;&gt;Blog</title>
<path fill="none" stroke="#3063cd" d="M208.975,-413.423C198.307,-398.592 186.561,-382.265 174.991,-366.183"/>
<polygon fill="#3063cd" stroke="#3063cd" points="209.158,-413.676 211.344,-424.422 212.077,-417.735 214.997,-421.794 214.997,-421.794 214.997,-421.794 212.077,-417.735 218.65,-419.166 209.158,-413.676 209.158,-413.676"/>
<polygon fill="#3063cd" stroke="#3063cd" points="174.804,-365.923 172.617,-355.177 171.884,-361.864 168.964,-357.805 168.964,-357.805 168.964,-357.805 171.884,-361.864 165.311,-360.433 174.804,-365.923 174.804,-365.923"/>
</g>
<!-- Follow -->
<g id="node8" class="node"><title>Follow</title>
<polyline fill="none" stroke="black" points="433.27,-207.2 555.522,-207.2 "/>
<path fill="none" stroke="black" d="M555.522,-207.2C561.522,-207.2 567.522,-213.2 567.522,-219.2"/>
<polyline fill="none" stroke="black" points="567.522,-219.2 567.522,-328.8 "/>
<path fill="none" stroke="black" d="M567.522,-328.8C567.522,-334.8 561.522,-340.8 555.522,-340.8"/>
<polyline fill="none" stroke="black" points="555.522,-340.8 433.27,-340.8 "/>
<path fill="none" stroke="black" d="M433.27,-340.8C427.27,-340.8 421.27,-334.8 421.27,-328.8"/>
<polyline fill="none" stroke="black" points="421.27,-328.8 421.27,-219.2 "/>
<path fill="none" stroke="black" d="M421.27,-219.2C421.27,-213.2 427.27,-207.2 433.27,-207.2"/>
<text text-anchor="middle" x="494.396" y="-322.8" font-family="Times,serif" font-size="14.00">Follow</text>
<polyline fill="none" stroke="black" points="421.27,-316 567.522,-316 "/>
<text text-anchor="start" x="429.27" y="-298" font-family="Times,serif" font-size="14.00">id :integer</text>
<text text-anchor="start" x="429.27" y="-281.2" font-family="Times,serif" font-size="14.00">followable_id :integer</text>
<text text-anchor="start" x="429.27" y="-264.4" font-family="Times,serif" font-size="14.00">followable_type :string</text>
<text text-anchor="start" x="429.27" y="-247.6" font-family="Times,serif" font-size="14.00">follower_id :integer</text>
<text text-anchor="start" x="429.27" y="-230.8" font-family="Times,serif" font-size="14.00">created_at :datetime</text>
<text text-anchor="start" x="429.27" y="-214" font-family="Times,serif" font-size="14.00">updated_at :datetime</text>
</g>
<!-- Country&#45;&gt;Follow -->
<g id="edge18" class="edge"><title>Country&#45;&gt;Follow</title>
<path fill="none" stroke="#131524" d="M317.963,-416.724C347.33,-393.135 381.99,-365.293 412.781,-340.559"/>
<ellipse fill="none" stroke="#131524" cx="314.771" cy="-419.289" rx="4.00002" ry="4.00002"/>
<polygon fill="#131524" stroke="#131524" points="413.14,-340.271 423.754,-337.517 417.038,-337.14 420.936,-334.008 420.936,-334.008 420.936,-334.008 417.038,-337.14 418.118,-330.5 413.14,-340.271 413.14,-340.271"/>
</g>
<!-- Involvement -->
<g id="node9" class="node"><title>Involvement</title>
<polyline fill="none" stroke="black" points="254.939,-198.8 353.853,-198.8 "/>
<path fill="none" stroke="black" d="M353.853,-198.8C359.853,-198.8 365.853,-204.8 365.853,-210.8"/>
<polyline fill="none" stroke="black" points="365.853,-210.8 365.853,-337.2 "/>
<path fill="none" stroke="black" d="M365.853,-337.2C365.853,-343.2 359.853,-349.2 353.853,-349.2"/>
<polyline fill="none" stroke="black" points="353.853,-349.2 254.939,-349.2 "/>
<path fill="none" stroke="black" d="M254.939,-349.2C248.939,-349.2 242.939,-343.2 242.939,-337.2"/>
<polyline fill="none" stroke="black" points="242.939,-337.2 242.939,-210.8 "/>
<path fill="none" stroke="black" d="M242.939,-210.8C242.939,-204.8 248.939,-198.8 254.939,-198.8"/>
<text text-anchor="middle" x="304.396" y="-331.2" font-family="Times,serif" font-size="14.00">Involvement</text>
<polyline fill="none" stroke="black" points="242.939,-324.4 365.853,-324.4 "/>
<text text-anchor="start" x="250.939" y="-306.4" font-family="Times,serif" font-size="14.00">user_id :integer</text>
<text text-anchor="start" x="250.939" y="-289.6" font-family="Times,serif" font-size="14.00">country_id :integer</text>
<text text-anchor="start" x="250.939" y="-272.8" font-family="Times,serif" font-size="14.00">id :integer</text>
<text text-anchor="start" x="250.939" y="-256" font-family="Times,serif" font-size="14.00">description :text</text>
<text text-anchor="start" x="250.939" y="-239.2" font-family="Times,serif" font-size="14.00">sector :string</text>
<text text-anchor="start" x="250.939" y="-222.4" font-family="Times,serif" font-size="14.00">start_date :date</text>
<text text-anchor="start" x="250.939" y="-205.6" font-family="Times,serif" font-size="14.00">end_date :date</text>
</g>
<!-- Country&#45;&gt;Involvement -->
<g id="edge10" class="edge"><title>Country&#45;&gt;Involvement</title>
<path fill="none" stroke="#b160b6" d="M266.119,-413.931C270.824,-396.854 276.085,-377.757 281.165,-359.319"/>
<ellipse fill="none" stroke="#b160b6" cx="265.015" cy="-417.938" rx="4.00001" ry="4.00001"/>
<polygon fill="#b160b6" stroke="#b160b6" points="281.226,-359.098 288.22,-350.652 282.554,-354.277 283.882,-349.457 283.882,-349.457 283.882,-349.457 282.554,-354.277 279.544,-348.261 281.226,-359.098 281.226,-359.098"/>
</g>
<!-- Country&#45;&gt;Post -->
<g id="edge16" class="edge"><title>Country&#45;&gt;Post</title>
<path fill="none" stroke="#e0ad77" d="M241.194,-411.884C238.721,-394.552 236.228,-375.544 234.396,-358 227.521,-292.188 222.605,-217.433 219.498,-161.58"/>
<polygon fill="#e0ad77" stroke="#e0ad77" points="241.207,-411.975 238.189,-422.517 241.924,-416.923 242.642,-421.871 242.642,-421.871 242.642,-421.871 241.924,-416.923 247.095,-421.225 241.207,-411.975 241.207,-411.975"/>
<polygon fill="#e0ad77" stroke="#e0ad77" points="219.486,-161.362 223.432,-151.131 219.213,-156.369 218.939,-151.377 218.939,-151.377 218.939,-151.377 219.213,-156.369 214.446,-151.623 219.486,-161.362 219.486,-161.362"/>
</g>
<!-- Country&#45;&gt;User -->
<g id="edge12" class="edge"><title>Country&#45;&gt;User</title>
<path fill="none" stroke="#b27c62" d="M194.838,-529.253C188.058,-535.691 181.142,-542.066 174.396,-548 164.649,-556.573 157.081,-554.331 151.396,-566 147.892,-573.192 146.718,-577.51 151.396,-584 200.762,-652.492 298.592,-675.239 369.773,-682.427"/>
<polygon fill="#b27c62" stroke="#b27c62" points="194.91,-529.185 205.242,-525.51 198.518,-525.723 202.127,-522.262 202.127,-522.262 202.127,-522.262 198.518,-525.723 199.012,-519.015 194.91,-529.185 194.91,-529.185"/>
<polygon fill="#b27c62" stroke="#b27c62" points="370.115,-682.459 379.659,-687.859 375.094,-682.919 380.073,-683.378 380.073,-683.378 380.073,-683.378 375.094,-682.919 380.487,-678.898 370.115,-682.459 370.115,-682.459"/>
</g>
<!-- Country&#45;&gt;User -->
<g id="edge20" class="edge"><title>Country&#45;&gt;User</title>
<path fill="none" stroke="#2b27a8" d="M191.316,-530.55C183.214,-541.506 176.111,-553.488 171.52,-566 168.764,-573.51 166.911,-577.461 171.52,-584 216.095,-647.247 304.032,-671.108 370.088,-679.992"/>
<polygon fill="#2b27a8" stroke="#2b27a8" points="191.535,-530.268 201.231,-525.145 194.608,-526.324 197.681,-522.379 197.681,-522.379 197.681,-522.379 194.608,-526.324 194.131,-519.614 191.535,-530.268 191.535,-530.268"/>
<polygon fill="#2b27a8" stroke="#2b27a8" points="370.157,-680 379.519,-685.71 375.118,-680.622 380.079,-681.245 380.079,-681.245 380.079,-681.245 375.118,-680.622 380.639,-676.78 370.157,-680 370.157,-680"/>
<text text-anchor="middle" x="198.834" y="-569.4" font-family="Times,serif" font-size="14.00">followers</text>
</g>
<!-- Profile -->
<g id="node11" class="node"><title>Profile</title>
<polyline fill="none" stroke="black" points="566.89,-396.8 675.901,-396.8 "/>
<path fill="none" stroke="black" d="M675.901,-396.8C681.901,-396.8 687.901,-402.8 687.901,-408.8"/>
<polyline fill="none" stroke="black" points="687.901,-408.8 687.901,-535.2 "/>
<path fill="none" stroke="black" d="M687.901,-535.2C687.901,-541.2 681.901,-547.2 675.901,-547.2"/>
<polyline fill="none" stroke="black" points="675.901,-547.2 566.89,-547.2 "/>
<path fill="none" stroke="black" d="M566.89,-547.2C560.89,-547.2 554.89,-541.2 554.89,-535.2"/>
<polyline fill="none" stroke="black" points="554.89,-535.2 554.89,-408.8 "/>
<path fill="none" stroke="black" d="M554.89,-408.8C554.89,-402.8 560.89,-396.8 566.89,-396.8"/>
<text text-anchor="middle" x="621.396" y="-529.2" font-family="Times,serif" font-size="14.00">Profile</text>
<polyline fill="none" stroke="black" points="554.89,-522.4 687.901,-522.4 "/>
<text text-anchor="start" x="562.89" y="-504.4" font-family="Times,serif" font-size="14.00">id :integer</text>
<text text-anchor="start" x="562.89" y="-487.6" font-family="Times,serif" font-size="14.00">location :string</text>
<text text-anchor="start" x="562.89" y="-470.8" font-family="Times,serif" font-size="14.00">bio :text</text>
<text text-anchor="start" x="562.89" y="-454" font-family="Times,serif" font-size="14.00">photo_url :string</text>
<text text-anchor="start" x="562.89" y="-437.2" font-family="Times,serif" font-size="14.00">user_id :integer</text>
<text text-anchor="start" x="562.89" y="-420.4" font-family="Times,serif" font-size="14.00">created_at :datetime</text>
<text text-anchor="start" x="562.89" y="-403.6" font-family="Times,serif" font-size="14.00">updated_at :datetime</text>
</g>
<!-- User&#45;&gt;Authorization -->
<g id="edge38" class="edge"><title>User&#45;&gt;Authorization</title>
<path fill="none" stroke="#dbc79d" d="M537.241,-677.953C653.51,-665.343 869.136,-631.874 1032.4,-548 1034.7,-546.816 1037,-545.561 1039.28,-544.245"/>
<ellipse fill="none" stroke="#dbc79d" cx="533.021" cy="-678.402" rx="4" ry="4"/>
<polygon fill="#dbc79d" stroke="#dbc79d" points="1039.48,-544.12 1050.36,-542.721 1043.74,-541.504 1048,-538.887 1048,-538.887 1048,-538.887 1043.74,-541.504 1045.65,-535.052 1039.48,-544.12 1039.48,-544.12"/>
</g>
<!-- User&#45;&gt;Blog -->
<g id="edge24" class="edge"><title>User&#45;&gt;Blog</title>
<path fill="none" stroke="#c31f26" d="M372.05,-670.651C258.973,-649.078 64.8713,-604.704 23.3956,-548 -16.487,-493.474 2.85478,-460.357 23.3956,-396 26.6954,-385.661 31.2366,-375.45 36.5214,-365.604"/>
<ellipse fill="none" stroke="#c31f26" cx="376.118" cy="-671.421" rx="4.00001" ry="4.00001"/>
<polygon fill="#c31f26" stroke="#c31f26" points="36.6496,-365.377 45.4873,-358.885 39.1096,-361.024 41.5696,-356.671 41.5696,-356.671 41.5696,-356.671 39.1096,-361.024 37.6519,-354.457 36.6496,-365.377 36.6496,-365.377"/>
</g>
<!-- User&#45;&gt;Country -->
<g id="edge36" class="edge"><title>User&#45;&gt;Country</title>
<path fill="none" stroke="#db09d9" d="M370.208,-666.669C325.553,-652.203 274.496,-627.013 247.637,-584 238.163,-568.828 235.919,-550.072 236.909,-532.323"/>
<polygon fill="#db09d9" stroke="#db09d9" points="370.371,-666.719 378.589,-673.981 375.147,-668.201 379.922,-669.683 379.922,-669.683 379.922,-669.683 375.147,-668.201 381.256,-665.385 370.371,-666.719 370.371,-666.719"/>
<polygon fill="#db09d9" stroke="#db09d9" points="236.94,-531.984 242.317,-522.427 237.387,-527.004 237.835,-522.024 237.835,-522.024 237.835,-522.024 237.387,-527.004 233.353,-521.621 236.94,-531.984 236.94,-531.984"/>
<text text-anchor="middle" x="303.775" y="-569.4" font-family="Times,serif" font-size="14.00">following_countries</text>
</g>
<!-- User&#45;&gt;Follow -->
<g id="edge28" class="edge"><title>User&#45;&gt;Follow</title>
<path fill="none" stroke="#f721f0" d="M447.582,-593.937C445.059,-536.75 444.961,-461.648 455.396,-396 457.769,-381.07 461.664,-365.466 466.097,-350.619"/>
<ellipse fill="none" stroke="#f721f0" cx="447.784" cy="-598.246" rx="4" ry="4"/>
<polygon fill="#f721f0" stroke="#f721f0" points="466.121,-350.54 473.376,-342.317 467.599,-345.763 469.077,-340.987 469.077,-340.987 469.077,-340.987 467.599,-345.763 464.778,-339.657 466.121,-350.54 466.121,-350.54"/>
</g>
<!-- User&#45;&gt;Follow -->
<g id="edge32" class="edge"><title>User&#45;&gt;Follow</title>
<path fill="none" stroke="#210395" d="M463.295,-593.781C470.406,-520.89 480.258,-419.912 486.954,-351.273"/>
<ellipse fill="none" stroke="#210395" cx="462.879" cy="-598.049" rx="4" ry="4"/>
<polygon fill="#210395" stroke="#210395" points="486.989,-350.919 492.439,-341.403 487.474,-345.942 487.96,-340.966 487.96,-340.966 487.96,-340.966 487.474,-345.942 483.481,-340.529 486.989,-350.919 486.989,-350.919"/>
<text text-anchor="middle" x="512.34" y="-466.4" font-family="Times,serif" font-size="14.00">followings</text>
</g>
<!-- User&#45;&gt;Involvement -->
<g id="edge22" class="edge"><title>User&#45;&gt;Involvement</title>
<path fill="none" stroke="#02a863" d="M393.771,-595.209C391.87,-591.47 390.069,-587.726 388.396,-584 355.696,-511.192 333.254,-422.862 319.849,-359.32"/>
<ellipse fill="none" stroke="#02a863" cx="395.679" cy="-598.843" rx="4.00002" ry="4.00002"/>
<polygon fill="#02a863" stroke="#02a863" points="319.81,-359.132 322.181,-348.425 318.793,-354.236 317.775,-349.341 317.775,-349.341 317.775,-349.341 318.793,-354.236 313.369,-350.257 319.81,-359.132 319.81,-359.132"/>
</g>
<!-- User&#45;&gt;Post -->
<g id="edge26" class="edge"><title>User&#45;&gt;Post</title>
<path fill="none" stroke="#bad982" d="M443.288,-591.933C426.719,-458.076 395.251,-223.52 374.396,-190 355.426,-159.511 324.893,-134.893 295.63,-116.513"/>
<polygon fill="#bad982" stroke="#bad982" points="443.328,-592.259 440.086,-602.735 443.94,-597.222 444.552,-602.184 444.552,-602.184 444.552,-602.184 443.94,-597.222 449.018,-601.633 443.328,-592.259 443.328,-592.259"/>
<polygon fill="#bad982" stroke="#bad982" points="295.549,-116.464 289.359,-107.412 291.281,-113.858 287.014,-111.253 287.014,-111.253 287.014,-111.253 291.281,-113.858 284.669,-115.094 295.549,-116.464 295.549,-116.464"/>
</g>
<!-- User&#45;&gt;Profile -->
<g id="edge40" class="edge"><title>User&#45;&gt;Profile</title>
<path fill="none" stroke="#e63140" d="M524.692,-595.761C535.563,-581.962 546.739,-567.773 557.46,-554.163"/>
<ellipse fill="none" stroke="#e63140" cx="522.155" cy="-598.982" rx="4.00002" ry="4.00002"/>
<ellipse fill="#e63140" stroke="#e63140" cx="560.208" cy="-550.675" rx="4.00002" ry="4.00002"/>
</g>
<!-- User&#45;&gt;User -->
<g id="edge30" class="edge"><title>User&#45;&gt;User</title>
<path fill="none" stroke="#8277aa" d="M538.624,-692.514C543.489,-690.947 546.396,-688.776 546.396,-686 546.396,-683.224 543.489,-681.053 538.624,-679.486"/>
<polygon fill="#8277aa" stroke="#8277aa" points="538.543,-692.531 527.833,-690.177 533.65,-693.556 528.756,-694.581 528.756,-694.581 528.756,-694.581 533.65,-693.556 529.678,-698.986 538.543,-692.531 538.543,-692.531"/>
<polygon fill="#8277aa" stroke="#8277aa" points="538.543,-679.469 529.678,-673.014 533.65,-678.444 528.756,-677.419 528.756,-677.419 528.756,-677.419 533.65,-678.444 527.833,-681.823 538.543,-679.469 538.543,-679.469"/>
<text text-anchor="middle" x="572.834" y="-680.4" font-family="Times,serif" font-size="14.00">followers</text>
</g>
<!-- User&#45;&gt;User -->
<g id="edge34" class="edge"><title>User&#45;&gt;User</title>
<path fill="none" stroke="#f7d16f" d="M539.063,-705.12C571.347,-705.327 599.272,-698.954 599.272,-686 599.272,-673.046 571.347,-666.673 539.063,-666.88"/>
<polygon fill="#f7d16f" stroke="#f7d16f" points="538.926,-705.116 529.052,-700.346 533.927,-704.981 528.929,-704.845 528.929,-704.845 528.929,-704.845 533.927,-704.981 528.807,-709.343 538.926,-705.116 538.926,-705.116"/>
<polygon fill="#f7d16f" stroke="#f7d16f" points="538.926,-666.884 528.807,-662.657 533.927,-667.019 528.929,-667.155 528.929,-667.155 528.929,-667.155 533.927,-667.019 529.052,-671.654 538.926,-666.884 538.926,-666.884"/>
<text text-anchor="middle" x="617.541" y="-680.4" font-family="Times,serif" font-size="14.00">heroes</text>
</g>
<!-- Message -->
<g id="node34" class="node"><title>Message</title>
<ellipse fill="none" stroke="black" cx="750.396" cy="-472" rx="44.2418" ry="18"/>
<text text-anchor="middle" x="750.396" y="-466.4" font-family="Times,serif" font-size="14.00">Message</text>
</g>
<!-- User&#45;&gt;Message -->
<g id="edge42" class="edge"><title>User&#45;&gt;Message</title>
<path fill="none" stroke="#50ccf8" d="M536.051,-649.789C585.855,-625.769 648.859,-590.623 696.396,-548 712.273,-533.763 726.22,-514.093 735.961,-498.468"/>
<ellipse fill="none" stroke="#50ccf8" cx="532.411" cy="-651.527" rx="4.00002" ry="4.00002"/>
<polygon fill="#50ccf8" stroke="#50ccf8" points="736.022,-498.367 745.045,-492.135 738.608,-494.088 741.193,-489.808 741.193,-489.808 741.193,-489.808 738.608,-494.088 737.342,-487.481 736.022,-498.367 736.022,-498.367"/>
</g>
<!-- Incoming -->
<g id="node36" class="node"><title>Incoming</title>
<ellipse fill="none" stroke="black" cx="861.396" cy="-472" rx="48.0704" ry="18"/>
<text text-anchor="middle" x="861.396" y="-466.4" font-family="Times,serif" font-size="14.00">Incoming</text>
</g>
<!-- User&#45;&gt;Incoming -->
<g id="edge44" class="edge"><title>User&#45;&gt;Incoming</title>
<path fill="none" stroke="#e91b6c" d="M537.013,-666.057C611.961,-645.907 722.744,-608.463 803.396,-548 821.121,-534.712 836.239,-514.666 846.593,-498.641"/>
<ellipse fill="none" stroke="#e91b6c" cx="532.832" cy="-667.165" rx="4.00001" ry="4.00001"/>
<polygon fill="#e91b6c" stroke="#e91b6c" points="846.84,-498.244 855.943,-492.129 849.481,-493.998 852.122,-489.752 852.122,-489.752 852.122,-489.752 849.481,-493.998 848.301,-487.375 846.84,-498.244 846.84,-498.244"/>
</g>
<!-- Response -->
<g id="node38" class="node"><title>Response</title>
<ellipse fill="none" stroke="black" cx="975.396" cy="-472" rx="48.0775" ry="18"/>
<text text-anchor="middle" x="975.396" y="-466.4" font-family="Times,serif" font-size="14.00">Response</text>
</g>
<!-- User&#45;&gt;Response -->
<g id="edge46" class="edge"><title>User&#45;&gt;Response</title>
<path fill="none" stroke="#da0e99" d="M536.988,-676.396C635.35,-662.793 801.059,-628.968 918.396,-548 936.624,-535.421 951.518,-515.163 961.504,-498.87"/>
<ellipse fill="none" stroke="#da0e99" cx="532.819" cy="-676.96" rx="4.00001" ry="4.00001"/>
<polygon fill="#da0e99" stroke="#da0e99" points="961.749,-498.452 970.687,-492.098 964.277,-494.138 966.804,-489.824 966.804,-489.824 966.804,-489.824 964.277,-494.138 962.922,-487.549 961.749,-498.452 961.749,-498.452"/>
</g>
</g>
</svg>
