<?xml version="1.0" encoding="UTF-8" standalone="no"?>
<!DOCTYPE svg PUBLIC "-//W3C//DTD SVG 1.1//EN"
 "http://www.w3.org/Graphics/SVG/1.1/DTD/svg11.dtd">
<!-- Generated by graphviz version 2.28.0 (20111028.1807)
 -->
<!-- Title: models_diagram Pages: 1 -->
<svg width="972pt" height="406pt"
 viewBox="0.00 0.00 972.00 406.00" xmlns="http://www.w3.org/2000/svg" xmlns:xlink="http://www.w3.org/1999/xlink">
<g id="graph1" class="graph" transform="scale(1 1) rotate(0) translate(4 402)">
<title>models_diagram</title>
<polygon fill="white" stroke="white" points="-4,5 -4,-402 969,-402 969,5 -4,5"/>
<!-- _diagram_info -->
<g id="node1" class="node"><title>_diagram_info</title>
<text text-anchor="start" x="434.312" y="-381" font-family="Times,serif" font-size="13.00">Models diagram</text>
<text text-anchor="start" x="434.312" y="-365.4" font-family="Times,serif" font-size="13.00">Date: Jun 04 2013 &#45; 23:47</text>
<text text-anchor="start" x="434.312" y="-349.8" font-family="Times,serif" font-size="13.00">Migration version: 20130526073457</text>
<text text-anchor="start" x="434.312" y="-334.2" font-family="Times,serif" font-size="13.00">Generated by RailRoady 1.1.0</text>
<text text-anchor="start" x="434.312" y="-318.6" font-family="Times,serif" font-size="13.00">http://railroady.prestonlee.com</text>
</g>
<!-- Ability -->
<g id="node2" class="node"><title>Ability</title>
<polygon fill="none" stroke="black" points="707.255,-373 652.745,-373 652.745,-337 707.255,-337 707.255,-373"/>
<text text-anchor="middle" x="680" y="-349.4" font-family="Times,serif" font-size="14.00">Ability</text>
</g>
<!-- AuthProvider -->
<g id="node3" class="node"><title>AuthProvider</title>
<ellipse fill="none" stroke="black" cx="789" cy="-355" rx="63.4108" ry="18"/>
<text text-anchor="middle" x="789" y="-349.4" font-family="Times,serif" font-size="14.00">AuthProvider</text>
</g>
<!-- Authorization -->
<g id="node4" class="node"><title>Authorization</title>
<ellipse fill="none" stroke="black" cx="900" cy="-166" rx="64.5092" ry="18"/>
<text text-anchor="middle" x="900" y="-160.4" font-family="Times,serif" font-size="14.00">Authorization</text>
</g>
<!-- AuthProvider&#45;&gt;Authorization -->
<g id="edge2" class="edge"><title>AuthProvider&#45;&gt;Authorization</title>
<path fill="none" stroke="#ec263d" d="M803.308,-329.895C824.229,-294.65 863.013,-229.311 884.558,-193.014"/>
<ellipse fill="none" stroke="#ec263d" cx="801.088" cy="-333.636" rx="4.00002" ry="4.00002"/>
<polygon fill="#ec263d" stroke="#ec263d" points="884.792,-192.62 893.766,-186.318 887.344,-188.321 889.896,-184.021 889.896,-184.021 889.896,-184.021 887.344,-188.321 886.027,-181.724 884.792,-192.62 884.792,-192.62"/>
</g>
<!-- User -->
<g id="node15" class="node"><title>User</title>
<ellipse fill="none" stroke="black" cx="459" cy="-256" rx="28.9087" ry="18"/>
<text text-anchor="middle" x="459" y="-250.4" font-family="Times,serif" font-size="14.00">User</text>
</g>
<!-- AuthProvider&#45;&gt;User -->
<g id="edge4" class="edge"><title>AuthProvider&#45;&gt;User</title>
<path fill="none" stroke="#7ce7f9" d="M757.299,-332.883C744.851,-325.372 730.17,-317.438 716,-312 641.475,-283.398 548.785,-268.202 497.562,-261.447"/>
<polygon fill="#7ce7f9" stroke="#7ce7f9" points="757.431,-332.965 763.557,-342.06 761.68,-335.6 765.929,-338.236 765.929,-338.236 765.929,-338.236 761.68,-335.6 768.301,-334.412 757.431,-332.965 757.431,-332.965"/>
<polygon fill="#7ce7f9" stroke="#7ce7f9" points="497.504,-261.44 488.157,-255.706 492.545,-260.805 487.585,-260.17 487.585,-260.17 487.585,-260.17 492.545,-260.805 487.014,-264.633 497.504,-261.44 497.504,-261.44"/>
</g>
<!-- Blog -->
<g id="node5" class="node"><title>Blog</title>
<ellipse fill="none" stroke="black" cx="137" cy="-92" rx="29.2299" ry="18"/>
<text text-anchor="middle" x="137" y="-86.4" font-family="Times,serif" font-size="14.00">Blog</text>
</g>
<!-- Post -->
<g id="node12" class="node"><title>Post</title>
<ellipse fill="none" stroke="black" cx="208" cy="-18" rx="27.5142" ry="18"/>
<text text-anchor="middle" x="208" y="-12.4" font-family="Times,serif" font-size="14.00">Post</text>
</g>
<!-- Blog&#45;&gt;Post -->
<g id="edge6" class="edge"><title>Blog&#45;&gt;Post</title>
<path fill="none" stroke="#f011f3" d="M157.518,-70.193C166.693,-60.8889 177.503,-49.9266 186.761,-40.5382"/>
<ellipse fill="none" stroke="#f011f3" cx="154.52" cy="-73.2334" rx="4.00002" ry="4.00002"/>
<polygon fill="#f011f3" stroke="#f011f3" points="186.771,-40.5284 196.996,-36.5677 190.281,-36.9682 193.792,-33.408 193.792,-33.408 193.792,-33.408 190.281,-36.9682 190.588,-30.2484 186.771,-40.5284 186.771,-40.5284"/>
</g>
<!-- BlogHost -->
<g id="node6" class="node"><title>BlogHost</title>
<ellipse fill="none" stroke="black" cx="48" cy="-166" rx="48.0917" ry="18"/>
<text text-anchor="middle" x="48" y="-160.4" font-family="Times,serif" font-size="14.00">BlogHost</text>
</g>
<!-- BlogHost&#45;&gt;Blog -->
<g id="edge8" class="edge"><title>BlogHost&#45;&gt;Blog</title>
<path fill="none" stroke="#c0bb87" d="M73.8421,-144.094C85.8623,-134.37 100.1,-122.851 112.012,-113.215"/>
<ellipse fill="none" stroke="#c0bb87" cx="70.4215" cy="-146.861" rx="4.00002" ry="4.00002"/>
<polygon fill="#c0bb87" stroke="#c0bb87" points="112.057,-113.178 122.662,-110.388 115.944,-110.034 119.832,-106.889 119.832,-106.889 119.832,-106.889 115.944,-110.034 117.001,-103.39 112.057,-113.178 112.057,-113.178"/>
</g>
<!-- Country -->
<g id="node7" class="node"><title>Country</title>
<ellipse fill="none" stroke="black" cx="208" cy="-166" rx="42.5348" ry="18"/>
<text text-anchor="middle" x="208" y="-160.4" font-family="Times,serif" font-size="14.00">Country</text>
</g>
<!-- Country&#45;&gt;Blog -->
<g id="edge14" class="edge"><title>Country&#45;&gt;Blog</title>
<path fill="none" stroke="#243c4b" d="M185.029,-141.705C176.663,-133.221 167.231,-123.657 158.955,-115.265"/>
<polygon fill="#243c4b" stroke="#243c4b" points="185.221,-141.9 189.039,-152.181 188.732,-145.461 192.243,-149.021 192.243,-149.021 192.243,-149.021 188.732,-145.461 195.447,-145.861 185.221,-141.9 185.221,-141.9"/>
<polygon fill="#243c4b" stroke="#243c4b" points="158.765,-115.072 154.948,-104.792 155.254,-111.511 151.744,-107.951 151.744,-107.951 151.744,-107.951 155.254,-111.511 148.539,-111.111 158.765,-115.072 158.765,-115.072"/>
</g>
<!-- Follow -->
<g id="node8" class="node"><title>Follow</title>
<ellipse fill="none" stroke="black" cx="464" cy="-92" rx="38.1069" ry="18"/>
<text text-anchor="middle" x="464" y="-86.4" font-family="Times,serif" font-size="14.00">Follow</text>
</g>
<!-- Country&#45;&gt;Follow -->
<g id="edge18" class="edge"><title>Country&#45;&gt;Follow</title>
<path fill="none" stroke="#4941b8" d="M250.148,-153.146C297.785,-139.748 374.854,-118.072 422.304,-104.727"/>
<ellipse fill="none" stroke="#4941b8" cx="246.11" cy="-154.281" rx="4.00001" ry="4.00001"/>
<polygon fill="#4941b8" stroke="#4941b8" points="422.332,-104.719 433.177,-106.344 427.145,-103.365 431.958,-102.012 431.958,-102.012 431.958,-102.012 427.145,-103.365 430.74,-97.6798 422.332,-104.719 422.332,-104.719"/>
</g>
<!-- Involvement -->
<g id="node10" class="node"><title>Involvement</title>
<ellipse fill="none" stroke="black" cx="303" cy="-92" rx="59.2684" ry="18"/>
<text text-anchor="middle" x="303" y="-86.4" font-family="Times,serif" font-size="14.00">Involvement</text>
</g>
<!-- Country&#45;&gt;Involvement -->
<g id="edge10" class="edge"><title>Country&#45;&gt;Involvement</title>
<path fill="none" stroke="#69d32a" d="M234.736,-144.737C246.862,-135.547 261.235,-124.654 273.657,-115.239"/>
<ellipse fill="none" stroke="#69d32a" cx="231.335" cy="-147.315" rx="4.00002" ry="4.00002"/>
<polygon fill="#69d32a" stroke="#69d32a" points="273.925,-115.036 284.612,-112.582 277.909,-112.016 281.894,-108.996 281.894,-108.996 281.894,-108.996 277.909,-112.016 279.176,-105.41 273.925,-115.036 273.925,-115.036"/>
</g>
<!-- Country&#45;&gt;Post -->
<g id="edge16" class="edge"><title>Country&#45;&gt;Post</title>
<path fill="none" stroke="#04dd5f" d="M208,-137.872C208,-111.785 208,-72.5569 208,-46.384"/>
<polygon fill="#04dd5f" stroke="#04dd5f" points="208,-137.966 203.5,-147.966 208,-142.966 208,-147.966 208,-147.966 208,-147.966 208,-142.966 212.5,-147.966 208,-137.966 208,-137.966"/>
<polygon fill="#04dd5f" stroke="#04dd5f" points="208,-46.3779 212.5,-36.3778 208,-41.3779 208,-36.3779 208,-36.3779 208,-36.3779 208,-41.3779 203.5,-36.3779 208,-46.3779 208,-46.3779"/>
</g>
<!-- Country&#45;&gt;User -->
<g id="edge12" class="edge"><title>Country&#45;&gt;User</title>
<path fill="none" stroke="#1acbdb" d="M175.271,-186.795C162.676,-196.835 153.372,-209.166 163,-220 179.785,-238.886 343.254,-249.327 419.814,-253.216"/>
<polygon fill="#1acbdb" stroke="#1acbdb" points="175.316,-186.762 186.048,-184.51 179.357,-183.817 183.398,-180.873 183.398,-180.873 183.398,-180.873 179.357,-183.817 180.749,-177.236 175.316,-186.762 175.316,-186.762"/>
<polygon fill="#1acbdb" stroke="#1acbdb" points="420.028,-253.226 429.793,-258.216 425.022,-253.474 430.016,-253.721 430.016,-253.721 430.016,-253.721 425.022,-253.474 430.239,-249.227 420.028,-253.226 420.028,-253.226"/>
</g>
<!-- Country&#45;&gt;User -->
<g id="edge20" class="edge"><title>Country&#45;&gt;User</title>
<path fill="none" stroke="#87be80" d="M185.713,-190.913C179.274,-200.68 175.744,-211.624 183.124,-220 198.525,-237.478 347.517,-248.496 419.907,-252.86"/>
<polygon fill="#87be80" stroke="#87be80" points="185.877,-190.696 195.504,-185.446 188.897,-186.712 191.918,-182.727 191.918,-182.727 191.918,-182.727 188.897,-186.712 188.332,-180.009 185.877,-190.696 185.877,-190.696"/>
<polygon fill="#87be80" stroke="#87be80" points="420.024,-252.867 429.742,-257.948 425.016,-253.161 430.007,-253.456 430.007,-253.456 430.007,-253.456 425.016,-253.161 430.272,-248.964 420.024,-252.867 420.024,-252.867"/>
<text text-anchor="middle" x="210.438" y="-205.4" font-family="Times,serif" font-size="14.00">followers</text>
</g>
<!-- Incoming -->
<g id="node9" class="node"><title>Incoming</title>
<ellipse fill="none" stroke="black" cx="640" cy="-92" rx="48.0704" ry="18"/>
<text text-anchor="middle" x="640" y="-86.4" font-family="Times,serif" font-size="14.00">Incoming</text>
</g>
<!-- Response -->
<g id="node14" class="node"><title>Response</title>
<ellipse fill="none" stroke="black" cx="640" cy="-18" rx="48.0775" ry="18"/>
<text text-anchor="middle" x="640" y="-12.4" font-family="Times,serif" font-size="14.00">Response</text>
</g>
<!-- Incoming&#45;&gt;Response -->
<g id="edge22" class="edge"><title>Incoming&#45;&gt;Response</title>
<path fill="none" stroke="#8f04c6" d="M640,-65.7923C640,-59.5805 640,-52.8963 640,-46.5786"/>
<ellipse fill="none" stroke="#8f04c6" cx="640" cy="-69.937" rx="4" ry="4"/>
<polygon fill="#8f04c6" stroke="#8f04c6" points="640,-46.4407 644.5,-36.4406 640,-41.4407 640,-36.4407 640,-36.4407 640,-36.4407 640,-41.4407 635.5,-36.4407 640,-46.4407 640,-46.4407"/>
</g>
<!-- Message -->
<g id="node11" class="node"><title>Message</title>
<ellipse fill="none" stroke="black" cx="605" cy="-166" rx="44.2418" ry="18"/>
<text text-anchor="middle" x="605" y="-160.4" font-family="Times,serif" font-size="14.00">Message</text>
</g>
<!-- Message&#45;&gt;Incoming -->
<g id="edge24" class="edge"><title>Message&#45;&gt;Incoming</title>
<path fill="none" stroke="black" d="M613.118,-148.301C618.691,-136.835 626.067,-121.661 631.683,-110.109"/>
</g>
<!-- Message&#45;&gt;Response -->
<g id="edge26" class="edge"><title>Message&#45;&gt;Response</title>
<path fill="none" stroke="black" d="M594.844,-148.375C584.834,-129.724 572.453,-98.8342 583,-74 589.988,-57.5456 604.578,-43.6197 617.247,-33.8974"/>
</g>
<!-- Profile -->
<g id="node13" class="node"><title>Profile</title>
<ellipse fill="none" stroke="black" cx="781" cy="-166" rx="36.1907" ry="18"/>
<text text-anchor="middle" x="781" y="-160.4" font-family="Times,serif" font-size="14.00">Profile</text>
</g>
<!-- User&#45;&gt;Authorization -->
<g id="edge44" class="edge"><title>User&#45;&gt;Authorization</title>
<path fill="none" stroke="#17767d" d="M496.24,-253.376C552.827,-250.288 663.553,-241.804 755,-220 790.487,-211.539 829.229,-197.092 857.732,-185.417"/>
<ellipse fill="none" stroke="#17767d" cx="491.958" cy="-253.601" rx="4" ry="4"/>
<polygon fill="#17767d" stroke="#17767d" points="857.75,-185.409 868.711,-185.733 862.368,-183.493 866.986,-181.576 866.986,-181.576 866.986,-181.576 862.368,-183.493 865.262,-177.42 857.75,-185.409 857.75,-185.409"/>
</g>
<!-- User&#45;&gt;Blog -->
<g id="edge30" class="edge"><title>User&#45;&gt;Blog</title>
<path fill="none" stroke="#be2779" d="M421.583,-253.193C344.747,-249.127 174.785,-238.166 156,-220 129.71,-194.577 129.311,-149.587 132.417,-120.547"/>
<ellipse fill="none" stroke="#be2779" cx="426.043" cy="-253.425" rx="4" ry="4"/>
<polygon fill="#be2779" stroke="#be2779" points="132.463,-120.191 138.196,-110.843 133.097,-115.231 133.732,-110.272 133.732,-110.272 133.732,-110.272 133.097,-115.231 129.269,-109.7 132.463,-120.191 132.463,-120.191"/>
</g>
<!-- User&#45;&gt;Country -->
<g id="edge42" class="edge"><title>User&#45;&gt;Country</title>
<path fill="none" stroke="#f2bbee" d="M419.626,-255.166C377.58,-253.787 310.133,-247.005 259.241,-220 252.054,-216.186 239.366,-203.086 228.414,-190.866"/>
<polygon fill="#f2bbee" stroke="#f2bbee" points="419.746,-255.168 429.635,-259.907 424.744,-255.289 429.743,-255.409 429.743,-255.409 429.743,-255.409 424.744,-255.289 429.851,-250.91 419.746,-255.168 419.746,-255.168"/>
<polygon fill="#f2bbee" stroke="#f2bbee" points="228.154,-190.571 224.919,-180.093 224.849,-186.82 221.543,-183.069 221.543,-183.069 221.543,-183.069 224.849,-186.82 218.167,-186.044 228.154,-190.571 228.154,-190.571"/>
<text text-anchor="middle" x="315.379" y="-205.4" font-family="Times,serif" font-size="14.00">following_countries</text>
</g>
<!-- User&#45;&gt;Follow -->
<g id="edge34" class="edge"><title>User&#45;&gt;Follow</title>
<path fill="none" stroke="#8cd3d7" d="M458.787,-229.893C458.71,-208.202 458.851,-176.021 460,-148 460.368,-139.023 461.004,-129.237 461.661,-120.441"/>
<ellipse fill="none" stroke="#8cd3d7" cx="458.807" cy="-233.943" rx="4" ry="4"/>
<polygon fill="#8cd3d7" stroke="#8cd3d7" points="461.673,-120.293 466.944,-110.677 462.066,-115.308 462.458,-110.324 462.458,-110.324 462.458,-110.324 462.066,-115.308 457.972,-109.971 461.673,-120.293 461.673,-120.293"/>
</g>
<!-- User&#45;&gt;Follow -->
<g id="edge38" class="edge"><title>User&#45;&gt;Follow</title>
<path fill="none" stroke="#7ea89e" d="M466.173,-230.293C466.928,-226.862 467.575,-223.361 468,-220 472.312,-185.914 469.897,-146.295 467.344,-120.492"/>
<ellipse fill="none" stroke="#7ea89e" cx="465.218" cy="-234.192" rx="4.00001" ry="4.00001"/>
<polygon fill="#7ea89e" stroke="#7ea89e" points="467.321,-120.28 470.735,-109.859 466.791,-115.308 466.26,-110.336 466.26,-110.336 466.26,-110.336 466.791,-115.308 461.786,-110.814 467.321,-120.28 467.321,-120.28"/>
<text text-anchor="middle" x="499.945" y="-160.4" font-family="Times,serif" font-size="14.00">followings</text>
</g>
<!-- User&#45;&gt;Incoming -->
<g id="edge50" class="edge"><title>User&#45;&gt;Incoming</title>
<path fill="none" stroke="#f684a1" d="M496.193,-253.843C542.889,-250.151 621.314,-236.04 658,-184 671.477,-164.883 663.869,-138.168 654.762,-118.629"/>
<ellipse fill="none" stroke="#f684a1" cx="492.131" cy="-254.125" rx="4" ry="4"/>
<polygon fill="#f684a1" stroke="#f684a1" points="654.753,-118.611 654.277,-107.656 652.505,-114.145 650.257,-109.679 650.257,-109.679 650.257,-109.679 652.505,-114.145 646.238,-111.702 654.753,-118.611 654.753,-118.611"/>
</g>
<!-- User&#45;&gt;Involvement -->
<g id="edge28" class="edge"><title>User&#45;&gt;Involvement</title>
<path fill="none" stroke="#bb18dd" d="M429.58,-240.492C419.624,-234.843 408.808,-227.834 400,-220 365.917,-189.683 335.603,-145.924 318.275,-118.493"/>
<ellipse fill="none" stroke="#bb18dd" cx="433.128" cy="-242.437" rx="4.00002" ry="4.00002"/>
<polygon fill="#bb18dd" stroke="#bb18dd" points="318.188,-118.353 316.732,-107.484 315.549,-114.106 312.91,-109.86 312.91,-109.86 312.91,-109.86 315.549,-114.106 309.088,-112.235 318.188,-118.353 318.188,-118.353"/>
</g>
<!-- User&#45;&gt;Message -->
<g id="edge48" class="edge"><title>User&#45;&gt;Message</title>
<path fill="none" stroke="#212ffe" d="M486.24,-238.581C510.605,-223.896 546.366,-202.341 572.275,-186.725"/>
<ellipse fill="none" stroke="#212ffe" cx="482.727" cy="-240.699" rx="4.00002" ry="4.00002"/>
<polygon fill="#212ffe" stroke="#212ffe" points="572.429,-186.632 583.316,-185.324 576.711,-184.051 580.993,-181.47 580.993,-181.47 580.993,-181.47 576.711,-184.051 578.67,-177.616 572.429,-186.632 572.429,-186.632"/>
</g>
<!-- User&#45;&gt;Post -->
<g id="edge32" class="edge"><title>User&#45;&gt;Post</title>
<path fill="none" stroke="#fc060e" d="M452.975,-228.2C442.781,-188.896 418.446,-115.769 371,-74 335.294,-42.5672 280.921,-28.9572 244.931,-23.1599"/>
<polygon fill="#fc060e" stroke="#fc060e" points="453.024,-228.401 451.061,-239.19 454.226,-233.255 455.429,-238.108 455.429,-238.108 455.429,-238.108 454.226,-233.255 459.797,-237.026 453.024,-228.401 453.024,-228.401"/>
<polygon fill="#fc060e" stroke="#fc060e" points="244.738,-23.1312 235.508,-17.2107 239.792,-22.3965 234.846,-21.6618 234.846,-21.6618 234.846,-21.6618 239.792,-22.3965 234.185,-26.113 244.738,-23.1312 244.738,-23.1312"/>
</g>
<!-- User&#45;&gt;Profile -->
<g id="edge46" class="edge"><title>User&#45;&gt;Profile</title>
<path fill="none" stroke="#55a90a" d="M496.24,-253.234C560.66,-249.681 689.856,-240.217 730,-220 743.789,-213.056 755.929,-200.849 764.902,-189.899"/>
<ellipse fill="none" stroke="#55a90a" cx="491.963" cy="-253.463" rx="4" ry="4"/>
<ellipse fill="#55a90a" stroke="#55a90a" cx="767.601" cy="-186.452" rx="4.00002" ry="4.00002"/>
</g>
<!-- User&#45;&gt;Response -->
<g id="edge52" class="edge"><title>User&#45;&gt;Response</title>
<path fill="none" stroke="#b3395b" d="M496.299,-255.041C535.537,-253.532 597.878,-246.619 644,-220 662.288,-209.446 664.878,-202.53 675,-184 698.9,-140.245 716.49,-119.89 697,-74 691.431,-60.8879 681.035,-49.3814 670.631,-40.3282"/>
<ellipse fill="none" stroke="#b3395b" cx="492.289" cy="-255.164" rx="4" ry="4"/>
<polygon fill="#b3395b" stroke="#b3395b" points="670.5,-40.2211 665.599,-30.4113 666.627,-37.0592 662.753,-33.8974 662.753,-33.8974 662.753,-33.8974 666.627,-37.0592 659.908,-37.3834 670.5,-40.2211 670.5,-40.2211"/>
</g>
<!-- User&#45;&gt;User -->
<g id="edge36" class="edge"><title>User&#45;&gt;User</title>
<path fill="none" stroke="#abac0d" d="M498.034,-258.925C502.844,-258.403 506,-257.428 506,-256 506,-254.572 502.844,-253.597 498.034,-253.075"/>
<polygon fill="#abac0d" stroke="#abac0d" points="497.905,-258.93 487.715,-254.879 492.91,-259.152 487.915,-259.374 487.915,-259.374 487.915,-259.374 492.91,-259.152 488.114,-263.87 497.905,-258.93 497.905,-258.93"/>
<polygon fill="#abac0d" stroke="#abac0d" points="497.905,-253.07 488.114,-248.13 492.91,-252.848 487.915,-252.626 487.915,-252.626 487.915,-252.626 492.91,-252.848 487.715,-257.121 497.905,-253.07 497.905,-253.07"/>
<text text-anchor="middle" x="532.438" y="-250.4" font-family="Times,serif" font-size="14.00">followers</text>
</g>
<!-- User&#45;&gt;User -->
<g id="edge40" class="edge"><title>User&#45;&gt;User</title>
<path fill="none" stroke="#91b56f" d="M491.717,-269.72C521.87,-275.225 558.876,-270.652 558.876,-256 558.876,-241.348 521.87,-236.775 491.717,-242.28"/>
<polygon fill="#91b56f" stroke="#91b56f" points="491.568,-269.686 482.816,-263.079 486.693,-268.576 481.817,-267.466 481.817,-267.466 481.817,-267.466 486.693,-268.576 480.819,-271.854 491.568,-269.686 491.568,-269.686"/>
<polygon fill="#91b56f" stroke="#91b56f" points="491.568,-242.314 480.819,-240.146 486.693,-243.424 481.817,-244.534 481.817,-244.534 481.817,-244.534 486.693,-243.424 482.816,-248.921 491.568,-242.314 491.568,-242.314"/>
<text text-anchor="middle" x="577.145" y="-250.4" font-family="Times,serif" font-size="14.00">heroes</text>
</g>
</g>
</svg>
