<?xml version="1.0" encoding="utf-8"?>
<!-- Generator: Adobe Illustrator 16.0.0, SVG Export Plug-In . SVG Version: 6.00 Build 0)  -->
<!DOCTYPE svg PUBLIC "-//W3C//DTD SVG 1.0//EN" "http://www.w3.org/TR/2001/REC-SVG-20010904/DTD/svg10.dtd">
<svg version="1.0" id="Layer_1" xmlns="http://www.w3.org/2000/svg" xmlns:xlink="http://www.w3.org/1999/xlink" x="0px" y="0px"
	 width="11.981px" height="9px" viewBox="0 0 11.981 9" enable-background="new 0 0 11.981 9" xml:space="preserve">
<path d="M10.829,0.11c-0.146-0.147-0.384-0.147-0.53,0L4.706,5.678c-0.146,0.147-0.385,0.147-0.531,0l-2.45-2.497
	C1.652,3.107,1.557,3.071,1.462,3.07c-0.097,0-0.195,0.036-0.268,0.11L0.111,4.155C0.039,4.229,0,4.322,0,4.419
	S0.039,4.618,0.111,4.69L4.175,8.89c0.146,0.146,0.385,0.146,0.531,0l7.185-7.174c0.146-0.146,0.146-0.388,0-0.535L10.829,0.11z"/>
</svg>
