<?xml version="1.0" encoding="utf-8"?>
<!-- Generator: Adobe Illustrator 16.0.0, SVG Export Plug-In . SVG Version: 6.00 Build 0)  -->
<!DOCTYPE svg PUBLIC "-//W3C//DTD SVG 1.1//EN" "http://www.w3.org/Graphics/SVG/1.1/DTD/svg11.dtd">
<svg version="1.1" id="Layer_1" xmlns="http://www.w3.org/2000/svg" xmlns:xlink="http://www.w3.org/1999/xlink" x="0px" y="0px"
	 width="24px" height="24px" viewBox="0 0 24 24" enable-background="new 0 0 24 24" xml:space="preserve">
<g>
	<g>
		<path d="M15,0H5C2.239,0,0,2.239,0,5v10.001c0,2.762,2.239,5,5,5h10c2.762,0,5-2.238,5-5V5C20,2.239,17.762,0,15,0z M16.462,7.967
			l-7.174,7.174c-0.146,0.146-0.385,0.146-0.53,0l-1.061-1.069c-0.146-0.148-0.385-0.389-0.53-0.536l-2.467-2.593
			c-0.072-0.074-0.111-0.175-0.111-0.271c0-0.098,0.039-0.19,0.111-0.264l1.081-0.975c0.073-0.075,0.171-0.11,0.268-0.11
			c0.095,0,0.19,0.037,0.263,0.11l2.446,2.496c0.145,0.149,0.384,0.149,0.53,0l5.584-5.567c0.146-0.146,0.384-0.146,0.529,0
			l1.061,1.07C16.607,7.578,16.607,7.821,16.462,7.967z"/>
	</g>
</g>
</svg>
