<?xml version="1.0" encoding="utf-8"?>
<!-- Generator: Adobe Illustrator 16.0.0, SVG Export Plug-In . SVG Version: 6.00 Build 0)  -->
<!DOCTYPE svg PUBLIC "-//W3C//DTD SVG 1.1//EN" "http://www.w3.org/Graphics/SVG/1.1/DTD/svg11.dtd">
<svg version="1.1" id="Layer_1" xmlns="http://www.w3.org/2000/svg" xmlns:xlink="http://www.w3.org/1999/xlink" x="0px" y="0px"
	 width="16px" height="16px" viewBox="0 0 16 16" enable-background="new 0 0 16 16" xml:space="preserve">
<path fill="#010101" d="M15.5,1h-10C5.224,1,5,1.224,5,1.5v1C5,2.776,5.224,3,5.5,3h10C15.776,3,16,2.776,16,2.5v-1
	C16,1.224,15.776,1,15.5,1z"/>
<path fill="#010101" d="M15.5,6h-10C5.224,6,5,6.224,5,6.5v1C5,7.776,5.224,8,5.5,8h10C15.776,8,16,7.776,16,7.5v-1
	C16,6.224,15.776,6,15.5,6z"/>
<path fill="#010101" d="M15.5,11h-10C5.224,11,5,11.224,5,11.5v1C5,12.776,5.224,13,5.5,13h10c0.276,0,0.5-0.224,0.5-0.5v-1
	C16,11.224,15.776,11,15.5,11z"/>
<circle fill="#010101" cx="2" cy="2" r="2"/>
<circle fill="#010101" cx="2" cy="7" r="2"/>
<circle fill="#010101" cx="2" cy="12" r="2"/>
</svg>
