<?xml version="1.0" encoding="utf-8"?>
<!-- Generator: Adobe Illustrator 16.0.0, SVG Export Plug-In . SVG Version: 6.00 Build 0)  -->
<!DOCTYPE svg PUBLIC "-//W3C//DTD SVG 1.1//EN" "http://www.w3.org/Graphics/SVG/1.1/DTD/svg11.dtd">
<svg version="1.1" id="Layer_1" xmlns="http://www.w3.org/2000/svg" xmlns:xlink="http://www.w3.org/1999/xlink" x="0px" y="0px"
	 width="16px" height="16px" viewBox="0 0 16 16" enable-background="new 0 0 16 16" xml:space="preserve">
<g>
	<g>
		<path d="M6.5,0h-6C0.224,0,0,0.224,0,0.5v6C0,6.776,0.224,7,0.5,7h6C6.776,7,7,6.776,7,6.5v-6C7,0.224,6.776,0,6.5,0z M15.5,0h-6
			C9.224,0,9,0.224,9,0.5v6C9,6.776,9.224,7,9.5,7h6C15.776,7,16,6.776,16,6.5v-6C16,0.224,15.776,0,15.5,0z M6.5,9h-6
			C0.224,9,0,9.224,0,9.5v6C0,15.776,0.224,16,0.5,16h6C6.776,16,7,15.776,7,15.5v-6C7,9.224,6.776,9,6.5,9z M15.5,9h-6
			C9.224,9,9,9.224,9,9.5v6C9,15.776,9.224,16,9.5,16h6c0.276,0,0.5-0.224,0.5-0.5v-6C16,9.224,15.776,9,15.5,9z"/>
	</g>
</g>
</svg>
