<?xml version="1.0" encoding="utf-8"?>
<!-- Generator: Adobe Illustrator 16.0.0, SVG Export Plug-In . SVG Version: 6.00 Build 0)  -->
<!DOCTYPE svg PUBLIC "-//W3C//DTD SVG 1.1//EN" "http://www.w3.org/Graphics/SVG/1.1/DTD/svg11.dtd">
<svg version="1.1" id="Layer_1" xmlns="http://www.w3.org/2000/svg" xmlns:xlink="http://www.w3.org/1999/xlink" x="0px" y="0px"
	 width="16px" height="16px" viewBox="0 0 16 16" enable-background="new 0 0 16 16" xml:space="preserve">
<g>
	<g>
		<path d="M3.5,0h-3C0.224,0,0,0.224,0,0.5v3C0,3.776,0.224,4,0.5,4h3C3.776,4,4,3.776,4,3.5v-3C4,0.224,3.776,0,3.5,0z M3.5,5h-3
			C0.224,5,0,5.224,0,5.5v3C0,8.776,0.224,9,0.5,9h3C3.776,9,4,8.776,4,8.5v-3C4,5.224,3.776,5,3.5,5z M8.5,0h-3
			C5.224,0,5,0.224,5,0.5v3C5,3.776,5.224,4,5.5,4h3C8.776,4,9,3.776,9,3.5v-3C9,0.224,8.776,0,8.5,0z M8.5,5h-3
			C5.224,5,5,5.224,5,5.5v3C5,8.776,5.224,9,5.5,9h3C8.776,9,9,8.776,9,8.5v-3C9,5.224,8.776,5,8.5,5z M13.5,0h-3
			C10.224,0,10,0.224,10,0.5v3C10,3.776,10.224,4,10.5,4h3C13.776,4,14,3.776,14,3.5v-3C14,0.224,13.776,0,13.5,0z M13.5,5h-3
			C10.224,5,10,5.224,10,5.5v3C10,8.776,10.224,9,10.5,9h3C13.776,9,14,8.776,14,8.5v-3C14,5.224,13.776,5,13.5,5z M3.5,10h-3
			C0.224,10,0,10.224,0,10.5v3C0,13.776,0.224,14,0.5,14h3C3.776,14,4,13.776,4,13.5v-3C4,10.224,3.776,10,3.5,10z M8.5,10h-3
			C5.224,10,5,10.224,5,10.5v3C5,13.776,5.224,14,5.5,14h3C8.776,14,9,13.776,9,13.5v-3C9,10.224,8.776,10,8.5,10z M13.5,10h-3
			c-0.276,0-0.5,0.224-0.5,0.5v3c0,0.276,0.224,0.5,0.5,0.5h3c0.276,0,0.5-0.224,0.5-0.5v-3C14,10.224,13.776,10,13.5,10z"/>
	</g>
</g>
</svg>
