<?xml version="1.0" encoding="utf-8"?>
<!-- Generator: Adobe Illustrator 16.0.0, SVG Export Plug-In . SVG Version: 6.00 Build 0)  -->
<!DOCTYPE svg PUBLIC "-//W3C//DTD SVG 1.1//EN" "http://www.w3.org/Graphics/SVG/1.1/DTD/svg11.dtd">
<svg version="1.1" id="Layer_1" xmlns="http://www.w3.org/2000/svg" xmlns:xlink="http://www.w3.org/1999/xlink" x="0px" y="0px"
	 width="16px" height="16px" viewBox="0 0 16 16" enable-background="new 0 0 16 16" xml:space="preserve">
<path fill="#010101" d="M5.5,0h-5C0.224,0,0,0.224,0,0.5v5C0,5.776,0.224,6,0.5,6h5C5.776,6,6,5.776,6,5.5v-5C6,0.224,5.776,0,5.5,0
	z"/>
<path fill="#010101" d="M5.5,8h-5C0.224,8,0,8.224,0,8.5v5C0,13.776,0.224,14,0.5,14h5C5.776,14,6,13.776,6,13.5v-5
	C6,8.224,5.776,8,5.5,8z"/>
<path fill="#010101" d="M15.5,0h-7C8.224,0,8,0.224,8,0.5v1C8,1.776,8.224,2,8.5,2h7C15.777,2,16,1.776,16,1.5v-1
	C16,0.224,15.777,0,15.5,0z"/>
<path fill="#010101" d="M15.5,4h-7C8.224,4,8,4.224,8,4.5v1C8,5.776,8.224,6,8.5,6h7C15.777,6,16,5.776,16,5.5v-1
	C16,4.224,15.777,4,15.5,4z"/>
<path fill="#010101" d="M15.5,8h-7C8.224,8,8,8.224,8,8.5v1C8,9.776,8.224,10,8.5,10h7c0.277,0,0.5-0.224,0.5-0.5v-1
	C16,8.224,15.777,8,15.5,8z"/>
<path fill="#010101" d="M15.5,12h-7C8.224,12,8,12.224,8,12.5v1C8,13.776,8.224,14,8.5,14h7c0.277,0,0.5-0.224,0.5-0.5v-1
	C16,12.224,15.777,12,15.5,12z"/>
</svg>
