<?xml version="1.0" encoding="utf-8"?>
<!-- Generator: Adobe Illustrator 16.0.0, SVG Export Plug-In . SVG Version: 6.00 Build 0)  -->
<!DOCTYPE svg PUBLIC "-//W3C//DTD SVG 1.1//EN" "http://www.w3.org/Graphics/SVG/1.1/DTD/svg11.dtd">
<svg version="1.1" id="Layer_1" xmlns="http://www.w3.org/2000/svg" xmlns:xlink="http://www.w3.org/1999/xlink" x="0px" y="0px"
	 width="24px" height="24px" viewBox="0 0 24 24" enable-background="new 0 0 24 24" xml:space="preserve">
<g>
	<g>
		<path d="M10,0C4.477,0,0,4.476,0,9.999c0,5.524,4.477,10.002,10,10.002c5.523,0,10-4.478,10-10.002C20,4.476,15.523,0,10,0z
			 M10,16c-3.313,0-6-2.687-6-6.001c0-3.312,2.687-5.998,6-5.998c3.314,0,6,2.686,6,5.998C16,13.313,13.314,16,10,16z M10,7
			C8.343,7,7,8.343,7,9.999C7,11.657,8.343,13,10,13c1.657,0,3-1.343,3-3.001C13,8.343,11.657,7,10,7z"/>
	</g>
</g>
</svg>
