<?xml version="1.0" encoding="utf-8"?>
<!-- Generator: Adobe Illustrator 16.0.0, SVG Export Plug-In . SVG Version: 6.00 Build 0)  -->
<!DOCTYPE svg PUBLIC "-//W3C//DTD SVG 1.1//EN" "http://www.w3.org/Graphics/SVG/1.1/DTD/svg11.dtd">
<svg version="1.1" id="Layer_1" xmlns="http://www.w3.org/2000/svg" xmlns:xlink="http://www.w3.org/1999/xlink" x="0px" y="0px"
	 width="16px" height="16px" viewBox="0 0 16 16" enable-background="new 0 0 16 16" xml:space="preserve">
<line fill="none" x1="15.061" y1="10.305" x2="15.061" y2="10.305"/>
<path id="behance_1_" d="M14.449,1.414h-4.011v-1h4.011V1.414z M7.772,5.516c0.26,0.403,0.387,0.892,0.387,1.467
	c0,0.592-0.145,1.125-0.441,1.595C7.528,8.889,7.294,9.148,7.013,9.362C6.696,9.605,6.321,9.773,5.89,9.865
	C5.458,9.955,4.989,10,4.485,10H0V0h4.81c1.211,0.02,2.069,0.372,2.578,1.064C7.69,1.49,7.842,2,7.842,2.592
	c0,0.611-0.153,1.102-0.461,1.473C7.21,4.271,6.957,4.462,6.623,4.633C7.13,4.82,7.515,5.112,7.772,5.516z M2.296,3.941h2.105
	c0.435,0,0.783-0.084,1.054-0.246c0.271-0.166,0.403-0.459,0.403-0.881c0-0.467-0.178-0.774-0.534-0.924
	C5.017,1.787,4.625,1.734,4.147,1.734H2.295L2.296,3.941L2.296,3.941z M6.062,6.838c0-0.52-0.211-0.879-0.634-1.07
	C5.192,5.657,4.86,5.602,4.435,5.596H2.296v2.666h2.104c0.433,0,0.767-0.056,1.009-0.176C5.844,7.867,6.062,7.454,6.062,6.838z
	 M15.937,5.211c0.049,0.327,0.07,0.803,0.062,1.423h-5.191c0.028,0.72,0.275,1.224,0.745,1.511c0.282,0.182,0.625,0.271,1.028,0.271
	c0.422,0,0.768-0.108,1.033-0.329c0.146-0.117,0.271-0.283,0.383-0.49h1.902c-0.049,0.424-0.278,0.855-0.689,1.293
	c-0.637,0.697-1.532,1.047-2.682,1.047c-0.949,0-1.785-0.295-2.512-0.883C9.292,8.465,8.929,7.509,8.929,6.184
	c0-1.24,0.325-2.191,0.98-2.854c0.656-0.664,1.506-0.994,2.552-0.994c0.619,0,1.179,0.111,1.677,0.336
	c0.497,0.223,0.907,0.576,1.231,1.061C15.66,4.156,15.849,4.648,15.937,5.211z M14.063,5.396c-0.035-0.498-0.201-0.875-0.5-1.131
	c-0.295-0.261-0.664-0.389-1.104-0.389c-0.48,0-0.85,0.139-1.113,0.41c-0.265,0.271-0.43,0.643-0.496,1.109H14.063L14.063,5.396z"/>
</svg>
