<?xml version="1.0" encoding="utf-8"?>
<!-- Generator: Adobe Illustrator 16.0.0, SVG Export Plug-In . SVG Version: 6.00 Build 0)  -->
<!DOCTYPE svg PUBLIC "-//W3C//DTD SVG 1.1//EN" "http://www.w3.org/Graphics/SVG/1.1/DTD/svg11.dtd">
<svg version="1.1" id="Layer_1" xmlns="http://www.w3.org/2000/svg" xmlns:xlink="http://www.w3.org/1999/xlink" x="0px" y="0px"
	 width="16px" height="16px" viewBox="0 0 16 16" enable-background="new 0 0 16 16" xml:space="preserve">
<line fill="none" x1="6.562" y1="1.804" x2="6.562" y2="1.804"/>
<g>
	<path d="M13.36,0H2.64C1.188,0,0,1.188,0,2.64V13.36c0,1.451,1.188,2.641,2.64,2.641H13.36c1.451,0,2.641-1.189,2.641-2.641V2.64
		C16,1.188,14.812,0,13.36,0z M12.849,9.772c-0.01,1.701-1.392,3.093-3.095,3.093H6.196c-1.703,0-3.096-1.392-3.096-3.093V6.161
		c0-1.703,1.393-3.1,3.096-3.1h2.166c0.799,0.096,1.961,0.779,2.391,1.69c0.117,0.255,0.18,0.295,0.277,1.052
		c0.053,0.389,0.08,0.678,0.253,0.838c0.245,0.224,1.155,0.072,1.337,0.213l0.137,0.107l0.082,0.171l0.029,0.138L12.849,9.772z"/>
	<path d="M6.235,6.776h1.717c0.328,0,0.594-0.27,0.594-0.594s-0.266-0.59-0.594-0.59H6.235c-0.326,0-0.592,0.266-0.592,0.59
		S5.909,6.776,6.235,6.776z"/>
	<path d="M9.726,9.14H6.237c-0.327,0-0.594,0.264-0.594,0.588c0,0.321,0.267,0.59,0.594,0.59h3.488c0.323,0,0.588-0.269,0.588-0.59
		C10.313,9.403,10.049,9.14,9.726,9.14z"/>
</g>
</svg>
