<?xml version="1.0" encoding="utf-8"?>
<!-- Generator: Adobe Illustrator 16.0.0, SVG Export Plug-In . SVG Version: 6.00 Build 0)  -->
<!DOCTYPE svg PUBLIC "-//W3C//DTD SVG 1.1//EN" "http://www.w3.org/Graphics/SVG/1.1/DTD/svg11.dtd">
<svg version="1.1" id="Layer_1" xmlns="http://www.w3.org/2000/svg" xmlns:xlink="http://www.w3.org/1999/xlink" x="0px" y="0px"
	 width="16px" height="16px" viewBox="0 0 16 16" enable-background="new 0 0 16 16" xml:space="preserve">
<g id="Layer_1_1_">
	<path id="dribbble_1_" d="M8,0C3.582,0,0,3.582,0,8s3.581,8,8,8c4.418,0,8-3.582,8-8S12.418,0,8,0z M12.902,4.148
		c0.781,0.99,1.27,2.218,1.33,3.559c-0.902-0.191-1.756-0.285-2.551-0.285l0,0h-0.007c-0.641,0-1.241,0.059-1.808,0.158
		C9.729,7.242,9.59,6.918,9.449,6.607C10.711,6.055,11.922,5.268,12.902,4.148z M8,1.759c1.473,0,2.822,0.515,3.893,1.372
		C11.075,4.109,9.994,4.818,8.827,5.32C8.008,3.734,7.215,2.602,6.674,1.908C7.104,1.812,7.545,1.759,8,1.759z M5.244,2.409
		C5.677,2.92,6.545,4.046,7.471,5.805C5.587,6.366,3.689,6.496,2.542,6.496c-0.032,0-0.065,0-0.097,0H2.443
		c-0.193,0-0.359-0.004-0.499-0.008C2.393,4.695,3.621,3.213,5.244,2.409z M1.759,8c0-0.029,0.001-0.059,0.003-0.09
		C1.94,7.917,2.168,7.923,2.443,7.923h0.002C3.7,7.914,5.891,7.809,8.109,7.109C8.23,7.373,8.352,7.648,8.469,7.936
		C6.986,8.43,5.82,9.221,4.956,10.008c-0.831,0.758-1.394,1.508-1.722,2.008C2.316,10.928,1.759,9.531,1.759,8z M8,14.242
		c-1.389,0-2.669-0.459-3.708-1.23c0.222-0.363,0.694-1.062,1.448-1.783c0.775-0.742,1.845-1.508,3.242-1.963
		c0.476,1.332,0.906,2.854,1.233,4.567C9.525,14.096,8.781,14.242,8,14.242z M11.533,13.134c-0.316-1.55-0.717-2.946-1.152-4.194
		c0.404-0.058,0.83-0.09,1.279-0.09h0.016h0.002h0.002c0.744,0,1.562,0.092,2.448,0.293C13.822,10.793,12.865,12.215,11.533,13.134z
		"/>
</g>
<g id="Layer_2">
</g>
</svg>
