<?xml version="1.0" encoding="utf-8"?>
<!-- Generator: Adobe Illustrator 16.0.0, SVG Export Plug-In . SVG Version: 6.00 Build 0)  -->
<!DOCTYPE svg PUBLIC "-//W3C//DTD SVG 1.1//EN" "http://www.w3.org/Graphics/SVG/1.1/DTD/svg11.dtd">
<svg version="1.1" id="Layer_1" xmlns="http://www.w3.org/2000/svg" xmlns:xlink="http://www.w3.org/1999/xlink" x="0px" y="0px"
	 width="16px" height="16px" viewBox="0 0 16 16" enable-background="new 0 0 16 16" xml:space="preserve">
<path id="facebook" fill="#231F20" d="M15.086,0H0.914C0.412,0,0,0.412,0,0.914v14.172C0,15.588,0.412,16,0.914,16h14.172
	C15.588,16,16,15.588,16,15.086V0.914C16,0.412,15.588,0,15.086,0z M13.58,8.975h-2.197v5.883h-2.24V8.975H7.587V6.857h1.555
	c0,0,0-0.868,0-1.809c0-1.422,0.92-2.728,3.037-2.728c0.855,0,1.49,0.083,1.49,0.083l-0.051,1.977c0,0-0.646-0.006-1.352-0.006
	c-0.764,0-0.885,0.352-0.885,0.936c0,0.072,0,0.098,0,0.1c0,0.164,0,0.561,0,1.447h2.297L13.58,8.975z"/>
</svg>
