<?xml version="1.0" encoding="utf-8"?>
<!-- Generator: Adobe Illustrator 16.0.0, SVG Export Plug-In . SVG Version: 6.00 Build 0)  -->
<!DOCTYPE svg PUBLIC "-//W3C//DTD SVG 1.1//EN" "http://www.w3.org/Graphics/SVG/1.1/DTD/svg11.dtd">
<svg version="1.1" id="Layer_1" xmlns="http://www.w3.org/2000/svg" xmlns:xlink="http://www.w3.org/1999/xlink" x="0px" y="0px"
	 width="16px" height="16px" viewBox="0 0 16 16" enable-background="new 0 0 16 16" xml:space="preserve">
<g>
	<path d="M0,12.839c0.589-0.273,1.2-0.465,1.832-0.575c0.851-0.127,1.558-0.197,2.12-0.213c-0.173-0.231-0.329-0.478-0.464-0.74
		c-0.159-0.255-0.238-0.562-0.238-0.92c0-0.215,0.03-0.394,0.09-0.537c0.053-0.15,0.102-0.29,0.147-0.418
		C3.213,9.469,2.955,9.484,2.712,9.484C1.563,9.47,0.66,9.142,0,8.499V12.839z"/>
	<path d="M5.859,6.359c0-0.959-0.243-1.927-0.729-2.903c-0.228-0.468-0.528-0.849-0.9-1.142c-0.38-0.278-0.816-0.425-1.31-0.44
		C2.266,1.89,1.723,2.156,1.29,2.671C0.925,3.21,0.75,3.813,0.766,4.479c0,0.88,0.255,1.797,0.765,2.749
		c0.247,0.444,0.566,0.821,0.957,1.13c0.39,0.309,0.837,0.464,1.339,0.464c0.635-0.023,1.164-0.254,1.586-0.69
		C5.617,7.822,5.748,7.505,5.807,7.18C5.841,6.854,5.859,6.581,5.859,6.359z"/>
	<path d="M4.609,12.738c-0.154-0.017-0.334-0.024-0.541-0.024c-0.123-0.016-0.438,0-0.944,0.048c-0.499,0.07-1.01,0.186-1.531,0.344
		c-0.123,0.048-0.295,0.119-0.518,0.215c-0.223,0.102-0.449,0.248-0.679,0.438C0.249,13.889,0.117,14.041,0,14.214v0.661
		C0,15.496,0.5,16,1.114,16h6.072c0-0.015,0.001-0.029,0.001-0.045c0-0.617-0.2-1.155-0.599-1.614
		C6.167,13.905,5.507,13.371,4.609,12.738z"/>
	<path d="M14.886,0h-2.878H8.001h-4.07H1.114C0.5,0,0,0.504,0,1.125v1.218v0.291c0.07-0.075,0.143-0.15,0.219-0.224
		c0.686-0.57,1.397-0.942,2.136-1.116c0.731-0.15,1.417-0.226,2.056-0.226h4.82L7.743,1.945H6.256
		C6.408,2.04,6.578,2.179,6.767,2.361c0.182,0.19,0.36,0.423,0.534,0.7c0.167,0.262,0.314,0.57,0.443,0.926
		C7.85,4.343,7.902,4.759,7.902,5.233c-0.014,0.871-0.205,1.567-0.571,2.09c-0.18,0.253-0.37,0.486-0.571,0.7
		C6.538,8.237,6.301,8.455,6.05,8.676c-0.144,0.15-0.276,0.321-0.398,0.512C5.508,9.385,5.436,9.614,5.436,9.875
		c0,0.254,0.074,0.463,0.221,0.629c0.125,0.16,0.247,0.297,0.365,0.416l0.817,0.678c0.508,0.419,0.954,0.881,1.337,1.389
		c0.361,0.514,0.549,1.188,0.563,2.018c0,0.344-0.044,0.676-0.132,0.996h6.278C15.5,16,16,15.496,16,14.875V2.343V1.125
		C16,0.504,15.5,0,14.886,0z M15.762,4.963h-2.529v2.554h-1.225V4.963H9.479V3.726h2.529V1.172h1.225v2.554h2.529V4.963z"/>
</g>
</svg>
