<?xml version="1.0" encoding="utf-8"?>
<!-- Generator: Adobe Illustrator 16.0.0, SVG Export Plug-In . SVG Version: 6.00 Build 0)  -->
<!DOCTYPE svg PUBLIC "-//W3C//DTD SVG 1.1//EN" "http://www.w3.org/Graphics/SVG/1.1/DTD/svg11.dtd">
<svg version="1.1" id="Layer_1" xmlns="http://www.w3.org/2000/svg" xmlns:xlink="http://www.w3.org/1999/xlink" x="0px" y="0px"
	 width="16px" height="16px" viewBox="0 0 16 16" enable-background="new 0 0 16 16" xml:space="preserve">
<path d="M2.608,0.49V0.467C2.604,0.478,2.599,0.485,2.595,0.49H2.608z"/>
<path d="M14.999,0h-0.523H1.523H1C0.448,0,0,0.448,0,1v0.524v12.954v0.524C0,15.554,0.448,16,1,16h0.524h12.952h0.523
	c0.553,0,1-0.446,1-0.998v-0.524V1.523V0.999C15.999,0.448,15.552,0,14.999,0z M13.708,12.968h-2.254V9.374
	c0-0.904-0.258-1.52-1.072-1.52c-0.624,0-0.996,0.416-1.158,0.815c-0.06,0.144-0.074,0.347-0.074,0.547v3.75H6.823
	c0,0,0.029-6.278,0-6.909h2.326V7.01c0.3-0.458,0.834-1.11,2.033-1.11c1.482,0,2.525,1.154,2.525,3.216V12.968z M4.073,3.048
	c0.693,0,1.119,0.501,1.133,1.156c0,0.643-0.439,1.156-1.146,1.156H4.048c-0.681,0-1.119-0.514-1.119-1.156
	C2.929,3.549,3.38,3.048,4.073,3.048z M5.334,6.084v6.883H3.048V6.084H5.334z"/>
</svg>
