<?xml version="1.0" encoding="utf-8"?>
<!-- Generator: Adobe Illustrator 16.0.0, SVG Export Plug-In . SVG Version: 6.00 Build 0)  -->
<!DOCTYPE svg PUBLIC "-//W3C//DTD SVG 1.1//EN" "http://www.w3.org/Graphics/SVG/1.1/DTD/svg11.dtd">
<svg version="1.1" id="Layer_1" xmlns="http://www.w3.org/2000/svg" xmlns:xlink="http://www.w3.org/1999/xlink" x="0px" y="0px"
	 width="16px" height="16px" viewBox="0 0 16 16" enable-background="new 0 0 16 16" xml:space="preserve">
<line fill="none" x1="6.562" y1="0" x2="6.562" y2="0"/>
<path fill="#231F20" d="M13.259,7.59c1.378,0,2.495-1.112,2.495-2.485s-1.117-2.486-2.495-2.486c-1.379,0-2.495,1.113-2.495,2.486
	S11.88,7.59,13.259,7.59"/>
<path fill="#231F20" d="M13.48,8.168c-0.02-0.002-0.039-0.004-0.057-0.006C13.409,8.16,13.395,8.16,13.38,8.16
	c-0.04-0.002-0.079-0.004-0.119-0.004H13.26h-0.003c-0.041,0-0.081,0.002-0.12,0.004c-0.016,0-0.029,0-0.044,0.002
	c-0.019,0.002-0.036,0.004-0.056,0.006c-1.41,0.121-2.521,1.379-2.521,2.814v0.965c0,0.137,0.111,0.248,0.25,0.248h0.088h4.811
	h0.089c0.138,0,0.249-0.111,0.249-0.248v-0.965C16.001,9.547,14.891,8.289,13.48,8.168"/>
<path fill="#231F20" d="M7.479,8.051c1.238,0,2.246-1.002,2.246-2.238S8.717,3.576,7.479,3.576c-1.242,0-2.246,1-2.246,2.236
	S6.236,8.051,7.479,8.051"/>
<path fill="#231F20" d="M7.676,8.57C7.66,8.568,7.643,8.566,7.627,8.564c-0.014,0-0.027,0-0.041-0.002
	c-0.035,0-0.07-0.002-0.105-0.002H7.477H7.475c-0.035,0-0.07,0.002-0.106,0.002C7.355,8.564,7.343,8.564,7.329,8.564
	C7.312,8.566,7.296,8.568,7.279,8.57c-1.271,0.109-2.271,1.24-2.271,2.533v0.867v0.002c0,0.123,0.101,0.223,0.226,0.223h0.078h4.328
	h0.08c0.124,0,0.225-0.1,0.225-0.223v-0.002v-0.867C9.945,9.811,8.945,8.68,7.676,8.57"/>
<path fill="#231F20" d="M2.223,8.465c1.116,0,2.021-0.899,2.021-2.014c0-1.111-0.905-2.014-2.021-2.014
	c-1.117,0-2.021,0.902-2.021,2.014C0.201,7.564,1.105,8.465,2.223,8.465"/>
<path fill="#231F20" d="M2.4,8.932c-0.015,0-0.029-0.002-0.045-0.002C2.344,8.928,2.333,8.928,2.32,8.928
	C2.289,8.924,2.257,8.924,2.225,8.924H2.223H2.22c-0.032,0-0.063,0-0.098,0.004c-0.013,0-0.022,0-0.035,0.002
	c-0.015,0-0.028,0.002-0.045,0.002C0.898,9.031,0,10.051,0,11.213v0.78c0,0.111,0.091,0.201,0.202,0.201h0.071h3.896H4.24
	c0.111,0,0.201-0.09,0.201-0.201v-0.78C4.443,10.051,3.545,9.031,2.4,8.932"/>
</svg>
