<?xml version="1.0" encoding="utf-8"?>
<!-- Generator: Adobe Illustrator 16.0.0, SVG Export Plug-In . SVG Version: 6.00 Build 0)  -->
<!DOCTYPE svg PUBLIC "-//W3C//DTD SVG 1.1//EN" "http://www.w3.org/Graphics/SVG/1.1/DTD/svg11.dtd">
<svg version="1.1" id="Layer_1" xmlns="http://www.w3.org/2000/svg" xmlns:xlink="http://www.w3.org/1999/xlink" x="0px" y="0px"
	 width="16px" height="16px" viewBox="0 0 16 16" enable-background="new 0 0 16 16" xml:space="preserve">
<line fill="none" x1="6.562" y1="1.804" x2="6.562" y2="1.804"/>
<path id="path_1_" d="M3.972,0.705C1.913,1.519,0.515,3.091,0.124,5.207c-0.24,1.3-0.148,2.718,0.425,3.931
	C0.677,9.408,0.83,9.667,1.013,9.908c0.09,0.116,0.184,0.229,0.286,0.335c0.183-0.064,0.358-0.146,0.526-0.242
	C2.522,9.608,3.034,9.004,3.63,8.495C1.64,6.188,3.75,3.329,6.392,2.69c2.457-0.594,5.789,0.431,6.533,2.959
	c0.309,1.048,0.105,2.205-0.747,2.965c-0.446,0.396-1.014,0.658-1.612,0.766c-0.352,0.062-0.711,0.073-1.063,0.037
	c-0.196-0.02-0.394-0.052-0.586-0.098c-0.327-0.078-0.618-0.067-0.618-0.42c0-0.922,0-1.844,0-2.766c0-0.461,0-0.922,0-1.383
	c0-0.281,0.028-0.229-0.206-0.258C7.905,4.47,7.722,4.452,7.536,4.437c-0.652-0.052-1.334-0.086-1.98,0.024
	C5.313,4.504,5.297,4.466,5.297,4.728c0,0.213,0,0.426,0,0.637c0,0.518,0,1.033,0,1.551c0,1.545,0.117,3.107,0.054,4.648
	c-0.019,0.459-0.031,1.562-0.545,1.789c-0.597,0.264-1.123-0.293-1.674-0.41c0.075,0.774-0.408,2.309,0.493,2.699
	c0.827,0.357,1.778,0.489,2.651,0.195c1.826-0.62,2.418-2.652,2.187-4.324c2.821,0.844,5.865-0.566,7.072-3.113
	c0.858-1.814,0.495-4.066-0.798-5.609C12.315-0.098,7.399-0.653,3.972,0.705z"/>
</svg>
