<?xml version="1.0" encoding="utf-8"?>
<!-- Generator: Adobe Illustrator 16.0.0, SVG Export Plug-In . SVG Version: 6.00 Build 0)  -->
<!DOCTYPE svg PUBLIC "-//W3C//DTD SVG 1.1//EN" "http://www.w3.org/Graphics/SVG/1.1/DTD/svg11.dtd">
<svg version="1.1" id="Layer_1" xmlns="http://www.w3.org/2000/svg" xmlns:xlink="http://www.w3.org/1999/xlink" x="0px" y="0px"
	 width="16px" height="16px" viewBox="0 0 16 16" enable-background="new 0 0 16 16" xml:space="preserve">
<path d="M2.609,0.49V0.467C2.605,0.478,2.6,0.485,2.596,0.49H2.609z"/>
<path fill="#231F20" d="M8,0C3.582,0,0,3.582,0,8c0,3.274,1.971,6.089,4.789,7.327c-0.021-0.559-0.005-1.23,0.139-1.838
	C5.082,12.841,5.957,9.13,5.957,9.13S5.702,8.62,5.702,7.865c0-1.187,0.687-2.071,1.542-2.071c0.729,0,1.08,0.547,1.08,1.201
	c0,0.73-0.467,1.824-0.707,2.838c-0.2,0.85,0.426,1.541,1.262,1.541c1.516,0,2.537-1.947,2.537-4.252
	c0-1.753-1.182-3.066-3.329-3.066c-2.427,0-3.938,1.811-3.938,3.832c0,0.696,0.205,1.188,0.528,1.569
	c0.147,0.174,0.169,0.244,0.115,0.444c-0.039,0.148-0.126,0.502-0.163,0.643c-0.054,0.203-0.218,0.275-0.4,0.199
	C3.111,10.288,2.59,9.063,2.59,7.688c0-2.272,1.916-4.998,5.719-4.998c3.053,0,5.064,2.211,5.064,4.582
	c0,3.139-1.746,5.481-4.316,5.481c-0.865,0-1.678-0.467-1.955-0.996c0,0-0.465,1.845-0.562,2.199
	c-0.17,0.617-0.502,1.231-0.805,1.713C6.452,15.883,7.213,15.998,8,15.998c4.418,0,8-3.582,8-7.999S12.418,0,8,0z"/>
</svg>
