<?xml version="1.0" encoding="utf-8"?>
<!-- Generator: Adobe Illustrator 16.0.0, SVG Export Plug-In . SVG Version: 6.00 Build 0)  -->
<!DOCTYPE svg PUBLIC "-//W3C//DTD SVG 1.1//EN" "http://www.w3.org/Graphics/SVG/1.1/DTD/svg11.dtd">
<svg version="1.1" id="Layer_1" xmlns="http://www.w3.org/2000/svg" xmlns:xlink="http://www.w3.org/1999/xlink" x="0px" y="0px"
	 width="16px" height="16px" viewBox="0 0 16 16" enable-background="new 0 0 16 16" xml:space="preserve">
<path d="M2.608,0.491V0.468c-0.004,0.011-0.01,0.018-0.014,0.023H2.608z"/>
<path id="skype_1_" d="M15.331,9.158C15.39,8.781,15.423,8.395,15.423,8c0-4.1-3.324-7.424-7.424-7.424
	c-0.393,0-0.781,0.033-1.158,0.092C6.157,0.244,5.351,0,4.485,0C2.008,0,0,2.008,0,4.486c0,0.865,0.245,1.671,0.668,2.355
	C0.609,7.219,0.577,7.605,0.577,8c0,4.1,3.322,7.421,7.423,7.421c0.394,0,0.781-0.03,1.159-0.09c0.686,0.422,1.49,0.668,2.355,0.668
	c2.477,0,4.485-2.009,4.485-4.485C15.999,10.648,15.755,9.843,15.331,9.158z M11.522,11.375c-0.313,0.453-0.774,0.807-1.377,1.061
	c-0.604,0.254-1.318,0.381-2.144,0.381c-0.987,0-1.806-0.172-2.452-0.521c-0.458-0.25-0.83-0.586-1.115-1.004
	c-0.287-0.419-0.433-0.828-0.433-1.229c0-0.234,0.09-0.439,0.265-0.606C4.444,9.288,4.672,9.203,4.94,9.203
	c0.22,0,0.408,0.066,0.563,0.197C5.656,9.532,5.785,9.723,5.89,9.975c0.125,0.291,0.262,0.534,0.407,0.73
	c0.146,0.191,0.347,0.354,0.61,0.479c0.26,0.127,0.607,0.189,1.039,0.189c0.594,0,1.074-0.13,1.439-0.382
	c0.369-0.257,0.547-0.566,0.547-0.942c0-0.3-0.096-0.537-0.291-0.723c-0.199-0.188-0.453-0.33-0.771-0.43
	c-0.317-0.102-0.745-0.209-1.28-0.321C6.873,8.42,6.272,8.236,5.786,8.027C5.299,7.816,4.911,7.529,4.623,7.165
	C4.334,6.8,4.19,6.344,4.19,5.803c0-0.514,0.151-0.975,0.455-1.376C4.95,4.025,5.39,3.718,5.961,3.503
	c0.57-0.214,1.242-0.319,2.011-0.319c0.615,0,1.147,0.069,1.598,0.213c0.449,0.143,0.824,0.33,1.123,0.565
	c0.3,0.236,0.518,0.483,0.656,0.746c0.139,0.262,0.209,0.519,0.209,0.767c0,0.231-0.091,0.442-0.266,0.627
	c-0.176,0.186-0.398,0.278-0.661,0.277c-0.235,0-0.421-0.054-0.55-0.169C9.956,6.1,9.825,5.921,9.683,5.673
	C9.504,5.329,9.289,5.061,9.039,4.867C8.796,4.68,8.394,4.58,7.835,4.581c-0.518,0-0.932,0.104-1.243,0.312
	C6.278,5.104,6.128,5.346,6.127,5.632c0.001,0.179,0.052,0.33,0.156,0.459C6.388,6.223,6.534,6.334,6.722,6.43
	C6.91,6.525,7.101,6.602,7.293,6.654c0.194,0.055,0.517,0.135,0.965,0.24C8.819,7.016,9.33,7.15,9.788,7.299s0.848,0.327,1.17,0.54
	c0.325,0.213,0.579,0.483,0.762,0.81c0.182,0.328,0.272,0.729,0.272,1.199C11.996,10.414,11.838,10.924,11.522,11.375z"/>
</svg>
