<?xml version="1.0" encoding="utf-8"?>
<!-- Generator: Adobe Illustrator 16.0.0, SVG Export Plug-In . SVG Version: 6.00 Build 0)  -->
<!DOCTYPE svg PUBLIC "-//W3C//DTD SVG 1.1//EN" "http://www.w3.org/Graphics/SVG/1.1/DTD/svg11.dtd">
<svg version="1.1" id="Layer_1" xmlns="http://www.w3.org/2000/svg" xmlns:xlink="http://www.w3.org/1999/xlink" x="0px" y="0px"
	 width="16px" height="16px" viewBox="0 0 16 16" enable-background="new 0 0 16 16" xml:space="preserve">
<line fill="none" x1="6.561" y1="1.804" x2="6.561" y2="1.804"/>
<path id="spotify_1_" d="M2.824,14.095c1.232-1.775,3.277-2.941,5.602-2.941c2.116,0,4.002,0.968,5.254,2.479
	C15.113,12.187,16,10.197,16,8c0-4.418-3.582-8-8-8S0,3.582,0,8C0,10.442,1.098,12.627,2.824,14.095z M12.275,10.399
	c-0.115,0.26-0.324,0.312-0.568,0.199c-1.064-0.492-2.25-0.769-3.5-0.769c-1.285,0-2.5,0.29-3.586,0.808
	c-0.117,0.057-0.373,0.08-0.488-0.252c-0.115-0.33,0.066-0.52,0.172-0.566c1.187-0.555,2.506-0.87,3.902-0.87
	c1.371,0,2.689,0.261,3.838,0.841C12.227,9.882,12.393,10.142,12.275,10.399z M12.957,8.356c-0.084,0.115-0.213,0.195-0.365,0.195
	c-0.043,0-0.08-0.013-0.119-0.023c-1.307-0.576-2.748-0.901-4.266-0.901c-1.508,0-2.939,0.319-4.238,0.888
	C3.922,8.532,3.873,8.546,3.82,8.546c-0.154,0-0.286-0.084-0.368-0.203l-0.086-0.26C3.368,7.948,3.43,7.831,3.523,7.749
	c1.431-0.643,3.014-1.004,4.684-1.004c1.669,0,3.251,0.361,4.682,1.004c0.096,0.08,0.155,0.201,0.159,0.336L12.957,8.356z
	 M2.941,5.126C4.57,4.47,6.343,4.103,8.207,4.103c1.844,0,3.604,0.359,5.219,1.004c0.219,0.111,0.371,0.332,0.371,0.595
	c0,0.371-0.301,0.672-0.672,0.672c-0.053,0-0.102-0.013-0.15-0.022c-1.473-0.595-3.082-0.925-4.768-0.925
	c-1.688,0-3.299,0.33-4.773,0.927C3.387,6.362,3.34,6.373,3.289,6.373c-0.371,0-0.672-0.301-0.672-0.672
	C2.617,5.455,2.748,5.243,2.941,5.126z M8.426,13.797c-1.354,0-2.554,0.653-3.32,1.655C6.004,15.801,6.979,16,8.001,16
	c1.267,0,2.459-0.302,3.522-0.825C10.758,14.33,9.654,13.797,8.426,13.797z"/>
</svg>
