<?xml version="1.0" encoding="utf-8"?>
<!-- Generator: Adobe Illustrator 16.0.0, SVG Export Plug-In . SVG Version: 6.00 Build 0)  -->
<!DOCTYPE svg PUBLIC "-//W3C//DTD SVG 1.1//EN" "http://www.w3.org/Graphics/SVG/1.1/DTD/svg11.dtd">
<svg version="1.1" id="Layer_1" xmlns="http://www.w3.org/2000/svg" xmlns:xlink="http://www.w3.org/1999/xlink" x="0px" y="0px"
	 width="16px" height="16px" viewBox="0 0 16 16" enable-background="new 0 0 16 16" xml:space="preserve">
<line fill="none" x1="6.562" y1="1.804" x2="6.562" y2="1.804"/>
<path d="M8,0C3.581,0,0,3.582,0,8s3.581,8,8,8s8-3.582,8-8S12.419,0,8,0z M7.913,6.062c-0.268,0-0.484,0.219-0.484,0.485
	L7.427,9.466c-0.016,1.117-0.924,2.018-2.044,2.018c-1.13,0-2.046-0.916-2.046-2.047c0-0.015,0-1.27,0-1.27h1.564V9.42
	c0,0.269,0.218,0.483,0.484,0.483c0.268,0,0.484-0.217,0.484-0.483V6.464c0.04-1.096,0.938-1.973,2.042-1.973
	c1.108,0,2.01,0.884,2.043,1.984v0.646L9.022,7.399L8.396,7.108V6.546C8.397,6.28,8.181,6.062,7.913,6.062z M12.491,9.437
	c0,1.131-0.916,2.047-2.047,2.047c-1.125,0-2.037-0.906-2.047-2.027V8.181l0.625,0.291l0.934-0.277v1.285
	c0,0.269,0.217,0.484,0.484,0.484c0.267,0,0.483-0.217,0.483-0.484V8.168h1.565C12.491,8.168,12.491,9.423,12.491,9.437z"/>
</svg>
