<?xml version="1.0" encoding="utf-8"?>
<!-- Generator: Adobe Illustrator 16.0.0, SVG Export Plug-In . SVG Version: 6.00 Build 0)  -->
<!DOCTYPE svg PUBLIC "-//W3C//DTD SVG 1.1//EN" "http://www.w3.org/Graphics/SVG/1.1/DTD/svg11.dtd">
<svg version="1.1" id="Layer_1" xmlns="http://www.w3.org/2000/svg" xmlns:xlink="http://www.w3.org/1999/xlink" x="0px" y="0px"
	 width="16px" height="16px" viewBox="0 0 16 16" enable-background="new 0 0 16 16" xml:space="preserve">
<path id="vimeo_1_" d="M13.662,0.003C11.438-0.07,9.934,1.188,9.145,3.782c0.405-0.169,0.801-0.255,1.185-0.255
	c0.812,0,1.17,0.46,1.073,1.382c-0.047,0.558-0.405,1.37-1.073,2.437C9.658,8.413,9.156,8.946,8.824,8.946
	c-0.432,0-0.826-0.823-1.186-2.472C7.518,5.989,7.302,4.753,6.993,2.764c-0.289-1.842-1.054-2.701-2.296-2.58
	C4.172,0.232,3.384,0.717,2.334,1.637C1.566,2.341,0.79,3.044,0,3.747l0.752,0.981c0.719-0.512,1.139-0.764,1.255-0.764
	c0.552,0,1.065,0.871,1.543,2.615c0.431,1.602,0.862,3.2,1.293,4.801c0.644,1.743,1.435,2.616,2.365,2.616
	c1.505,0,3.349-1.429,5.522-4.288c2.103-2.738,3.188-4.896,3.262-6.473C16.089,1.129,15.312,0.05,13.662,0.003z"/>
<line fill="none" x1="6.562" y1="0.803" x2="6.562" y2="0.803"/>
</svg>
