<?xml version="1.0" encoding="utf-8"?>
<!-- Generator: Adobe Illustrator 16.0.0, SVG Export Plug-In . SVG Version: 6.00 Build 0)  -->
<!DOCTYPE svg PUBLIC "-//W3C//DTD SVG 1.1//EN" "http://www.w3.org/Graphics/SVG/1.1/DTD/svg11.dtd">
<svg version="1.1" id="Layer_1" xmlns="http://www.w3.org/2000/svg" xmlns:xlink="http://www.w3.org/1999/xlink" x="0px" y="0px"
	 width="16px" height="16px" viewBox="0 0 16 16" enable-background="new 0 0 16 16" xml:space="preserve">
<path d="M2.609,0.023V0C2.605,0.011,2.6,0.018,2.596,0.023H2.609z"/>
<path id="youtube_1_" d="M15.895,3.974c0-1.287-1.035-2.332-2.312-2.332C11.762,1.564,9.9,1.53,8,1.533
	C6.1,1.531,4.238,1.564,2.417,1.642c-1.275,0-2.311,1.045-2.311,2.332C0.03,4.995-0.003,6.013,0,7.033
	c-0.003,1.019,0.03,2.039,0.106,3.06c0,1.287,1.035,2.332,2.311,2.332C4.236,12.501,6.1,12.536,8,12.532
	c1.898,0.004,3.761-0.031,5.582-0.107c1.275,0,2.311-1.045,2.311-2.332c0.078-1.021,0.11-2.041,0.107-3.06
	C16.003,6.013,15.971,4.994,15.895,3.974z M6.001,10.532v-7l5,3.5L6.001,10.532z"/>
</svg>
