<?xml version="1.0" encoding="utf-8"?>
<!-- Generator: Adobe Illustrator 16.0.0, SVG Export Plug-In . SVG Version: 6.00 Build 0)  -->
<!DOCTYPE svg PUBLIC "-//W3C//DTD SVG 1.1//EN" "http://www.w3.org/Graphics/SVG/1.1/DTD/svg11.dtd">
<svg version="1.1" id="Layer_1" xmlns="http://www.w3.org/2000/svg" xmlns:xlink="http://www.w3.org/1999/xlink" x="0px" y="0px"
	 width="24px" height="24px" viewBox="0 0 24 24" enable-background="new 0 0 24 24" xml:space="preserve">
<g>
	<g>
		<path d="M10,0C4.477,0,0,4.478,0,9.999C0,15.522,4.477,20,10,20s10-4.478,10-10.001C20,4.478,15.523,0,10,0z M10,16
			c-0.553,0-1-0.447-1-0.999C9,14.448,9.447,14,10,14s1,0.448,1,1.001C11,15.553,10.553,16,10,16z M11,11.001c0,0.552-0.447,1-1,1
			s-1-0.448-1-1v-6c0-0.553,0.447-1,1-1s1,0.447,1,1V11.001z"/>
	</g>
</g>
</svg>
