<?xml version="1.0" encoding="utf-8"?>
<!-- Generator: Adobe Illustrator 16.0.0, SVG Export Plug-In . SVG Version: 6.00 Build 0)  -->
<!DOCTYPE svg PUBLIC "-//W3C//DTD SVG 1.1//EN" "http://www.w3.org/Graphics/SVG/1.1/DTD/svg11.dtd">
<svg version="1.1" id="Layer_1" xmlns="http://www.w3.org/2000/svg" xmlns:xlink="http://www.w3.org/1999/xlink" x="0px" y="0px"
	 width="24px" height="24px" viewBox="0 0 24 24" enable-background="new 0 0 24 24" xml:space="preserve">
<path d="M16.5,6L16.5,6h3C20.328,6,21,6.672,21,7.5v15c0,0.828-0.672,1.5-1.5,1.5H3.75C1.679,24,0,22.321,0,20.25V3.75
	C0,1.679,1.679,0,3.75,0H19.5C20.328,0,21,0.672,21,1.5s-0.672,1.501-1.5,1.501h-3h-9h-3C3.672,3.001,3,3.672,3,4.5
	C3,5.328,3.672,6,4.5,6H8v6l1.5-1l1.5,1V6H16.5z"/>
</svg>
