<?xml version="1.0" encoding="utf-8"?>
<!-- Generator: Adobe Illustrator 16.0.0, SVG Export Plug-In . SVG Version: 6.00 Build 0)  -->
<!DOCTYPE svg PUBLIC "-//W3C//DTD SVG 1.1//EN" "http://www.w3.org/Graphics/SVG/1.1/DTD/svg11.dtd">
<svg version="1.1" id="Layer_1" xmlns="http://www.w3.org/2000/svg" xmlns:xlink="http://www.w3.org/1999/xlink" x="0px" y="0px"
	 width="24px" height="24px" viewBox="0 0 24 24" enable-background="new 0 0 24 24" xml:space="preserve">
<path d="M20.986-0.001c0,0-14.935,0-17.998,0c-3,0-2.989,3-2.989,3v11.999c0,0,0,2.971,3,3C6,18.031,9,18,9,18
	s1.255,0.035,1.718,0.559l6.781,5.311C17.609,23.957,17.678,24,17.742,24c0.188,0,0.244-0.127,0.244-0.34v-5.023
	c0-0.355,0.234-0.637,0.549-0.637L21,17.998c3,0,3-3,3-3V3C24,3,23.971-0.001,20.986-0.001z M21,14.998h-6v3l-3.858-3H3V3h18V14.998
	z"/>
</svg>
