<?xml version="1.0" encoding="utf-8"?>
<!-- Generator: Adobe Illustrator 16.0.0, SVG Export Plug-In . SVG Version: 6.00 Build 0)  -->
<!DOCTYPE svg PUBLIC "-//W3C//DTD SVG 1.0//EN" "http://www.w3.org/TR/2001/REC-SVG-20010904/DTD/svg10.dtd">
<svg version="1.0" id="Layer_1" xmlns="http://www.w3.org/2000/svg" xmlns:xlink="http://www.w3.org/1999/xlink" x="0px" y="0px"
	 width="24px" height="24px" viewBox="0 0 24 24" enable-background="new 0 0 24 24" xml:space="preserve">
<path fill-rule="evenodd" clip-rule="evenodd" d="M0,6.001c0-1.104,0.896-2,2-2h2V2c0-0.552,0.448-1.999,1-1.999h2
	c0.553,0,1,1.447,1,1.999v2.001h8V2c0-0.551,0.447-1.999,1-1.999h2c0.553,0,1,1.448,1,1.999v2.001h2c1.104,0,2,0.896,2,2v2H0V6.001z
	 M24,10.001v13c0,0-0.521,1-2,1H2c-1.573,0-2-1-2-1v-13H24z"/>
</svg>
