<?xml version="1.0" encoding="utf-8"?>
<!-- Generator: Adobe Illustrator 16.0.0, SVG Export Plug-In . SVG Version: 6.00 Build 0)  -->
<!DOCTYPE svg PUBLIC "-//W3C//DTD SVG 1.1//EN" "http://www.w3.org/Graphics/SVG/1.1/DTD/svg11.dtd">
<svg version="1.1" id="Layer_1" xmlns="http://www.w3.org/2000/svg" xmlns:xlink="http://www.w3.org/1999/xlink" x="0px" y="0px"
	 width="24px" height="24px" viewBox="0 0 24 24" enable-background="new 0 0 24 24" xml:space="preserve">
<path d="M10.717,18.56l6.781,5.311c0.111,0.086,0.178,0.131,0.244,0.131c0.188,0,0.244-0.129,0.244-0.34v-5.023
	c0-0.355,0.234-0.637,0.549-0.637L21,17.999c3,0,3-2,3-2V2C24,2,23.971,0,20.986,0c0,0-14.936,0-17.998,0C-0.012,0-0.001,2-0.001,2
	v13.999c0,0,0,1.971,3,2c3,0.033,6,0.002,6,0.002S10.254,18.036,10.717,18.56z"/>
</svg>
