<?xml version="1.0" encoding="utf-8"?>
<!-- Generator: Adobe Illustrator 16.0.0, SVG Export Plug-In . SVG Version: 6.00 Build 0)  -->
<!DOCTYPE svg PUBLIC "-//W3C//DTD SVG 1.1//EN" "http://www.w3.org/Graphics/SVG/1.1/DTD/svg11.dtd">
<svg version="1.1" id="Layer_1" xmlns="http://www.w3.org/2000/svg" xmlns:xlink="http://www.w3.org/1999/xlink" x="0px" y="0px"
	 width="24px" height="24px" viewBox="0 0 24 24" enable-background="new 0 0 24 24" xml:space="preserve">
<path d="M21.653,0.221c-0.291-0.294-0.768-0.294-1.061,0L9.412,11.351c-0.293,0.296-0.771,0.296-1.062,0L3.451,6.36
	C3.306,6.214,3.116,6.141,2.925,6.14C2.732,6.138,2.536,6.211,2.389,6.36L0.225,8.308C0.08,8.456,0.002,8.64,0.002,8.833
	c0,0.194,0.078,0.398,0.223,0.545l4.94,5.182c0.292,0.296,0.771,0.777,1.062,1.07l2.124,2.141c0.292,0.293,0.769,0.293,1.062,0
	l14.367-14.34c0.293-0.293,0.293-0.777,0-1.07L21.653,0.221z"/>
</svg>
