<?xml version="1.0" encoding="utf-8"?>
<!-- Generator: Adobe Illustrator 16.0.0, SVG Export Plug-In . SVG Version: 6.00 Build 0)  -->
<!DOCTYPE svg PUBLIC "-//W3C//DTD SVG 1.1//EN" "http://www.w3.org/Graphics/SVG/1.1/DTD/svg11.dtd">
<svg version="1.1" id="Layer_1" xmlns="http://www.w3.org/2000/svg" xmlns:xlink="http://www.w3.org/1999/xlink" x="0px" y="0px"
	 width="24px" height="24px" viewBox="0 0 24 24" enable-background="new 0 0 24 24" xml:space="preserve">
<g>
	<g>
		<path d="M12,0C5.373,0,0,5.373,0,12c0,6.627,5.373,12,12,12c6.628,0,12-5.373,12-12C24,5.373,18.629,0,12,0z M19.754,9.56
			l-8.607,8.608c-0.175,0.176-0.461,0.176-0.636,0l-1.272-1.285c-0.175-0.176-0.461-0.465-0.636-0.643l-2.96-3.111
			c-0.087-0.088-0.133-0.209-0.133-0.327c0-0.115,0.046-0.228,0.133-0.315l1.297-1.169c0.088-0.09,0.206-0.134,0.321-0.133
			c0.114,0.001,0.228,0.045,0.315,0.133l2.936,2.997c0.175,0.178,0.461,0.178,0.636,0l6.699-6.682c0.176-0.177,0.461-0.177,0.637,0
			l1.271,1.285C19.93,9.093,19.93,9.383,19.754,9.56z"/>
	</g>
</g>
</svg>
