<?xml version="1.0" encoding="utf-8"?>
<!-- Generator: Adobe Illustrator 16.0.0, SVG Export Plug-In . SVG Version: 6.00 Build 0)  -->
<!DOCTYPE svg PUBLIC "-//W3C//DTD SVG 1.0//EN" "http://www.w3.org/TR/2001/REC-SVG-20010904/DTD/svg10.dtd">
<svg version="1.0" id="Layer_1" xmlns="http://www.w3.org/2000/svg" xmlns:xlink="http://www.w3.org/1999/xlink" x="0px" y="0px"
	 width="24px" height="24px" viewBox="0 0 24 24" enable-background="new 0 0 24 24" xml:space="preserve">
<path d="M22.023,1.976c-2.635-2.635-6.909-2.635-9.546,0.002l-10.5,10.5c-2.637,2.637-2.637,6.911-0.001,9.546
	c2.635,2.636,6.909,2.637,9.546,0l2.224-2.16c-1.195-0.026-2.287-0.416-3.21-1.048l-1.135,1.087c-1.465,1.465-3.84,1.465-5.305,0
	c-1.463-1.463-1.463-3.839,0.002-5.304l10.5-10.5c1.465-1.465,3.839-1.465,5.303,0c1.465,1.465,1.466,3.838,0.002,5.303
	l-5.232,5.269c-0.44,0.439-1.151,0.439-1.591,0s-0.439-1.151,0-1.591l3.95-3.988c0.293-0.293,0.294-0.768,0-1.061L15.97,6.97
	c-0.293-0.293-0.768-0.293-1.061,0l-3.95,3.988c-1.612,1.611-1.612,4.224,0,5.833c1.611,1.611,4.223,1.611,5.832,0l5.232-5.269
	C24.659,8.886,24.659,4.611,22.023,1.976z"/>
</svg>
