<?xml version="1.0" encoding="utf-8"?>
<!-- Generator: Adobe Illustrator 16.0.0, SVG Export Plug-In . SVG Version: 6.00 Build 0)  -->
<!DOCTYPE svg PUBLIC "-//W3C//DTD SVG 1.0//EN" "http://www.w3.org/TR/2001/REC-SVG-20010904/DTD/svg10.dtd">
<svg version="1.0" id="Layer_1" xmlns="http://www.w3.org/2000/svg" xmlns:xlink="http://www.w3.org/1999/xlink" x="0px" y="0px"
	 width="24px" height="24px" viewBox="0 0 24 24" enable-background="new 0 0 24 24" xml:space="preserve">
<path fill-rule="evenodd" clip-rule="evenodd" d="M22,20H2c-1.104,0-2-0.896-2-2V2.001C0,0.896,0.896,0,2,0h20
	c1.104,0,2,0.896,2,2.001V18C24,19.104,23.104,20,22,20z M21,2.999H3v3h18V2.999z M21,11.999v-3H3v7v1h18V11.999z M6,10.999h7
	c0.553,0,1,0.447,1,1s-0.447,1-1,1H6c-0.553,0-1-0.447-1-1S5.447,10.999,6,10.999z M17,10.999h1c0.553,0,1,0.447,1,1s-0.447,1-1,1
	h-1c-0.553,0-1-0.447-1-1S16.447,10.999,17,10.999z"/>
</svg>
