<?xml version="1.0" encoding="utf-8"?>
<!-- Generator: Adobe Illustrator 16.0.0, SVG Export Plug-In . SVG Version: 6.00 Build 0)  -->
<!DOCTYPE svg PUBLIC "-//W3C//DTD SVG 1.1//EN" "http://www.w3.org/Graphics/SVG/1.1/DTD/svg11.dtd">
<svg version="1.1" id="Layer_1" xmlns="http://www.w3.org/2000/svg" xmlns:xlink="http://www.w3.org/1999/xlink" x="0px" y="0px"
	 width="24px" height="24px" viewBox="0 0 24 24" enable-background="new 0 0 24 24" xml:space="preserve">
<g>
	<g>
		<path d="M17.099,2.933c-3.911-3.91-10.253-3.91-14.164,0.001c-3.912,3.912-3.912,10.254-0.001,14.165
			c3.911,3.911,10.254,3.911,14.165,0C21.01,13.187,21.01,6.845,17.099,2.933z M14.703,14.703c-0.432,0.432-1.131,0.432-1.562,0
			l-3.127-3.126l-3.126,3.126c-0.432,0.432-1.131,0.432-1.562,0c-0.432-0.433-0.433-1.131-0.001-1.562l3.127-3.127L5.325,6.888
			c-0.432-0.432-0.432-1.131,0-1.562c0.432-0.432,1.132-0.432,1.563,0l3.125,3.125l3.126-3.125c0.432-0.432,1.131-0.432,1.562,0
			c0.432,0.431,0.433,1.131,0.001,1.562l-3.126,3.126l3.126,3.127C15.135,13.572,15.135,14.271,14.703,14.703z"/>
	</g>
</g>
</svg>
