<?xml version="1.0" encoding="utf-8"?>
<!-- Generator: Adobe Illustrator 16.0.0, SVG Export Plug-In . SVG Version: 6.00 Build 0)  -->
<!DOCTYPE svg PUBLIC "-//W3C//DTD SVG 1.1//EN" "http://www.w3.org/Graphics/SVG/1.1/DTD/svg11.dtd">
<svg version="1.1" id="Layer_1" xmlns="http://www.w3.org/2000/svg" xmlns:xlink="http://www.w3.org/1999/xlink" x="0px" y="0px"
	 width="24px" height="24px" viewBox="0 0 24 24" enable-background="new 0 0 24 24" xml:space="preserve">
<path d="M20.775,2.52c0.313,0.313,0.313,0.826,0,1.14l-6.276,6.269c-0.313,0.313-0.313,0.826,0,1.141l6.273,6.271
	c0.313,0.314,0.313,0.826,0,1.14l-2.285,2.277c-0.314,0.312-0.828,0.312-1.142,0l-6.271-6.271c-0.313-0.312-0.828-0.312-1.141,0
	l-6.276,6.267c-0.313,0.313-0.828,0.313-1.141,0l-2.282-2.28c-0.313-0.312-0.313-0.826,0-1.139l6.278-6.269
	c0.313-0.312,0.313-0.826,0-1.14L0.24,3.653c-0.313-0.314-0.313-0.828,0-1.14l2.284-2.278c0.313-0.313,0.827-0.313,1.141,0.001
	l6.271,6.27c0.314,0.315,0.828,0.315,1.141,0.001l6.276-6.267c0.312-0.312,0.827-0.312,1.141,0L20.775,2.52z"/>
</svg>
