<?xml version="1.0" encoding="utf-8"?>
<!-- Generator: Adobe Illustrator 16.0.0, SVG Export Plug-In . SVG Version: 6.00 Build 0)  -->
<!DOCTYPE svg PUBLIC "-//W3C//DTD SVG 1.0//EN" "http://www.w3.org/TR/2001/REC-SVG-20010904/DTD/svg10.dtd">
<svg version="1.0" id="Layer_1" xmlns="http://www.w3.org/2000/svg" xmlns:xlink="http://www.w3.org/1999/xlink" x="0px" y="0px"
	 width="24px" height="24px" viewBox="0 0 24 24" enable-background="new 0 0 24 24" xml:space="preserve">
<g>
	<g>
		<path fill-rule="evenodd" clip-rule="evenodd" d="M18,0H2C0.896,0,0,0.896,0,2v20c0,1.104,0.896,2,2,2h16c1.104,0,2-0.896,2-2V2
			C20,0.896,19.104,0,18,0z M11,17.5c0,0.276-0.225,0.5-0.5,0.5h-7C3.224,18,3,17.776,3,17.5v-1C3,16.224,3.224,16,3.5,16h7
			c0.275,0,0.5,0.224,0.5,0.5V17.5z M17,13.5c0,0.276-0.225,0.5-0.5,0.5h-13C3.224,14,3,13.776,3,13.5v-1C3,12.224,3.224,12,3.5,12
			h13c0.275,0,0.5,0.224,0.5,0.5V13.5z M17,9.5c0,0.276-0.225,0.5-0.5,0.5h-13C3.224,10,3,9.776,3,9.5v-1C3,8.224,3.224,8,3.5,8h13
			C16.775,8,17,8.224,17,8.5V9.5z M17,5.5C17,5.776,16.775,6,16.5,6h-13C3.224,6,3,5.776,3,5.5v-1C3,4.224,3.224,4,3.5,4h13
			C16.775,4,17,4.224,17,4.5V5.5z"/>
	</g>
</g>
</svg>
