<?xml version="1.0" encoding="utf-8"?>
<!-- Generator: Adobe Illustrator 16.0.0, SVG Export Plug-In . SVG Version: 6.00 Build 0)  -->
<!DOCTYPE svg PUBLIC "-//W3C//DTD SVG 1.1//EN" "http://www.w3.org/Graphics/SVG/1.1/DTD/svg11.dtd">
<svg version="1.1" id="Layer_1" xmlns="http://www.w3.org/2000/svg" xmlns:xlink="http://www.w3.org/1999/xlink" x="0px" y="0px"
	 width="24px" height="24px" viewBox="0 0 24 24" enable-background="new 0 0 24 24" xml:space="preserve">
<g>
	<path d="M0,11.499C0,12.328,0.671,13,1.5,13h7.443l-2.509,2.543c-0.564,0.566-0.564,1.483,0,2.05s1.48,0.566,2.044,0l5.09-5.011
		c0.537-0.537,0.564-1.603,0-2.166c-0.469-0.468-5.09-5.011-5.09-5.011c-0.564-0.566-1.48-0.566-2.044,0
		c-0.564,0.566-0.564,1.484,0,2.051L8.944,10H1.5C0.671,10,0,10.671,0,11.499z"/>
	<path d="M18,0H2C0.895,0,0,0.895,0,2v4h3V3h14v17H3v-3.001H0v4C0,22.104,0.895,23,2,23h16c1.105,0,2-0.896,2-2.001V2
		C20,0.895,19.105,0,18,0z"/>
</g>
</svg>
