<?xml version="1.0" encoding="utf-8"?>
<!-- Generator: Adobe Illustrator 16.0.0, SVG Export Plug-In . SVG Version: 6.00 Build 0)  -->
<!DOCTYPE svg PUBLIC "-//W3C//DTD SVG 1.1//EN" "http://www.w3.org/Graphics/SVG/1.1/DTD/svg11.dtd">
<svg version="1.1" id="Layer_1" xmlns="http://www.w3.org/2000/svg" xmlns:xlink="http://www.w3.org/1999/xlink" x="0px" y="0px"
	 width="24px" height="24px" viewBox="0 0 24 24" enable-background="new 0 0 24 24" xml:space="preserve">
<path d="M20,20H3V3h7V0H2C0.896,0,0,0.896,0,2v19c0,1.104,0.896,2,2,2h19c1.104,0,2-0.896,2-2v-7h-3V20z M22.887,0.932
	c-0.003-0.008-0.007-0.016-0.01-0.023c-0.068-0.158-0.165-0.3-0.28-0.424c-0.017-0.019-0.022-0.042-0.04-0.06
	c-0.024-0.025-0.058-0.033-0.084-0.056c-0.094-0.08-0.195-0.148-0.307-0.204c-0.083-0.042-0.165-0.072-0.252-0.098
	c-0.08-0.023-0.163-0.039-0.248-0.048c-0.081-0.009-0.159-0.021-0.24-0.017H14.5c-0.828,0-1.5,0.672-1.5,1.5s0.672,1.5,1.5,1.5
	h3.377l-8.409,8.426c-0.607,0.609-0.628,1.576-0.046,2.16s1.546,0.564,2.154-0.045L20,5.1v3.401c0,0.828,0.672,1.5,1.5,1.5
	s1.5-0.672,1.5-1.5v-7C23,1.299,22.959,1.107,22.887,0.932z"/>
</svg>
