<?xml version="1.0" encoding="utf-8"?>
<!-- Generator: Adobe Illustrator 16.0.0, SVG Export Plug-In . SVG Version: 6.00 Build 0)  -->
<!DOCTYPE svg PUBLIC "-//W3C//DTD SVG 1.1//EN" "http://www.w3.org/Graphics/SVG/1.1/DTD/svg11.dtd">
<svg version="1.1" id="Layer_1" xmlns="http://www.w3.org/2000/svg" xmlns:xlink="http://www.w3.org/1999/xlink" x="0px" y="0px"
	 width="24px" height="24px" viewBox="0 0 24 24" enable-background="new 0 0 24 24" xml:space="preserve">
<g>
	<g>
		<path d="M12,0C4.063,0-0.012,7.999-0.012,7.999S3.063,16,12,16c8.093,0,12.011-7.969,12.011-7.969S20.062,0,12,0z M12.018,13
			c-2.902,0-5-2.188-5-5.001c0-2.812,2.098-4.999,5-4.999c2.902,0,5,2.187,5,4.999C17.018,10.812,14.92,13,12.018,13z M12.018,4.999
			c-1.658,0.003-3,1.394-3,3S10.36,11,12.018,11c1.66,0,3-1.395,3-3.001C15.018,6.392,13.678,4.996,12.018,4.999z"/>
	</g>
</g>
</svg>
