<?xml version="1.0" encoding="utf-8"?>
<!-- Generator: Adobe Illustrator 16.0.0, SVG Export Plug-In . SVG Version: 6.00 Build 0)  -->
<!DOCTYPE svg PUBLIC "-//W3C//DTD SVG 1.1//EN" "http://www.w3.org/Graphics/SVG/1.1/DTD/svg11.dtd">
<svg version="1.1" id="Layer_1" xmlns="http://www.w3.org/2000/svg" xmlns:xlink="http://www.w3.org/1999/xlink" x="0px" y="0px"
	 width="24px" height="24px" viewBox="0 0 24 24" enable-background="new 0 0 24 24" xml:space="preserve">
<g>
	<g>
		<path d="M22,3c0,0-3,0-8,0c-0.993,0-2.049-3-2.938-3C6.785,0,2,0,2,0C0.896,0,0,0.896,0,2v17.001c0,1.104,0.896,2,2,2h20
			c1.104,0,2-0.896,2-2V5C24,3.896,23.104,3,22,3z M21,18.001H3v-15c0,0,5.031-0.002,6-0.002s2,3,3,3S21,6,21,6V18.001z"/>
	</g>
</g>
</svg>
