<?xml version="1.0" encoding="utf-8"?>
<!-- Generator: Adobe Illustrator 16.0.0, SVG Export Plug-In . SVG Version: 6.00 Build 0)  -->
<!DOCTYPE svg PUBLIC "-//W3C//DTD SVG 1.1//EN" "http://www.w3.org/Graphics/SVG/1.1/DTD/svg11.dtd">
<svg version="1.1" id="Layer_1" xmlns="http://www.w3.org/2000/svg" xmlns:xlink="http://www.w3.org/1999/xlink" x="0px" y="0px"
	 width="24px" height="24px" viewBox="0 0 24 24" enable-background="new 0 0 24 24" xml:space="preserve">
<path d="M21.52,10.146c-0.408-0.059-0.844-0.429-0.971-0.821l-0.609-1.48c-0.193-0.365-0.146-0.936,0.1-1.265l0.99-1.318
	c0.246-0.33,0.227-0.853-0.047-1.162l-1.084-1.086c-0.311-0.272-0.832-0.292-1.164-0.045l-1.316,0.989
	c-0.33,0.247-0.898,0.293-1.264,0.101l-1.48-0.61c-0.395-0.125-0.764-0.562-0.82-0.97l-0.234-1.629
	c-0.057-0.409-0.441-0.778-0.85-0.822C12.769,0.027,12.514,0,12,0c-0.515,0-0.77,0.027-0.77,0.027
	c-0.41,0.043-0.794,0.413-0.851,0.822l-0.234,1.629c-0.058,0.408-0.426,0.845-0.82,0.97l-1.48,0.61
	C7.48,4.251,6.911,4.205,6.582,3.958L5.264,2.969c-0.33-0.248-0.853-0.228-1.162,0.045L3.017,4.1
	c-0.272,0.31-0.293,0.832-0.046,1.162L3.959,6.58c0.248,0.329,0.293,0.899,0.102,1.265L3.45,9.325
	c-0.125,0.393-0.562,0.762-0.971,0.821L0.85,10.378c-0.408,0.059-0.777,0.442-0.821,0.853c0,0-0.027,0.254-0.027,0.769
	c0,0.514,0.027,0.77,0.027,0.77c0.043,0.41,0.413,0.794,0.821,0.852l1.629,0.232c0.409,0.058,0.846,0.428,0.971,0.82l0.612,1.48
	c0.191,0.365,0.146,0.936-0.102,1.264l-0.988,1.318c-0.248,0.33-0.307,0.778-0.132,0.994c0.175,0.216,0.676,0.752,0.678,0.754
	c0.001,0.002,0.17,0.156,0.375,0.344c0.205,0.188,1.042,0.449,1.372,0.202l1.318-0.989c0.33-0.247,0.898-0.292,1.264-0.1l1.48,0.609
	c0.394,0.126,0.763,0.562,0.82,0.971l0.234,1.629c0.057,0.409,0.441,0.779,0.851,0.822c0,0,0.255,0.026,0.77,0.026
	c0.514,0,0.769-0.026,0.769-0.026c0.409-0.043,0.793-0.413,0.85-0.822l0.234-1.629c0.057-0.409,0.426-0.845,0.82-0.971l1.48-0.61
	c0.365-0.192,0.934-0.146,1.264,0.1l1.318,0.99c0.332,0.247,0.854,0.227,1.164-0.046l1.082-1.084
	c0.273-0.311,0.293-0.834,0.047-1.164l-0.99-1.318c-0.246-0.328-0.293-0.898-0.1-1.264l0.609-1.48
	c0.127-0.393,0.562-0.763,0.971-0.82l1.629-0.232c0.41-0.058,0.777-0.441,0.822-0.852c0,0,0.027-0.256,0.027-0.77
	c0-0.515-0.027-0.769-0.027-0.769c-0.045-0.411-0.412-0.794-0.822-0.853L21.52,10.146z M12,14.999c-1.657,0-3-1.342-3-3
	c0-1.657,1.343-3,3-3c1.656,0,2.998,1.344,2.998,3C14.998,13.657,13.656,14.999,12,14.999z"/>
</svg>
