<?xml version="1.0" encoding="utf-8"?>
<!-- Generator: Adobe Illustrator 16.0.0, SVG Export Plug-In . SVG Version: 6.00 Build 0)  -->
<!DOCTYPE svg PUBLIC "-//W3C//DTD SVG 1.1//EN" "http://www.w3.org/Graphics/SVG/1.1/DTD/svg11.dtd">
<svg version="1.1" id="Layer_1" xmlns="http://www.w3.org/2000/svg" xmlns:xlink="http://www.w3.org/1999/xlink" x="0px" y="0px"
	 width="24px" height="24px" viewBox="0 0 24 24" enable-background="new 0 0 24 24" xml:space="preserve">
<path d="M22,22.005c0,1.104-0.896,2-2,2h-6v-7.999c0-1.105-0.896-2.001-2-2.001h-2c-1.104,0-2,0.896-2,2.001v7.999H2
	c-1.104,0-2-0.896-2-2v-12c0-0.514,0.2-0.979,0.52-1.333L0.5,8.63l9.15-8.22c0.736-0.554,1.934-0.554,2.67,0l9.18,8.22l-0.01,0.054
	C21.804,9.036,22,9.496,22,10.005V22.005z"/>
</svg>
