<?xml version="1.0" encoding="utf-8"?>
<!-- Generator: Adobe Illustrator 16.0.0, SVG Export Plug-In . SVG Version: 6.00 Build 0)  -->
<!DOCTYPE svg PUBLIC "-//W3C//DTD SVG 1.0//EN" "http://www.w3.org/TR/2001/REC-SVG-20010904/DTD/svg10.dtd">
<svg version="1.0" id="Layer_1" xmlns="http://www.w3.org/2000/svg" xmlns:xlink="http://www.w3.org/1999/xlink" x="0px" y="0px"
	 width="24px" height="24px" viewBox="0 0 24 24" enable-background="new 0 0 24 24" xml:space="preserve">
<path fill-rule="evenodd" clip-rule="evenodd" d="M22,20H2c-1.104,0-2-0.896-2-2V2.001C0,0.896,0.896,0,2,0h20
	c1.104,0,2,0.896,2,2.001V18C24,19.104,23.104,20,22,20z M21,2.999H3v13c1.109-1.109,2.889-2.889,4-4
	c0.958-0.958,1.969-0.031,1.969-0.031L11,13.999c0,0,3.253-3.253,4.969-4.969C17,7.999,17.984,8.983,17.984,8.983L21,11.999V2.999z
	 M7,8.999c-1.104,0-2-0.896-2-2s0.896-2,2-2s2,0.896,2,2S8.104,8.999,7,8.999z"/>
</svg>
