<?xml version="1.0" encoding="utf-8"?>
<!-- Generator: Adobe Illustrator 16.0.0, SVG Export Plug-In . SVG Version: 6.00 Build 0)  -->
<!DOCTYPE svg PUBLIC "-//W3C//DTD SVG 1.1//EN" "http://www.w3.org/Graphics/SVG/1.1/DTD/svg11.dtd">
<svg version="1.1" id="Layer_1" xmlns="http://www.w3.org/2000/svg" xmlns:xlink="http://www.w3.org/1999/xlink" x="0px" y="0px"
	 width="24px" height="24px" viewBox="0 0 24 24" enable-background="new 0 0 24 24" xml:space="preserve">
<g>
	<g>
		<path d="M10,0C4.477,0,0,4.478,0,10s4.477,10,10,10s10.001-4.478,10.001-10S15.523,0,10,0z M11,15c0,0.552-0.447,0.999-1,0.999
			S9,15.552,9,15V8.999c0-0.552,0.447-1,1-1s1,0.448,1,1V15z M10,5.999C9.447,5.999,9,5.552,9,5c0-0.553,0.447-1,1-1s1,0.447,1,1
			C11,5.552,10.553,5.999,10,5.999z"/>
	</g>
</g>
</svg>
