<?xml version="1.0" encoding="utf-8"?>
<!-- Generator: Adobe Illustrator 16.0.0, SVG Export Plug-In . SVG Version: 6.00 Build 0)  -->
<!DOCTYPE svg PUBLIC "-//W3C//DTD SVG 1.0//EN" "http://www.w3.org/TR/2001/REC-SVG-20010904/DTD/svg10.dtd">
<svg version="1.0" id="Layer_1" xmlns="http://www.w3.org/2000/svg" xmlns:xlink="http://www.w3.org/1999/xlink" x="0px" y="0px"
	 width="24px" height="24px" viewBox="0 0 24 24" enable-background="new 0 0 24 24" xml:space="preserve">
<g>
	<g>
		<path d="M22.023,1.978L22.023,1.978C20.747,0.702,19.052,0,17.25,0c-1.803,0-3.497,0.702-4.772,1.978c0,0-4.258,4.256-4.502,4.499
			C6.705,7.749,6.003,9.447,6,11.261c0.003,1.801,0.705,3.492,1.977,4.763l0.55,0.55c0.146,0.146,0.338,0.22,0.53,0.22
			c0.191,0,0.384-0.073,0.53-0.22l1.061-1.061c0.293-0.293,0.293-0.768,0-1.061l-0.55-0.549c-1.438-1.439-1.458-3.799-0.043-5.262
			c0.044-0.045,4.544-4.543,4.544-4.543C15.307,3.39,16.249,3,17.251,3c1,0,1.941,0.39,2.649,1.097c0.001,0,0.001,0.002,0.001,0.002
			c1.465,1.467,1.465,3.838,0.001,5.303L19.67,9.633c0.364,0.975,0.579,2.019,0.58,3.117c0,0.199-0.027,0.391-0.04,0.586
			l1.813-1.813C24.66,8.886,24.658,4.611,22.023,1.978z M15.474,7.427c-0.146-0.146-0.338-0.22-0.53-0.22
			c-0.191,0-0.384,0.073-0.53,0.22l-1.061,1.061c-0.293,0.293-0.293,0.768,0,1.061l0.55,0.549c1.438,1.439,1.458,3.799,0.043,5.262
			c-0.044,0.045-4.544,4.543-4.544,4.543C8.693,20.61,7.751,21,6.749,21c-1,0-1.941-0.39-2.649-1.097l-0.001-0.002
			c-1.465-1.467-1.465-3.838-0.001-5.303l0.232-0.231c-0.364-0.974-0.579-2.019-0.58-3.117c0-0.199,0.027-0.391,0.039-0.586
			l-1.812,1.813c-2.636,2.637-2.634,6.911,0,9.545h0.001C3.253,23.298,4.948,24,6.75,24c1.803,0,3.497-0.702,4.772-1.978
			c0,0,4.259-4.256,4.502-4.499c1.271-1.272,1.973-2.971,1.976-4.784c-0.003-1.801-0.705-3.492-1.977-4.763L15.474,7.427z"/>
	</g>
</g>
</svg>
