<?xml version="1.0" encoding="utf-8"?>
<!-- Generator: Adobe Illustrator 16.0.0, SVG Export Plug-In . SVG Version: 6.00 Build 0)  -->
<!DOCTYPE svg PUBLIC "-//W3C//DTD SVG 1.1//EN" "http://www.w3.org/Graphics/SVG/1.1/DTD/svg11.dtd">
<svg version="1.1" id="Layer_1" xmlns="http://www.w3.org/2000/svg" xmlns:xlink="http://www.w3.org/1999/xlink" x="0px" y="0px"
	 width="24px" height="24px" viewBox="0 0 24 24" enable-background="new 0 0 24 24" xml:space="preserve">
<g>
	<g>
		<path d="M23.248,16H0.753c-0.413,0-0.75,0.359-0.75,0.801v3.42c0,0.424,0.337,0.77,0.75,0.77h22.495c0.414,0,0.75-0.346,0.75-0.77
			v-3.42C23.998,16.359,23.662,16,23.248,16z M23.248,8H0.753c-0.413,0-0.75,0.36-0.75,0.801v3.42c0,0.425,0.337,0.77,0.75,0.77
			h22.495c0.414,0,0.75-0.345,0.75-0.77v-3.42C23.998,8.36,23.662,8,23.248,8z M23.248,0H0.753c-0.413,0-0.75,0.361-0.75,0.801
			v3.421c0,0.423,0.337,0.768,0.75,0.768h22.495c0.414,0,0.75-0.345,0.75-0.768V0.801C23.998,0.361,23.662,0,23.248,0z"/>
	</g>
</g>
</svg>
