<?xml version="1.0" encoding="utf-8"?>
<!-- Generator: Adobe Illustrator 16.0.0, SVG Export Plug-In . SVG Version: 6.00 Build 0)  -->
<!DOCTYPE svg PUBLIC "-//W3C//DTD SVG 1.1//EN" "http://www.w3.org/Graphics/SVG/1.1/DTD/svg11.dtd">
<svg version="1.1" id="Layer_1" xmlns="http://www.w3.org/2000/svg" xmlns:xlink="http://www.w3.org/1999/xlink" x="0px" y="0px"
	 width="24px" height="24px" viewBox="0 0 24 24" enable-background="new 0 0 24 24" xml:space="preserve">
<path d="M8.487,12.372c-2.118,0-3.835-1.73-3.835-3.863c0-2.134,1.717-3.863,3.835-3.863s3.835,1.729,3.835,3.863
	C12.322,10.642,10.605,12.372,8.487,12.372 M8.487-0.009C3.8-0.009,0,3.818,0,8.54C0,13,3.844,18.753,6.411,21.554
	c0.959,1.046,2.076,2.455,2.076,2.455s1.2-1.417,2.229-2.494c2.563-2.684,6.258-8.071,6.258-12.975
	C16.975,3.818,13.175-0.009,8.487-0.009"/>
</svg>
