<?xml version="1.0" encoding="utf-8"?>
<!-- Generator: Adobe Illustrator 16.0.0, SVG Export Plug-In . SVG Version: 6.00 Build 0)  -->
<!DOCTYPE svg PUBLIC "-//W3C//DTD SVG 1.1//EN" "http://www.w3.org/Graphics/SVG/1.1/DTD/svg11.dtd">
<svg version="1.1" id="Layer_1" xmlns="http://www.w3.org/2000/svg" xmlns:xlink="http://www.w3.org/1999/xlink" x="0px" y="0px"
	 width="24px" height="24px" viewBox="0 0 24 24" enable-background="new 0 0 24 24" xml:space="preserve">
<path d="M17.986,24.007H1.998C0.895,24.007,0,23.11,0,22.006V12c0-1.104,0.895-2.001,1.998-2.001h0.999V6.998
	c0-3.869,3.132-7.004,6.995-7.004s6.995,3.136,6.995,7.004v3.001h0.999c1.104,0,1.998,0.896,1.998,2.001v10.006
	C19.984,23.11,19.09,24.007,17.986,24.007z M13.989,6.998c0-2.209-1.79-4.002-3.997-4.002S5.995,4.788,5.995,6.998v3.001h7.994
	V6.998z"/>
</svg>
