<?xml version="1.0" encoding="utf-8"?>
<!-- Generator: Adobe Illustrator 16.0.0, SVG Export Plug-In . SVG Version: 6.00 Build 0)  -->
<!DOCTYPE svg PUBLIC "-//W3C//DTD SVG 1.1//EN" "http://www.w3.org/Graphics/SVG/1.1/DTD/svg11.dtd">
<svg version="1.1" id="Layer_1" xmlns="http://www.w3.org/2000/svg" xmlns:xlink="http://www.w3.org/1999/xlink" x="0px" y="0px"
	 width="24px" height="24px" viewBox="0 0 24 24" enable-background="new 0 0 24 24" xml:space="preserve">
<path d="M18,0c-2.851,0-4.637,1.61-6,3.386C10.637,1.61,8.851,0,6,0C3.588,0,0,1.599,0,6s3.588,6,6,6c2.851,0,4.637-1.61,6-3.386
	c1.363,1.775,3.149,3.386,6,3.386c2.412,0,6-1.599,6-6S20.412,0,18,0z M6,9.001c-0.501,0-3-0.145-3-3c0-2.741,2.305-2.99,3-3
	c1.835,0,2.889,1.121,4.188,3C8.889,7.88,7.835,9.001,6,9.001z M17.992,9.001c-1.829-0.004-2.883-1.123-4.181-3
	c1.3-1.879,2.354-3,4.188-3c0.501,0,3,0.145,3,3C21,8.735,18.704,8.989,17.992,9.001z"/>
</svg>
