<?xml version="1.0" encoding="utf-8"?>
<!-- Generator: Adobe Illustrator 16.0.0, SVG Export Plug-In . SVG Version: 6.00 Build 0)  -->
<!DOCTYPE svg PUBLIC "-//W3C//DTD SVG 1.1//EN" "http://www.w3.org/Graphics/SVG/1.1/DTD/svg11.dtd">
<svg version="1.1" id="Layer_1" xmlns="http://www.w3.org/2000/svg" xmlns:xlink="http://www.w3.org/1999/xlink" x="0px" y="0px"
	 width="24px" height="24px" viewBox="0 0 24 24" enable-background="new 0 0 24 24" xml:space="preserve">
<path d="M12,11C10.05,11,0,2.89,0,2.89V2c0-1.104,0.896-2,1.999-2H22c1.104,0,2,0.896,2,2l-0.016,1C23.984,3,14.044,11,12,11z
	 M12,13.75C14.138,13.75,23.984,6,23.984,6L24,18c0,1.104-0.896,2-2,2H1.999C0.896,20,0,19.104,0,18L0.016,6
	C0.016,6,10.05,13.75,12,13.75z"/>
</svg>
