<?xml version="1.0" encoding="utf-8"?>
<!-- Generator: Adobe Illustrator 16.0.0, SVG Export Plug-In . SVG Version: 6.00 Build 0)  -->
<!DOCTYPE svg PUBLIC "-//W3C//DTD SVG 1.1//EN" "http://www.w3.org/Graphics/SVG/1.1/DTD/svg11.dtd">
<svg version="1.1" id="Layer_1" xmlns="http://www.w3.org/2000/svg" xmlns:xlink="http://www.w3.org/1999/xlink" x="0px" y="0px"
	 width="24px" height="24px" viewBox="0 0 24 24" enable-background="new 0 0 24 24" xml:space="preserve">
<path d="M16.766,14.25C15.845,15.749,14.21,18.125,9.98,19c0.02-0.251,0,2,0,2h2.521c0.836,0,1.514,0.672,1.514,1.5
	S13.338,24,12.502,24h-8.07c-0.835,0-1.514-0.672-1.514-1.5S3.597,21,4.432,21h2.522v-2c-3.747-0.938-5.714-2.781-6.782-4.734
	c-0.417-0.717-0.17-1.635,0.554-2.049c0.723-0.414,1.649-0.168,2.067,0.549C2.837,12.745,4.381,16,8.467,16
	c4.086,0,5.678-3.248,5.678-3.248c0,0,0-0.001,0-0.002c0.418-0.717,1.344-0.963,2.066-0.549
	C16.937,12.615,17.186,13.533,16.766,14.25z M8.467,14c-2.507,0-4.539-1.91-4.539-4.267V4.267C3.928,1.91,5.96,0,8.467,0
	c2.507,0,4.54,1.91,4.54,4.267v5.467C13.007,12.09,10.975,14,8.467,14z"/>
</svg>
