<?xml version="1.0" encoding="utf-8"?>
<!-- Generator: Adobe Illustrator 16.0.0, SVG Export Plug-In . SVG Version: 6.00 Build 0)  -->
<!DOCTYPE svg PUBLIC "-//W3C//DTD SVG 1.1//EN" "http://www.w3.org/Graphics/SVG/1.1/DTD/svg11.dtd">
<svg version="1.1" id="Layer_1" xmlns="http://www.w3.org/2000/svg" xmlns:xlink="http://www.w3.org/1999/xlink" x="0px" y="0px"
	 width="24px" height="24px" viewBox="0 0 24 24" enable-background="new 0 0 24 24" xml:space="preserve">
<path d="M20.635,5.366c-0.467-0.772-1.043-1.529-1.748-2.23c-0.713-0.708-1.482-1.288-2.269-1.754L18,0c0,0,2,0,3,1
	c1,1,1,3.001,1,3.001L20.635,5.366z M9,17H5v-3.999l0.48-0.481c0.813,0.384,1.621,0.925,2.348,1.652s1.269,1.535,1.652,2.349L9,17z
	 M19.48,6.521l-8.846,8.845c-0.467-0.771-1.043-1.528-1.748-2.229c-0.713-0.707-1.482-1.286-2.269-1.754L15.48,2.52
	c0.813,0.384,1.621,0.925,2.348,1.652C18.557,4.898,19.097,5.707,19.48,6.521z M3,2.999V19h16v-7l3-3.038v11.037
	C22,21.104,21.104,22,20,22H2c-1.104,0-2-0.896-2-2.001V2c0-1.104,0.896-2,2-2h11.01l-3.001,2.999H3z"/>
</svg>
