<?xml version="1.0" encoding="utf-8"?>
<!-- Generator: Adobe Illustrator 16.0.0, SVG Export Plug-In . SVG Version: 6.00 Build 0)  -->
<!DOCTYPE svg PUBLIC "-//W3C//DTD SVG 1.0//EN" "http://www.w3.org/TR/2001/REC-SVG-20010904/DTD/svg10.dtd">
<svg version="1.0" id="Layer_1" xmlns="http://www.w3.org/2000/svg" xmlns:xlink="http://www.w3.org/1999/xlink" x="0px" y="0px"
	 width="24px" height="24px" viewBox="0 0 24 24" enable-background="new 0 0 24 24" xml:space="preserve">
<g>
	<g>
		<path fill-rule="evenodd" clip-rule="evenodd" d="M7,0H1C0.448,0,0,0.447,0,1v22c0,0.553,0.448,1,1,1h6c0.552,0,1-0.447,1-1V1
			C8,0.447,7.552,0,7,0z M23,0h-6c-0.553,0-1,0.447-1,1v22c0,0.553,0.447,1,1,1h6c0.553,0,1-0.447,1-1V1C24,0.447,23.553,0,23,0z"/>
	</g>
</g>
</svg>
