<?xml version="1.0" encoding="utf-8"?>
<!-- Generator: Adobe Illustrator 16.0.0, SVG Export Plug-In . SVG Version: 6.00 Build 0)  -->
<!DOCTYPE svg PUBLIC "-//W3C//DTD SVG 1.1//EN" "http://www.w3.org/Graphics/SVG/1.1/DTD/svg11.dtd">
<svg version="1.1" id="Layer_1" xmlns="http://www.w3.org/2000/svg" xmlns:xlink="http://www.w3.org/1999/xlink" x="0px" y="0px"
	 width="24px" height="24px" viewBox="0 0 24 24" enable-background="new 0 0 24 24" xml:space="preserve">
<path d="M10.017,0C4.485,0,0,4.484,0,10.016s4.485,10.016,10.017,10.016c5.532,0,10.017-4.484,10.017-10.016S15.549,0,10.017,0z
	 M15.024,11.017h-4.006v4.006c0,0.554-0.448,1.002-1.002,1.002c-0.553,0-1.002-0.448-1.002-1.002v-4.006H5.009
	c-0.554,0-1.002-0.448-1.002-1.002s0.448-1.002,1.002-1.002h4.006V5.007c0-0.553,0.449-1.001,1.002-1.001
	c0.554,0,1.002,0.448,1.002,1.001v4.006h4.006c0.553,0,1.001,0.448,1.001,1.002S15.577,11.017,15.024,11.017z"/>
</svg>
