<?xml version="1.0" encoding="utf-8"?>
<!-- Generator: Adobe Illustrator 16.0.0, SVG Export Plug-In . SVG Version: 6.00 Build 0)  -->
<!DOCTYPE svg PUBLIC "-//W3C//DTD SVG 1.1//EN" "http://www.w3.org/Graphics/SVG/1.1/DTD/svg11.dtd">
<svg version="1.1" id="Layer_1" xmlns="http://www.w3.org/2000/svg" xmlns:xlink="http://www.w3.org/1999/xlink" x="0px" y="0px"
	 width="24px" height="24px" viewBox="0 0 24 24" enable-background="new 0 0 24 24" xml:space="preserve">
<path d="M22.5,13.999H14V22.5c0,0.275-0.224,0.5-0.5,0.5h-4C9.224,23,9,22.775,9,22.5v-8.501H0.5c-0.276,0-0.5-0.223-0.5-0.499
	V9.499C0,9.223,0.224,9,0.5,9H9V0.499c0-0.276,0.224-0.5,0.5-0.5h4c0.276,0,0.5,0.224,0.5,0.5V9h8.5C22.776,9,23,9.223,23,9.499
	V13.5C23,13.776,22.776,13.999,22.5,13.999z"/>
</svg>
