<?xml version="1.0" encoding="utf-8"?>
<!-- Generator: Adobe Illustrator 16.0.0, SVG Export Plug-In . SVG Version: 6.00 Build 0)  -->
<!DOCTYPE svg PUBLIC "-//W3C//DTD SVG 1.1//EN" "http://www.w3.org/Graphics/SVG/1.1/DTD/svg11.dtd">
<svg version="1.1" id="Layer_1" xmlns="http://www.w3.org/2000/svg" xmlns:xlink="http://www.w3.org/1999/xlink" x="0px" y="0px"
	 width="24px" height="24px" viewBox="0 0 24 24" enable-background="new 0 0 24 24" xml:space="preserve">
<g>
	<g>
		<path d="M16.475,3.197l-0.002,0.002c-0.021-0.016-0.039-0.036-0.062-0.052c-0.682-0.46-1.615-0.289-2.082,0.383
			c-0.467,0.67-0.293,1.588,0.389,2.048c0.018,0.01,0.035,0.017,0.053,0.027l-0.006,0.009c1.939,1.331,3.213,3.539,3.213,6.041
			c0,4.068-3.355,7.366-7.491,7.366c-4.136,0-7.49-3.298-7.49-7.366c0-2.502,1.273-4.71,3.213-6.041L6.203,5.605
			c0.017-0.01,0.035-0.017,0.052-0.027c0.683-0.46,0.856-1.377,0.39-2.048c-0.468-0.671-1.4-0.843-2.083-0.383
			c-0.022,0.016-0.04,0.036-0.062,0.052L4.498,3.197C1.781,5.061,0,8.151,0,11.655c0,5.695,4.694,10.312,10.486,10.312
			s10.487-4.617,10.487-10.312C20.973,8.151,19.191,5.061,16.475,3.197z M10.486,12.974c0.827,0,1.498-0.671,1.498-1.5V1.433
			c0-0.81-0.671-1.467-1.498-1.467S8.988,0.623,8.988,1.433v10.04C8.988,12.303,9.659,12.974,10.486,12.974z"/>
	</g>
</g>
</svg>
