<?xml version="1.0" encoding="utf-8"?>
<!-- Generator: Adobe Illustrator 16.0.0, SVG Export Plug-In . SVG Version: 6.00 Build 0)  -->
<!DOCTYPE svg PUBLIC "-//W3C//DTD SVG 1.1//EN" "http://www.w3.org/Graphics/SVG/1.1/DTD/svg11.dtd">
<svg version="1.1" id="Layer_1" xmlns="http://www.w3.org/2000/svg" xmlns:xlink="http://www.w3.org/1999/xlink" x="0px" y="0px"
	 width="24px" height="24px" viewBox="0 0 24 24" enable-background="new 0 0 24 24" xml:space="preserve">
<path d="M10,20C4.477,20,0,15.522,0,9.999C0,4.478,4.477,0,10,0c5.523,0,10,4.478,10,9.999C20,15.522,15.523,20,10,20z M10,16
	c0.552,0,1-0.447,1-0.999C11,14.448,10.553,14,10,14s-1,0.448-1,1.001C9,15.553,9.448,16,10,16z M6,6l1,1
	c1.071-1.012,2.179-1.322,3.273-1.322c0.955,0,1.641,0.515,1.641,1.312c0,0.604-0.299,1.038-0.698,1.391
	c0.019-0.017-1.357,0.883-1.786,1.47C9.297,10.032,9,10.657,9,11.001c0,0.247,0,1,0,1l1.926,0.004l0.208-1.227
	c0.03-0.179,0.123-0.34,0.276-0.483c-0.185,0.172,1.359-0.92,1.876-1.508c-0.129,0.148,1.324-1.277,0.449-3.101
	C12.897,3.938,10.479,3.694,9,4.001C7.186,4.376,6.333,5.59,6,6z"/>
</svg>
