<?xml version="1.0" encoding="utf-8"?>
<!-- Generator: Adobe Illustrator 16.0.0, SVG Export Plug-In . SVG Version: 6.00 Build 0)  -->
<!DOCTYPE svg PUBLIC "-//W3C//DTD SVG 1.1//EN" "http://www.w3.org/Graphics/SVG/1.1/DTD/svg11.dtd">
<svg version="1.1" id="Layer_1" xmlns="http://www.w3.org/2000/svg" xmlns:xlink="http://www.w3.org/1999/xlink" x="0px" y="0px"
	 width="24px" height="24px" viewBox="0 0 24 24" enable-background="new 0 0 24 24" xml:space="preserve">
<path d="M16.953,14.213c-0.266-0.27-0.354-0.768-0.195-1.111c0,0,1.107-2.4,1.107-4.164C17.865,4,13.869,0,8.94,0
	S0.016,4,0.016,8.938c0,4.935,3.996,8.937,8.925,8.937c1.762,0,4.159-1.109,4.159-1.109c0.344-0.158,0.843-0.07,1.107,0.197
	l6.83,6.838c0.269,0.266,0.705,0.266,0.971,0l1.775-1.777c0.268-0.27,0.268-0.705,0-0.973L16.953,14.213z M8.94,13.75
	c-2.649,0-4.806-2.159-4.806-4.812c0-2.654,2.156-4.813,4.806-4.813s4.806,2.159,4.806,4.813C13.746,11.591,11.59,13.75,8.94,13.75z
	"/>
</svg>
