<?xml version="1.0" encoding="utf-8"?>
<!-- Generator: Adobe Illustrator 16.0.0, SVG Export Plug-In . SVG Version: 6.00 Build 0)  -->
<!DOCTYPE svg PUBLIC "-//W3C//DTD SVG 1.0//EN" "http://www.w3.org/TR/2001/REC-SVG-20010904/DTD/svg10.dtd">
<svg version="1.0" id="Layer_1" xmlns="http://www.w3.org/2000/svg" xmlns:xlink="http://www.w3.org/1999/xlink" x="0px" y="0px"
	 width="24px" height="24px" viewBox="0 0 24 24" enable-background="new 0 0 24 24" xml:space="preserve">
<g>
	<g>
		<path fill-rule="evenodd" clip-rule="evenodd" d="M23.695,8.94l-5-8C18.33,0.355,17.689,0,17,0H2C0.896,0,0,0.896,0,2v16
			c0,1.104,0.896,2,2,2h15c0.689,0,1.33-0.355,1.695-0.939l5-8C24.102,10.412,24.102,9.588,23.695,8.94z M18,12
			c-1.104,0-2-0.896-2-2s0.896-2,2-2s2,0.896,2,2S19.104,12,18,12z"/>
	</g>
</g>
</svg>
