<?xml version="1.0" encoding="utf-8"?>
<!-- Generator: Adobe Illustrator 16.0.0, SVG Export Plug-In . SVG Version: 6.00 Build 0)  -->
<!DOCTYPE svg PUBLIC "-//W3C//DTD SVG 1.1//EN" "http://www.w3.org/Graphics/SVG/1.1/DTD/svg11.dtd">
<svg version="1.1" id="Layer_1" xmlns="http://www.w3.org/2000/svg" xmlns:xlink="http://www.w3.org/1999/xlink" x="0px" y="0px"
	 width="24px" height="24px" viewBox="0 0 24 24" enable-background="new 0 0 24 24" xml:space="preserve">
<g>
	<g>
		<path d="M12,0.001C5.375,0.001,0.003,5.373,0.003,12c0,6.628,5.372,12,11.997,12c6.626,0,11.998-5.372,11.998-12
			C23.998,5.373,18.627,0.001,12,0.001z M16.412,16.71l-0.35,0.349c-0.291,0.292-0.781,0.306-1.088,0.03l-4.519-3.955
			c-0.308-0.275-0.541-0.839-0.521-1.25l0.419-7.134C10.375,4.337,10.729,4,11.142,4h0.493c0.413,0,0.767,0.337,0.787,0.75
			l0.343,5.933c0.021,0.413,0.262,1.001,0.536,1.31l3.143,3.629C16.717,15.928,16.705,16.418,16.412,16.71z"/>
	</g>
</g>
</svg>
