<?xml version="1.0" encoding="utf-8"?>
<!-- Generator: Adobe Illustrator 16.0.0, SVG Export Plug-In . SVG Version: 6.00 Build 0)  -->
<!DOCTYPE svg PUBLIC "-//W3C//DTD SVG 1.1//EN" "http://www.w3.org/Graphics/SVG/1.1/DTD/svg11.dtd">
<svg version="1.1" id="Layer_1" xmlns="http://www.w3.org/2000/svg" xmlns:xlink="http://www.w3.org/1999/xlink" x="0px" y="0px"
	 width="24px" height="24px" viewBox="0 0 24 24" enable-background="new 0 0 24 24" xml:space="preserve">
<g>
	<g>
		<path d="M22.467,3.001H16c0-1.658-1.344-3-3-3h-2c-1.657,0-3,1.343-3,3H1.533C0.687,3.001,0,3.672,0,4.501
			C0,5.329,0.687,6,1.533,6H3v14c0,2.486,1.459,4,4,4h10c2.541,0,4-1.514,4-4V6h1.467C23.313,6,24,5.329,24,4.501
			C24,3.672,23.313,3.001,22.467,3.001z M18,20c0,0.553-0.447,1.002-1,1.002H7c-0.552,0-1-0.449-1-1.002V6h12V20z M9,19h1
			c0.553,0,1-0.447,1-1V9c0-0.552-0.447-1-1-1H9C8.448,8,8,8.448,8,9v9C8,18.553,8.448,19,9,19z M14,19h1c0.553,0,1-0.447,1-1V9
			c0-0.552-0.447-1-1-1h-1c-0.553,0-1,0.448-1,1v9C13,18.553,13.447,19,14,19z"/>
	</g>
</g>
</svg>
