<?xml version="1.0" encoding="utf-8"?>
<!-- Generator: Adobe Illustrator 16.0.0, SVG Export Plug-In . SVG Version: 6.00 Build 0)  -->
<!DOCTYPE svg PUBLIC "-//W3C//DTD SVG 1.1//EN" "http://www.w3.org/Graphics/SVG/1.1/DTD/svg11.dtd">
<svg version="1.1" id="Layer_1" xmlns="http://www.w3.org/2000/svg" xmlns:xlink="http://www.w3.org/1999/xlink" x="0px" y="0px"
	 width="24px" height="24px" viewBox="0 0 24 24" enable-background="new 0 0 24 24" xml:space="preserve">
<g>
	<g>
		<path d="M21,0H2C0.896,0,0,0.896,0,2v19c0,1.104,0.896,2,2,2h4v-3H3V6h17v14h-3v3h4c1.104,0,2-0.896,2-2V2C23,0.896,22.104,0,21,0
			z M4,4C3.448,4,3,3.552,3,3c0-0.553,0.448-1,1-1c0.553,0,1,0.447,1,1C5,3.552,4.553,4,4,4z M7,4C6.448,4,6,3.552,6,3
			c0-0.553,0.448-1,1-1c0.553,0,1,0.447,1,1C8,3.552,7.553,4,7,4z M17.594,14.522l-5.011-5.092
			c-0.223-0.223-0.501-0.333-0.789-0.387c-0.067-0.015-0.133-0.034-0.202-0.039c-0.058-0.004-0.112,0.002-0.17,0.006
			c-0.157,0.005-0.31,0.035-0.458,0.088c-0.003,0.001-0.006,0.002-0.009,0.003c-0.194,0.072-0.381,0.171-0.538,0.328l-5.011,5.092
			c-0.566,0.563-0.566,1.479,0,2.043s1.484,0.564,2.05,0L10,14.056V21.5c0,0.829,0.672,1.5,1.5,1.5s1.5-0.671,1.5-1.5v-7.444
			l2.544,2.51c0.565,0.564,1.483,0.564,2.05,0S18.16,15.086,17.594,14.522z"/>
	</g>
</g>
</svg>
