<?xml version="1.0" encoding="utf-8"?>
<!-- Generator: Adobe Illustrator 16.0.0, SVG Export Plug-In . SVG Version: 6.00 Build 0)  -->
<!DOCTYPE svg PUBLIC "-//W3C//DTD SVG 1.1//EN" "http://www.w3.org/Graphics/SVG/1.1/DTD/svg11.dtd">
<svg version="1.1" id="Layer_1" xmlns="http://www.w3.org/2000/svg" xmlns:xlink="http://www.w3.org/1999/xlink" x="0px" y="0px"
	 width="24px" height="24px" viewBox="0 0 24 24" enable-background="new 0 0 24 24" xml:space="preserve">
<path d="M22.505,18v0.016L17,12.51v3.492C17,17.105,16.104,18,15,18h-1.5H3H2c-1.104,0-2-0.895-2-1.998V15l0,0V3l0,0V2.001
	C0,0.896,0.896,0,2,0h1l0,0h10.5l0,0H15c1.104,0,2,0.896,2,2.001v3.514l5.5-5.5V0C23.328,0,24,0.671,24,1.5v15
	C24,17.326,23.331,17.996,22.505,18z"/>
</svg>
