<?xml version="1.0" encoding="utf-8"?>
<!-- Generator: Adobe Illustrator 16.0.0, SVG Export Plug-In . SVG Version: 6.00 Build 0)  -->
<!DOCTYPE svg PUBLIC "-//W3C//DTD SVG 1.1//EN" "http://www.w3.org/Graphics/SVG/1.1/DTD/svg11.dtd">
<svg version="1.1" id="Layer_1" xmlns="http://www.w3.org/2000/svg" xmlns:xlink="http://www.w3.org/1999/xlink" x="0px" y="0px"
	 width="24px" height="24px" viewBox="0 0 24 24" enable-background="new 0 0 24 24" xml:space="preserve">
<g>
	<g>
		<path d="M12,0c-0.567,0-1.077,0.239-1.441,0.619C10.559,0.619,5.971,6,4,6C2.031,6,2,6,2,6C0.896,6,0,6.895,0,8v6
			c0,1.104,0.896,1.999,2,1.999c0,0-0.02,0,1.98,0c2.032,0,6.486,5.317,6.486,5.317S10.823,22,12,22c1.104,0,2-0.896,2-2.001V2
			C14,0.896,13.104,0,12,0z M19.779,2.349l-1.111,1.664C20.699,5.662,22,8.179,22,11c0,2.822-1.301,5.338-3.332,6.988l1.111,1.664
			C22.345,17.638,24,14.515,24,11C24,7.485,22.346,4.362,19.779,2.349z M17.55,5.687l-1.122,1.679
			c0.968,0.913,1.58,2.199,1.58,3.634s-0.612,2.722-1.58,3.634l1.122,1.68C19.048,15.029,20,13.128,20,11
			C20,8.872,19.048,6.97,17.55,5.687z"/>
	</g>
</g>
</svg>
