<?xml version="1.0" encoding="utf-8"?>
<!-- Generator: Adobe Illustrator 16.0.0, SVG Export Plug-In . SVG Version: 6.00 Build 0)  -->
<!DOCTYPE svg PUBLIC "-//W3C//DTD SVG 1.1//EN" "http://www.w3.org/Graphics/SVG/1.1/DTD/svg11.dtd">
<svg version="1.1" id="Layer_1" xmlns="http://www.w3.org/2000/svg" xmlns:xlink="http://www.w3.org/1999/xlink" x="0px" y="0px"
	 width="24px" height="24px" viewBox="0 0 24 24" enable-background="new 0 0 24 24" xml:space="preserve">
<g>
	<g>
		<path d="M22,4h-2V2.001C20,0.896,19.104,0,18,0H2C0.896,0,0,0.896,0,2.001V18c0,1.104,0.896,2.001,2,2.001h2V22
			c0,1.104,0.896,2,2,2h16c1.104,0,2-0.896,2-2V6C24,4.896,23.104,4,22,4z M7,2.001c0.552,0,1,0.446,1,0.999S7.552,4,7,4
			S6,3.553,6,3S6.448,2.001,7,2.001z M4,2.001c0.552,0,1,0.446,1,0.999S4.552,4,4,4S3,3.553,3,3S3.448,2.001,4,2.001z M3,17V6h14v11
			H3z M21,21H7v-0.999h11c1.104,0,2-0.896,2-2.001v-8h1V21z"/>
	</g>
</g>
</svg>
